<svg width="33" height="32" viewBox="0 0 33 32" fill="none" xmlns="http://www.w3.org/2000/svg">
<path d="M10.401 9.49036C12.1093 7.77171 14.2607 6.88574 16.8553 6.83246C19.4251 6.88698 21.5642 7.77294 23.2724 9.49036C24.9806 11.2078 25.8745 13.349 25.9539 15.9139C25.8732 18.4764 24.9794 20.6176 23.2724 22.3375C21.5654 24.0574 19.4264 24.9452 16.8553 25.001C14.2595 24.9477 12.108 24.0624 10.401 22.3449C8.69403 20.6275 7.80018 18.4863 7.71948 15.9214C7.79769 13.3514 8.69154 11.2078 10.401 9.49036Z" fill="white"/>
<path d="M16.8553 25.7872C14.0483 25.7079 11.7113 24.7426 9.84416 22.8914C7.97702 21.0402 7.01676 18.7143 6.96338 15.9139C7.01676 13.1371 7.97702 10.8175 9.84416 8.95508C11.7113 7.09269 14.0483 6.12184 16.8553 6.04254C19.6374 6.12061 21.9614 7.09207 23.8273 8.95694C25.6932 10.8218 26.6534 13.1414 26.7081 15.9158C26.6547 18.7174 25.6944 21.0433 23.8273 22.8933C21.9601 24.7433 19.6361 25.7079 16.8553 25.7872ZM16.8553 7.90307C14.5772 7.98238 12.684 8.76921 11.1756 10.2636C9.66726 11.758 8.88577 13.6414 8.83115 15.9139C8.88329 18.1865 9.66478 20.0761 11.1756 21.5829C12.6865 23.0897 14.5797 23.8697 16.8553 23.923C19.106 23.8697 20.9868 23.0897 22.4977 21.5829C24.0085 20.0761 24.7894 18.1865 24.8403 15.9139C24.7881 13.6402 24.0073 11.7567 22.4977 10.2636C20.9881 8.77045 19.1073 7.983 16.8553 7.90121V7.90307Z" fill="#FFBC1F"/>
<path d="M16.8555 21.8617C15.1609 21.8072 13.7574 21.2322 12.6451 20.1368C11.5327 19.0415 10.9499 17.6338 10.8965 15.9139C10.8965 14.2486 11.4464 12.8608 12.5464 11.7505C13.6463 10.6403 15.0696 10.0455 16.8164 9.96619C18.5109 9.99221 19.9212 10.5672 21.0472 11.691C22.1732 12.8149 22.7493 14.2225 22.7753 15.9139C22.7493 17.6053 22.1732 19.0062 21.0472 20.1164C19.9316 21.2218 18.4273 21.8481 16.8555 21.8617V21.8617ZM16.9355 11.9884H16.8555C15.6897 12.0405 14.7363 12.4302 13.9952 13.1575C13.6286 13.5171 13.3433 13.9507 13.1583 14.4293C12.9733 14.9079 12.8929 15.4204 12.9225 15.9325C12.9189 16.4488 13.019 16.9606 13.217 17.4375C13.415 17.9145 13.7068 18.347 14.0752 18.7094C14.5316 19.1672 15.0937 19.506 15.7121 19.6961C16.3305 19.8861 16.9862 19.9216 17.6215 19.7993C18.2568 19.677 18.8523 19.4007 19.3555 18.9947C19.8587 18.5887 20.2542 18.0655 20.5073 17.4711C20.7603 16.8767 20.8631 16.2294 20.8066 15.586C20.75 14.9427 20.536 14.323 20.1832 13.7817C19.8304 13.2403 19.3497 12.7938 18.7834 12.4814C18.217 12.169 17.5825 12.0004 16.9355 11.9903V11.9884Z" fill="#FFBC1F"/>
<path d="M15.6842 14.7783C15.9954 14.4845 16.4075 14.3207 16.836 14.3207C17.2644 14.3207 17.6765 14.4845 17.9877 14.7783C18.2817 15.0813 18.4461 15.4866 18.4461 15.9084C18.4461 16.3302 18.2817 16.7354 17.9877 17.0385C17.6765 17.3323 17.2644 17.4961 16.836 17.4961C16.4075 17.4961 15.9954 17.3323 15.6842 17.0385C15.3915 16.7348 15.228 16.3298 15.228 15.9084C15.228 15.487 15.3915 15.082 15.6842 14.7783V14.7783Z" fill="#FFBC1F"/>
<path d="M17.0023 16.1501C16.9446 16.2076 16.8664 16.2399 16.7848 16.2399C16.7033 16.2399 16.6251 16.2076 16.5674 16.1501C16.5097 16.0926 16.4773 16.0146 16.4773 15.9332C16.4773 15.8519 16.5097 15.7739 16.5674 15.7164L17.7926 14.4965L18.1868 14.9302L17.0023 16.1501Z" fill="#818698"/>
<path d="M26.7859 8.89917C26.9179 9.63737 25.6674 10.191 23.0343 10.5601L19.2049 14.8509C19.121 14.9388 19.0199 15.0085 18.9078 15.0558C18.7957 15.1031 18.6751 15.127 18.5534 15.1259C18.3019 15.1262 18.0604 15.0273 17.8816 14.8509C17.7884 14.7701 17.7137 14.6703 17.6626 14.5582C17.6115 14.4461 17.5852 14.3244 17.5855 14.2013C17.5883 13.9456 17.6866 13.7002 17.8612 13.5129L22.1663 9.73334C22.5364 7.10905 23.0917 5.85535 23.832 5.97223C24.5723 6.08911 24.6377 7.01185 24.0282 8.74046C25.7359 8.11177 26.6551 8.16467 26.7859 8.89917Z" fill="#1E325C"/>
</svg>
