<svg width="73" height="54" viewBox="0 0 73 54" fill="none" xmlns="http://www.w3.org/2000/svg">
<path d="M44.4512 0H2.79248C1.25023 0 0 1.25024 0 2.79248V44.4513C0 45.9935 1.25023 47.2437 2.79248 47.2437H44.4512C45.9935 47.2437 47.2437 45.9935 47.2437 44.4513V2.79248C47.2437 1.25024 45.9935 0 44.4512 0Z" fill="#FFBC1F"/>
<path d="M15.2588 10.616L5.37378 23.0765L15.2588 35.5427" stroke="#1B1D22" stroke-width="4.6" stroke-linecap="round" stroke-linejoin="round"/>
<path d="M31.9851 35.5427L41.8701 23.0765L31.9851 10.616" stroke="#1B1D22" stroke-width="4.6" stroke-linecap="round" stroke-linejoin="round"/>
<path d="M20.6152 36.6277L26.6228 10.616" stroke="#1B1D22" stroke-width="1.84" stroke-linecap="round" stroke-linejoin="round"/>
<path d="M59.5044 24.4014C59.3151 21.5824 58.3177 18.8776 56.6315 16.6106C54.9454 14.3437 52.6418 12.6105 49.9964 11.6183C47.351 10.6262 44.4758 10.4172 41.7147 11.0163C38.9536 11.6153 36.4236 12.9971 34.4273 14.9964C32.4309 16.9956 31.0528 19.5277 30.4578 22.2897C29.8627 25.0516 30.0759 27.9265 31.0719 30.5704C32.0679 33.2144 33.8045 35.5154 36.074 37.1983C38.3434 38.8811 41.0496 39.8746 43.8688 40.0598C47.3765 40.2749 50.8468 39.2389 53.6625 37.136L55.9125 39.3802L58.7678 36.5249L56.5235 34.2807C58.6975 31.4658 59.7586 27.9489 59.5044 24.4014ZM53.2799 33.8352C52.1915 35.0479 50.8674 36.0261 49.3884 36.71C47.9094 37.3939 46.3065 37.7692 44.6776 37.813C43.0487 37.8568 41.428 37.5682 39.9144 36.9648C38.4007 36.3614 37.0259 35.4559 35.8739 34.3034C34.7219 33.151 33.8168 31.7759 33.2139 30.2621C32.611 28.7483 32.323 27.1275 32.3673 25.4986C32.4117 23.8697 32.7876 22.267 33.472 20.7882C34.1564 19.3094 35.135 17.9856 36.348 16.8976C38.6321 14.849 41.6145 13.7538 44.6816 13.8373C47.7487 13.9208 50.6672 15.1768 52.8364 17.3467C55.0056 19.5166 56.2606 22.4355 56.3431 25.5026C56.4256 28.5698 55.3293 31.5518 53.2799 33.8352Z" fill="#B3B3B3"/>
<path opacity="0.5" d="M36.3707 16.8976C38.6616 14.8918 41.6296 13.8325 44.6728 13.9346C47.716 14.0367 50.6063 15.2926 52.7576 17.4474C54.9088 19.6023 56.1598 22.4948 56.2568 25.5382C56.3538 28.5815 55.2894 31.5478 53.2797 33.8352C52.1913 35.0479 50.8672 36.0261 49.3882 36.71C47.9092 37.3939 46.3064 37.7692 44.6775 37.813C43.0486 37.8568 41.4279 37.5682 39.9142 36.9648C38.4006 36.3614 37.0258 35.4558 35.8738 34.3034C34.7218 33.151 33.8167 31.7759 33.2138 30.2621C32.6109 28.7483 32.3229 27.1275 32.3672 25.4986C32.4116 23.8697 32.7875 22.267 33.4719 20.7882C34.1562 19.3094 35.1348 17.9856 36.3479 16.8976H36.3707Z" fill="#F2F2F2"/>
<path d="M36.7763 32.5333C37.8847 33.6427 39.2009 34.5227 40.6496 35.1232C42.0983 35.7236 43.6512 36.0327 45.2194 36.0327C46.7876 36.0327 48.3405 35.7236 49.7892 35.1232C51.2379 34.5227 52.5541 33.6427 53.6625 32.5333C54.939 31.2681 55.9148 29.7322 56.5178 28.039C56.0222 30.2836 54.8993 32.3412 53.2799 33.9724C51.0235 36.2143 47.9719 37.4726 44.7911 37.4726C41.6103 37.4726 38.5587 36.2143 36.3023 33.9724C34.6954 32.3474 33.5826 30.2998 33.093 28.0676C32.608 25.885 32.7626 23.6088 33.5384 21.5118C33.1195 23.4274 33.1823 25.417 33.7211 27.3024C34.2823 29.2756 35.3333 31.075 36.7763 32.5333Z" fill="#999999"/>
<path d="M68.8012 52.8801C68.5305 52.9991 68.2322 53.0413 67.9391 53.002C67.6459 52.9627 67.3693 52.8435 67.1395 52.6574L55.3699 39.8999C55.1914 39.719 55.0579 39.4986 54.9805 39.2565C54.9032 39.0144 54.884 38.7574 54.9245 38.5065C55.0722 37.7669 55.4476 37.092 55.9981 36.5763C56.5209 36.0183 57.1927 35.6219 57.934 35.4342C58.1886 35.381 58.453 35.3993 58.6979 35.487C58.9428 35.5746 59.1587 35.7283 59.3217 35.931L72.1705 47.7006C72.3549 47.923 72.4704 48.1943 72.5028 48.4814C72.5353 48.7684 72.4833 49.0587 72.3532 49.3167C72.0554 50.1273 71.5882 50.8651 70.9827 51.481C70.387 52.126 69.636 52.6077 68.8012 52.8801Z" fill="#FFBC1F"/>
<path d="M69.5665 45.2907L64.8038 50.1447L58.9619 43.8517L63.2791 39.5402L69.5665 45.2907Z" fill="#7F2126"/>
</svg>
