<svg width="189" height="31" viewBox="0 0 189 31" fill="none" xmlns="http://www.w3.org/2000/svg">
<g clip-path="url(#clip0_348_350)">
<path fill-rule="evenodd" clip-rule="evenodd" d="M41.1502 6.11583C41.966 5.99991 42.7888 5.94064 43.6127 5.93845C44.4368 5.93755 45.2599 5.99684 46.0753 6.11583L51.359 17.07L56.7992 6.11583C57.5279 5.99166 58.2661 5.9323 59.0052 5.93845C59.7867 5.93587 60.5672 5.99518 61.3394 6.11583L62.4188 26.2296C61.6561 26.3445 60.886 26.4038 60.1147 26.407C59.3971 26.4078 58.6807 26.3485 57.973 26.2296L57.3974 11.6863L52.7271 21.7385C52.4289 21.7781 52.1194 21.8121 51.8005 21.8423C51.4816 21.8725 51.1608 21.8857 50.84 21.8857C50.5626 21.8857 50.2871 21.8857 50.0097 21.8574C49.7196 21.8349 49.431 21.7952 49.1455 21.7385L44.7959 11.4787L44.3449 26.2296C43.6902 26.3457 43.0266 26.405 42.3616 26.407C41.6548 26.4053 40.9492 26.346 40.252 26.2296L41.1464 6.11583H41.1502ZM180.318 13.9772H178.399L178.252 13.3884L183.773 6.33095H184.451V10.79H188.023C188.078 11.0528 188.118 11.3187 188.142 11.5863C188.16 11.8222 188.172 12.0694 188.172 12.3241C188.172 12.5789 188.16 12.8657 188.142 13.1223C188.118 13.4093 188.079 13.6947 188.023 13.9772H184.451V19.9703C184.439 20.4671 184.489 20.9634 184.6 21.4479C184.673 21.7714 184.819 22.074 185.026 22.3329C185.209 22.5461 185.45 22.7004 185.721 22.7763C186.038 22.8593 186.366 22.8987 186.694 22.8933C186.986 22.8937 187.278 22.8691 187.566 22.8197L188.321 22.6877C188.46 23.065 188.558 23.4559 188.615 23.8538C188.671 24.2103 188.701 24.5705 188.704 24.9313C188.704 25.1464 188.704 25.3295 188.689 25.4767C188.674 25.6239 188.664 25.7673 188.645 25.905C187.727 26.1233 186.786 26.2322 185.841 26.2296C184.05 26.2296 182.682 25.8113 181.737 24.9747C180.792 24.1381 180.32 22.7751 180.32 20.8855V13.9772H180.318ZM170.107 19.4099C169.005 19.0941 168.144 18.6268 167.524 18.0078C166.904 17.3889 166.594 16.4586 166.594 15.2169C166.594 13.7224 167.13 12.5518 168.203 11.7052C169.276 10.8585 170.738 10.4352 172.587 10.4352C173.346 10.4357 174.104 10.5052 174.851 10.6428C175.622 10.7874 176.379 10.9944 177.116 11.2617C177.071 11.8017 176.972 12.3359 176.821 12.8563C176.681 13.3562 176.491 13.841 176.255 14.3036C175.746 14.0939 175.223 13.9211 174.689 13.7866C174.101 13.6371 173.496 13.5629 172.889 13.5658C172.221 13.5658 171.698 13.6677 171.324 13.8753C171.145 13.9679 170.996 14.1105 170.895 14.2859C170.795 14.4614 170.747 14.6622 170.758 14.8641C170.758 15.2968 170.891 15.6019 171.156 15.7793C171.51 15.9964 171.891 16.1652 172.289 16.2812L173.972 16.7832C174.497 16.9248 175.006 17.1182 175.493 17.3606C175.917 17.5729 176.3 17.8577 176.625 18.2022C176.955 18.5595 177.206 18.9818 177.363 19.442C177.554 20.0224 177.644 20.6313 177.629 21.2422C177.635 21.9475 177.479 22.6448 177.172 23.2802C176.861 23.9184 176.409 24.4782 175.851 24.9181C175.219 25.407 174.504 25.7772 173.74 26.0107C172.832 26.2885 171.885 26.4228 170.936 26.4089C170.463 26.4089 170.03 26.3944 169.637 26.3655C169.258 26.337 168.88 26.2873 168.505 26.2164C168.141 26.1485 167.783 26.0635 167.428 25.9654C167.073 25.8673 166.69 25.739 166.277 25.588C166.319 25.0437 166.413 24.5047 166.558 23.9784C166.703 23.4372 166.892 22.9089 167.124 22.3989C167.723 22.6394 168.34 22.8318 168.969 22.9745C169.566 23.1033 170.175 23.1666 170.785 23.1632C171.086 23.1611 171.387 23.1365 171.685 23.0896C171.996 23.0445 172.299 22.9549 172.585 22.8235C172.848 22.7051 173.084 22.5343 173.279 22.3216C173.473 22.0966 173.572 21.8063 173.559 21.5102C173.559 21.0384 173.417 20.6987 173.13 20.4912C172.764 20.2468 172.361 20.0627 171.936 19.9458L170.105 19.4137L170.107 19.4099ZM157.377 26.407C156.27 26.4324 155.169 26.2261 154.145 25.8012C153.267 25.4246 152.488 24.8482 151.871 24.118C151.257 23.3748 150.796 22.5174 150.514 21.5951C150.201 20.582 150.047 19.5267 150.056 18.4664C150.048 17.3963 150.203 16.3312 150.514 15.3075C150.791 14.3737 151.253 13.5049 151.871 12.7525C152.49 12.0204 153.267 11.4395 154.145 11.0542C155.166 10.6202 156.268 10.4092 157.377 10.4352C158.492 10.4108 159.598 10.6224 160.625 11.0561C161.511 11.4404 162.298 12.0212 162.927 12.7544C163.554 13.5016 164.017 14.372 164.286 15.3094C164.588 16.3349 164.737 17.3993 164.729 18.4683C164.739 19.5275 164.589 20.5821 164.286 21.597C164.012 22.5228 163.55 23.3819 162.927 24.1199C162.3 24.8513 161.512 25.4274 160.625 25.8031C159.596 26.2264 158.49 26.432 157.377 26.407ZM157.377 23.2179C158.479 23.2179 159.272 22.8097 159.755 21.9932C160.238 21.1768 160.479 20.0012 160.478 18.4664C160.478 16.9304 160.237 15.7541 159.755 14.9377C159.273 14.1212 158.481 13.713 157.377 13.713C156.296 13.713 155.514 14.1212 155.032 14.9377C154.55 15.7541 154.309 16.9304 154.307 18.4664C154.307 19.9999 154.549 21.1755 155.032 21.9932C155.515 22.8109 156.297 23.2167 157.377 23.2104V23.2179ZM126.695 10.79C126.967 10.7313 127.243 10.6872 127.521 10.6579C127.825 10.6263 128.131 10.6112 128.436 10.6126C128.732 10.6105 129.027 10.6257 129.321 10.6579C129.578 10.6862 129.844 10.7315 130.119 10.79C130.192 10.9249 130.247 11.0689 130.282 11.2183C130.331 11.407 130.376 11.5957 130.414 11.809C130.452 12.0222 130.487 12.2166 130.518 12.4128C130.548 12.6091 130.572 12.777 130.591 12.9148C130.765 12.5976 130.973 12.3007 131.212 12.0298C131.48 11.7241 131.788 11.4562 132.127 11.2334C132.498 10.9917 132.9 10.8013 133.322 10.6673C133.803 10.5127 134.307 10.4375 134.812 10.4447C137.194 10.4447 138.719 11.3504 139.388 13.162C139.8 12.4136 140.369 11.7634 141.057 11.2561C141.776 10.7151 142.687 10.4447 143.789 10.4447C145.519 10.4447 146.793 10.9221 147.61 11.8769C148.428 12.8317 148.837 14.3225 148.837 16.3492V26.0617C147.449 26.2981 146.032 26.2981 144.644 26.0617V17.4323C144.644 16.3705 144.511 15.5528 144.246 14.9792C143.98 14.4055 143.444 14.1199 142.636 14.1225C142.301 14.1225 141.968 14.1721 141.647 14.2697C141.311 14.3746 141.007 14.5621 140.762 14.815C140.464 15.1353 140.242 15.5192 140.113 15.9378C139.928 16.5445 139.843 17.1775 139.862 17.8116V26.0484C138.474 26.2849 137.057 26.2849 135.669 26.0484V17.4323C135.669 16.3705 135.536 15.5528 135.271 14.9792C135.006 14.4055 134.469 14.1199 133.661 14.1225C133.321 14.1234 132.983 14.1729 132.657 14.2697C132.312 14.3735 132.001 14.5692 131.757 14.8358C131.458 15.1814 131.241 15.5905 131.123 16.0321C130.948 16.6857 130.868 17.3615 130.887 18.038V26.039C129.5 26.2755 128.082 26.2755 126.695 26.039V10.79ZM115.52 10.79C115.814 10.7315 116.095 10.6862 116.359 10.6579C116.649 10.6265 116.94 10.6113 117.231 10.6126C117.522 10.613 117.813 10.6325 118.101 10.6711C118.388 10.7107 118.667 10.7598 118.943 10.8202C119.016 10.954 119.071 11.0976 119.105 11.2466C119.154 11.4353 119.199 11.624 119.239 11.8373C119.279 12.0505 119.312 12.2505 119.343 12.4581C119.373 12.6657 119.396 12.8355 119.416 12.9752C119.862 12.3515 120.398 11.7986 121.009 11.3353C121.693 10.8362 122.525 10.5816 123.371 10.6126C123.56 10.6126 123.794 10.622 124.051 10.6428C124.242 10.6506 124.432 10.6803 124.617 10.7315C124.66 10.9552 124.69 11.1815 124.706 11.4089C124.726 11.6656 124.736 11.9316 124.736 12.2071C124.736 12.5418 124.721 12.906 124.69 13.2997C124.664 13.6768 124.61 14.0515 124.528 14.4206C124.29 14.3795 124.048 14.3599 123.805 14.3621H123.319C122.939 14.365 122.56 14.3997 122.186 14.4659C121.753 14.5441 121.346 14.7318 121.005 15.0113C120.589 15.3659 120.269 15.8204 120.077 16.3322C119.825 16.9222 119.699 17.7487 119.699 18.8117V26.0749C119.348 26.1334 118.993 26.1725 118.637 26.1919C118.282 26.2126 117.939 26.222 117.603 26.222C117.267 26.222 116.929 26.2126 116.586 26.1919C116.225 26.171 115.865 26.1319 115.508 26.0749V10.79H115.52ZM103.975 19.7062C104.054 20.8862 104.467 21.7423 105.215 22.2744C105.962 22.8065 106.946 23.072 108.168 23.0707C108.856 23.0701 109.542 23.0069 110.219 22.882C110.898 22.7602 111.565 22.5777 112.212 22.3367C112.452 22.7867 112.642 23.262 112.778 23.7538C112.938 24.3314 113.028 24.9265 113.044 25.5257C111.381 26.1373 109.619 26.4374 107.847 26.4108C106.43 26.4108 105.215 26.2139 104.201 25.8201C103.254 25.4746 102.401 24.9124 101.71 24.1784C101.06 23.4612 100.576 22.6094 100.293 21.6838C99.9794 20.6605 99.8254 19.5951 99.8365 18.5249C99.8284 17.4538 99.9876 16.388 100.308 15.366C100.599 14.4247 101.076 13.5514 101.71 12.7978C102.343 12.0606 103.128 11.4707 104.013 11.0693C105.023 10.6268 106.118 10.4104 107.22 10.4352C108.194 10.4196 109.159 10.6127 110.051 11.0013C110.855 11.3586 111.574 11.8821 112.161 12.5374C112.757 13.2099 113.207 13.999 113.482 14.8546C113.781 15.7842 113.93 16.7557 113.923 17.7323C113.923 18.1097 113.908 18.4758 113.88 18.84C113.851 19.2042 113.816 19.4948 113.776 19.7118L103.975 19.7062ZM109.968 16.7832C109.928 15.8384 109.667 15.0754 109.185 14.4942C108.703 13.913 108.029 13.623 107.162 13.6243C106.178 13.6243 105.43 13.8998 104.918 14.4508C104.406 15.0018 104.102 15.7793 104.005 16.7832H109.968ZM90.5769 13.9772H88.6503L88.5012 13.3978L94.0207 6.34039H94.7001V10.7994H98.2722C98.326 11.0625 98.3657 11.3284 98.3911 11.5957C98.4099 11.8316 98.4194 12.0788 98.4194 12.3336C98.4194 12.5883 98.4099 12.8751 98.3911 13.1318C98.366 13.4186 98.3264 13.7039 98.2722 13.9866H94.7019V19.9798C94.6903 20.4766 94.7404 20.9729 94.851 21.4573C94.9244 21.7808 95.0702 22.0834 95.2775 22.3423C95.4601 22.5555 95.7017 22.7098 95.9719 22.7858C96.2897 22.8688 96.6172 22.9081 96.9456 22.9028C97.2378 22.9031 97.5294 22.8785 97.8174 22.8292L98.5722 22.6971C98.7109 23.0744 98.8096 23.4653 98.8666 23.8633C98.9226 24.2198 98.9522 24.5799 98.9553 24.9408C98.9553 25.1559 98.9553 25.3389 98.9402 25.4861C98.9251 25.6333 98.9157 25.7767 98.8968 25.9145C97.9771 26.1297 97.0353 26.2354 96.0908 26.2296C94.2994 26.2296 92.9313 25.8113 91.9865 24.9747C91.0417 24.1381 90.5719 22.7751 90.5769 20.8855V13.9772ZM79.5001 13.9772H77.5735L77.4263 13.3884L82.9477 6.33095H83.627V10.79H87.1991C87.2534 11.053 87.2924 11.3188 87.3161 11.5863C87.3369 11.8222 87.3463 12.0694 87.3463 12.3241C87.3463 12.5789 87.3463 12.8657 87.3161 13.1223C87.2927 13.4092 87.2537 13.6946 87.1991 13.9772H83.627V19.9703C83.6149 20.467 83.6643 20.9633 83.7742 21.4479C83.8481 21.7715 83.9946 22.0742 84.2026 22.3329C84.384 22.5464 84.6252 22.7009 84.8951 22.7763C85.2135 22.8593 85.5417 22.8987 85.8707 22.8933C86.1622 22.8936 86.4533 22.869 86.7406 22.8197L87.4954 22.6877C87.6338 23.0652 87.7331 23.456 87.7917 23.8538C87.8462 24.2105 87.8752 24.5706 87.8785 24.9313C87.8785 25.1464 87.8785 25.3295 87.8653 25.4767C87.8521 25.6239 87.8407 25.7673 87.82 25.905C86.9007 26.1234 85.9588 26.2323 85.014 26.2296C83.2226 26.2296 81.8545 25.8113 80.9097 24.9747C79.9649 24.1381 79.4926 22.7751 79.4926 20.8855V13.9772H79.5001ZM72.6238 19.0589C72.3879 19.0212 72.1332 18.9853 71.8558 18.957C71.6108 18.9286 71.3645 18.9135 71.118 18.9117C70.1531 18.9117 69.3907 19.0841 68.8309 19.4288C68.2711 19.7735 67.9905 20.3295 67.9893 21.0969C67.9635 21.5117 68.0764 21.9232 68.3101 22.2668C68.5141 22.5329 68.784 22.7411 69.0932 22.8707C69.4033 23.0005 69.7319 23.0807 70.0669 23.1085C70.4122 23.1368 70.7122 23.1519 70.967 23.1519C71.2635 23.1518 71.5595 23.1272 71.852 23.0783C72.1483 23.0292 72.4049 22.9839 72.62 22.9443V19.0589H72.6238ZM72.6238 16.0189C72.6407 15.6217 72.5597 15.2264 72.3879 14.8678C72.2388 14.5816 72.0144 14.3414 71.7388 14.1734C71.4252 13.9934 71.0787 13.8779 70.7198 13.8338C70.2746 13.7721 69.8256 13.7425 69.3762 13.7451C68.2174 13.7622 67.0696 13.972 65.9796 14.3659C65.726 13.9051 65.5187 13.4202 65.3607 12.9185C65.2125 12.3907 65.1425 11.8439 65.1531 11.2957C66.77 10.7449 68.4645 10.4557 70.1726 10.439C72.2206 10.439 73.8195 10.9309 74.9694 11.9146C76.1192 12.8984 76.6947 14.4709 76.696 16.6322V25.488C75.871 25.7387 75.0332 25.9453 74.1863 26.1069C73.0873 26.3154 71.9704 26.4146 70.8519 26.4032C69.9249 26.4108 68.9996 26.3216 68.0912 26.1371C67.3213 25.988 66.5887 25.6871 65.9362 25.2521C65.3446 24.848 64.8665 24.299 64.5473 23.6576C64.2018 22.9092 64.0351 22.0907 64.0605 21.2667C64.0313 20.4326 64.2415 19.6076 64.6662 18.8891C65.0601 18.2622 65.5976 17.7383 66.2343 17.3606C66.8968 16.9667 67.6208 16.6873 68.3761 16.5341C69.152 16.3676 69.9433 16.2835 70.7368 16.2831C71.3029 16.2831 71.9369 16.3133 72.6238 16.3718V16.0189Z" fill="white"/>
<path fill-rule="evenodd" clip-rule="evenodd" d="M24.6087 2.95883L24.7729 6.24791C27.4393 9.19544 28.4941 13.3676 27.1732 17.2889C25.1918 23.1386 18.6571 26.222 12.5771 24.1633C6.4971 22.1046 3.17594 15.6906 5.15731 9.83702C6.48955 5.90069 9.87486 3.22112 13.8036 2.5116L15.9152 -2.29026e-05C12.209 -0.0990368 8.59009 1.13404 5.71537 3.4754C2.84065 5.81676 0.900656 9.1112 0.247513 12.7608C-0.40563 16.4103 0.271368 20.1731 2.15563 23.3662C4.03989 26.5592 7.00651 28.9709 10.517 30.1634C14.0276 31.3559 17.8493 31.2503 21.2886 29.8657C24.7279 28.481 27.5568 25.9092 29.2618 22.6169C30.9668 19.3247 31.4349 15.5302 30.5812 11.9223C29.7274 8.3144 27.6084 5.13215 24.6087 2.95317V2.95883Z" fill="white"/>
<path fill-rule="evenodd" clip-rule="evenodd" d="M20.8102 12.6657L20.6969 8.06702L20.6064 5.42519L20.546 3.13246C20.546 3.13246 20.5592 2.02667 20.5196 1.76815C20.5131 1.71982 20.4977 1.67312 20.4743 1.63039V1.61341L20.4648 1.6002C20.4237 1.52498 20.3566 1.4673 20.2761 1.43792C20.1915 1.40938 20.0994 1.41341 20.0176 1.44924L19.9893 1.46433C19.948 1.48354 19.9104 1.50971 19.878 1.5417C19.6893 1.7304 19.0269 2.60976 19.0269 2.60976L17.5852 4.39488L15.8888 6.43853L13.0054 10.0239C13.0054 10.0239 11.6845 11.675 11.9751 13.7073C12.2657 15.7397 13.7772 16.7266 14.9491 17.1266C16.1209 17.5267 17.923 17.655 19.3911 16.219C20.8592 14.7829 20.8102 12.6657 20.8102 12.6657Z" fill="white"/>
</g>
<defs>
<clipPath id="clip0_348_350">
<rect width="188.702" height="31" fill="white"/>
</clipPath>
</defs>
</svg>
