<svg width="177" height="58" viewBox="0 0 177 58" fill="none" xmlns="http://www.w3.org/2000/svg">
<g clip-path="url(#clip0_301_506)">
<path fill-rule="evenodd" clip-rule="evenodd" d="M19.4723 7.24306C12.0163 5.20168 3.5434 9.17963 0.821363 17.2191C-1.91951 25.3152 2.42232 34.1001 10.5183 36.841C18.6144 39.5819 27.3993 35.24 30.1408 27.144C32.3806 20.5288 29.8687 13.7776 24.8557 9.92211L24.5848 12.7902H24.5842C27.311 15.6729 28.5345 19.8211 27.1308 23.9686C25.1513 29.816 18.6244 32.8895 12.5521 30.834C6.47975 28.7791 3.16185 22.3729 5.14082 16.5255C6.8925 11.3511 12.2053 8.45011 17.3543 9.0919V9.09131L19.4723 7.24306ZM15.8364 16.9512C17.8713 16.5597 19.9498 18.5728 19.2291 20.7019C18.7263 22.1869 17.0682 22.9688 15.5249 22.4459C13.9823 21.9237 13.1391 20.2962 13.6425 18.8107C13.9799 17.8115 14.8402 17.1314 15.8364 16.9512ZM15.0798 14.0402C14.0282 14.2304 13.0484 14.6902 12.2465 15.3697C11.4816 16.018 10.881 16.8682 10.5401 17.8768C10.0226 19.406 10.1992 21.011 10.9034 22.3706C11.6135 23.7419 12.8612 24.8636 14.4775 25.4111C16.0931 25.9581 17.7653 25.8239 19.1637 25.1656C20.5486 24.5138 21.6638 23.3456 22.1813 21.8165C22.5081 20.8515 22.5541 19.9005 22.3839 19.0132C22.2602 18.3697 22.0218 17.7567 21.6926 17.1932L22.2926 14.1862C22.4039 14.2963 22.5128 14.4088 22.6176 14.5242C23.648 15.6541 24.3888 17.046 24.6832 18.5734C24.9275 19.8417 24.8622 21.1977 24.3982 22.5678C23.6687 24.7234 22.103 26.3674 20.1629 27.2812C18.2358 28.1885 15.9383 28.3752 13.7273 27.6274C11.517 26.879 9.80531 25.334 8.82495 23.4422C7.8393 21.5386 7.59436 19.2823 8.32388 17.1255C8.80611 15.7012 9.65457 14.4995 10.7362 13.5833C11.8432 12.6453 13.198 12.0094 14.6553 11.7433L14.6547 11.7409C15.6904 11.5413 16.7284 11.5566 17.7241 11.7503L15.6144 13.9648C15.4413 13.9813 15.2682 14.0066 15.0945 14.0396H15.0798V14.0402Z" fill="#1C58D9"/>
<path fill-rule="evenodd" clip-rule="evenodd" d="M22.0771 6.87153L21.662 4.97676L24.1797 0.12915L25.7206 2.72224L28.7353 2.61802L26.0162 7.35552L24.0832 8.07209L17.3944 20.3156L15.3424 19.1987L22.0771 6.87153Z" fill="#1C58D9"/>
<path fill-rule="evenodd" clip-rule="evenodd" d="M40.4719 31.1562V12.6366H52.1461V16.1588H44.6477V20.4476H51.0668V23.9704H44.6477V31.1562H40.4719ZM60.5536 31.4971C59.6628 31.4971 58.8013 31.331 57.9682 30.9995C57.135 30.668 56.4014 30.1905 55.7667 29.5646C55.1325 28.9399 54.6261 28.1686 54.2475 27.2495C53.8684 26.3309 53.6793 25.2852 53.6793 24.1111C53.6793 22.9377 53.8684 21.8908 54.2475 20.9728C54.6261 20.0537 55.1325 19.283 55.7667 18.6571C56.4014 18.0323 57.1356 17.5548 57.9682 17.2233C58.8013 16.8918 59.6628 16.7264 60.5536 16.7264C61.4433 16.7264 62.3 16.8918 63.1237 17.2233C63.9469 17.5548 64.6764 18.0329 65.3105 18.6571C65.9453 19.283 66.4516 20.0537 66.8302 20.9728C67.2094 21.8908 67.3984 22.9377 67.3984 24.1111C67.3984 25.2852 67.2094 26.3315 66.8302 27.2495C66.4516 28.1686 65.9453 28.9399 65.3105 29.5646C64.6764 30.1905 63.9469 30.668 63.1237 30.9995C62.3006 31.331 61.4433 31.4971 60.5536 31.4971ZM60.5536 28.1168C61.4056 28.1168 62.0492 27.757 62.4843 27.0381C62.92 26.3174 63.1379 25.3429 63.1379 24.1117C63.1379 22.8811 62.9194 21.9061 62.4843 21.186C62.0492 20.4665 61.4056 20.1061 60.5536 20.1061C59.6822 20.1061 59.0339 20.4665 58.6076 21.186C58.1813 21.9061 57.9682 22.8811 57.9682 24.1117C57.9682 25.3429 58.1813 26.3174 58.6076 27.0381C59.0339 27.757 59.6822 28.1168 60.5536 28.1168ZM76.4036 31.4971C75.4185 31.4971 74.5047 31.331 73.6621 30.9995C72.8201 30.668 72.0859 30.1905 71.4612 29.5646C70.8359 28.9399 70.3442 28.1686 69.9839 27.2495C69.6241 26.3309 69.4445 25.2852 69.4445 24.1111C69.4445 22.9377 69.643 21.8908 70.041 20.9728C70.439 20.0537 70.9736 19.283 71.6461 18.6571C72.3185 18.0323 73.0992 17.5548 73.9889 17.2233C74.8792 16.8918 75.8071 16.7264 76.7728 16.7264C77.6436 16.7264 78.4149 16.8683 79.0873 17.1521C79.7598 17.4359 80.3609 17.7956 80.8908 18.2314L78.9307 20.9298C78.2677 20.3811 77.6336 20.1061 77.0277 20.1061C76.005 20.1061 75.2001 20.4665 74.613 21.186C74.026 21.9061 73.7322 22.8811 73.7322 24.1117C73.7322 25.3429 74.0307 26.3174 74.6278 27.0381C75.2242 27.757 75.9773 28.1168 76.8852 28.1168C77.3398 28.1168 77.7802 28.0173 78.2065 27.8188C78.6328 27.6198 79.0344 27.3784 79.4135 27.094L81.061 29.8213C80.3603 30.4272 79.6025 30.8588 78.7888 31.1143C77.9751 31.3693 77.1796 31.4971 76.4036 31.4971ZM86.7989 31.4971C86.1553 31.4971 85.573 31.3881 85.0525 31.1697C84.532 30.9524 84.0916 30.6492 83.7312 30.2612C83.3721 29.8732 83.093 29.4233 82.8934 28.9122C82.6949 28.4011 82.596 27.8424 82.596 27.2359C82.596 25.7586 83.2207 24.6034 84.4708 23.7702C85.7208 22.9377 87.7369 22.3789 90.5213 22.0945C90.483 21.4692 90.2981 20.9728 89.9672 20.6031C89.6357 20.2339 89.0823 20.0496 88.3056 20.0496C87.6998 20.0496 87.0986 20.1632 86.5021 20.3905C85.9057 20.6178 85.2662 20.9298 84.5844 21.3279L83.0794 18.5723C83.9874 18.0235 84.9395 17.5784 85.9339 17.2375C86.9278 16.8965 87.9836 16.7264 89.1005 16.7264C90.9193 16.7264 92.3054 17.2422 93.2616 18.2738C94.2178 19.3053 94.6965 20.911 94.6965 23.0878V31.155H91.2879L91.0047 29.7065H90.8905C90.2852 30.2359 89.651 30.6674 88.9881 30.9984C88.3251 31.3293 87.5944 31.4971 86.7989 31.4971ZM88.2191 28.2587C88.6925 28.2587 89.0993 28.1544 89.4403 27.9466C89.7812 27.7387 90.1403 27.4443 90.5201 27.0657V24.5951C89.0428 24.8036 88.0207 25.1062 87.4525 25.5042C86.8843 25.9017 86.6005 26.3751 86.6005 26.9238C86.6005 27.3784 86.7477 27.7152 87.0409 27.9325C87.3341 28.1503 87.7268 28.2587 88.2191 28.2587ZM102.052 31.4971C101.332 31.4971 100.726 31.384 100.234 31.1562C99.7414 30.9283 99.3486 30.6121 99.0548 30.2046C98.7616 29.7978 98.549 29.3055 98.416 28.7279C98.2829 28.1503 98.2169 27.5015 98.2169 26.7819V11.2452H102.393V26.9527C102.393 27.3884 102.473 27.6911 102.634 27.8612C102.794 28.032 102.96 28.1173 103.131 28.1173C103.225 28.1173 103.306 28.1173 103.372 28.1173C103.438 28.1173 103.529 28.0985 103.642 28.0608L104.153 31.1567C103.926 31.2515 103.637 31.3316 103.287 31.3982C102.937 31.4647 102.525 31.4971 102.052 31.4971ZM113.725 31.4971C113.1 31.4971 112.471 31.3405 111.837 31.0284C111.202 30.7163 110.611 30.2559 110.061 29.65H109.948L109.607 31.1562H106.341V11.2452H110.516V16.1305L110.402 18.2891C110.952 17.7968 111.543 17.4135 112.178 17.1385C112.813 16.8636 113.461 16.727 114.124 16.727C114.976 16.727 115.743 16.8971 116.424 17.238C117.106 17.579 117.689 18.0565 118.171 18.6724C118.654 19.2877 119.023 20.036 119.279 20.9163C119.535 21.7966 119.663 22.7769 119.663 23.8556C119.663 25.0685 119.497 26.1472 119.165 27.0934C118.834 28.0402 118.389 28.841 117.83 29.4946C117.272 30.1469 116.637 30.6445 115.928 30.9854C115.217 31.3263 114.483 31.4971 113.725 31.4971ZM112.76 28.0885C113.48 28.0885 114.096 27.7617 114.607 27.1087C115.118 26.4557 115.374 25.4 115.374 23.941C115.374 21.4038 114.559 20.1355 112.931 20.1355C112.098 20.1355 111.294 20.5618 110.517 21.4138V27.1794C110.896 27.5203 111.274 27.7564 111.653 27.8901C112.031 28.022 112.4 28.0885 112.76 28.0885ZM128.666 31.4971C127.776 31.4971 126.915 31.331 126.081 30.9995C125.248 30.668 124.515 30.1905 123.88 29.5646C123.246 28.9399 122.739 28.1686 122.361 27.2495C121.982 26.3309 121.793 25.2852 121.793 24.1111C121.793 22.9377 121.982 21.8908 122.361 20.9728C122.739 20.0537 123.246 19.283 123.88 18.6571C124.515 18.0323 125.248 17.5548 126.081 17.2233C126.915 16.8918 127.776 16.7264 128.666 16.7264C129.557 16.7264 130.413 16.8918 131.237 17.2233C132.06 17.5548 132.79 18.0329 133.424 18.6571C134.059 19.283 134.565 20.0537 134.943 20.9728C135.323 21.8908 135.512 22.9377 135.512 24.1111C135.512 25.2852 135.323 26.3315 134.943 27.2495C134.565 28.1686 134.059 28.9399 133.424 29.5646C132.79 30.1905 132.061 30.668 131.237 30.9995C130.413 31.331 129.557 31.4971 128.666 31.4971ZM128.666 28.1168C129.518 28.1168 130.162 27.757 130.598 27.0381C131.033 26.3174 131.251 25.3429 131.251 24.1117C131.251 22.8811 131.033 21.9061 130.598 21.186C130.162 20.4665 129.518 20.1061 128.666 20.1061C127.795 20.1061 127.147 20.4665 126.72 21.186C126.294 21.9061 126.081 22.8811 126.081 24.1117C126.081 25.3429 126.294 26.3174 126.72 27.0381C127.147 27.757 127.795 28.1168 128.666 28.1168ZM141.619 31.4971C140.975 31.4971 140.393 31.3881 139.872 31.1697C139.351 30.9524 138.911 30.6492 138.551 30.2612C138.192 29.8732 137.912 29.4233 137.713 28.9122C137.514 28.4011 137.415 27.8424 137.415 27.2359C137.415 25.7586 138.04 24.6034 139.29 23.7702C140.54 22.9377 142.557 22.3789 145.34 22.0945C145.302 21.4692 145.117 20.9728 144.786 20.6031C144.455 20.2339 143.901 20.0496 143.125 20.0496C142.519 20.0496 141.917 20.1632 141.321 20.3905C140.726 20.6178 140.085 20.9298 139.404 21.3279L137.899 18.5723C138.807 18.0235 139.759 17.5784 140.753 17.2375C141.747 16.8965 142.803 16.7264 143.92 16.7264C145.739 16.7264 147.125 17.2422 148.081 18.2738C149.038 19.3053 149.516 20.911 149.516 23.0878V31.155H146.108L145.824 29.7065H145.71C145.104 30.2359 144.47 30.6674 143.807 30.9984C143.143 31.331 142.414 31.4971 141.619 31.4971ZM143.04 28.2587C143.512 28.2587 143.919 28.1544 144.261 27.9466C144.601 27.7382 144.961 27.4443 145.34 27.0657V24.5951C143.863 24.8036 142.841 25.1062 142.272 25.5042C141.704 25.9017 141.42 26.3751 141.42 26.9238C141.42 27.3784 141.567 27.7152 141.86 27.9325C142.155 28.1503 142.547 28.2587 143.04 28.2587ZM153.037 31.1562V17.0679H156.446L156.729 19.5391H156.842C157.354 18.5729 157.969 17.8634 158.689 17.4088C159.409 16.9537 160.128 16.727 160.847 16.727C161.245 16.727 161.572 16.7505 161.828 16.7982C162.084 16.8453 162.315 16.916 162.524 17.0108L161.842 20.6178C161.577 20.5424 161.331 20.4853 161.103 20.447C160.877 20.4099 160.611 20.3905 160.308 20.3905C159.779 20.3905 159.224 20.5795 158.646 20.9581C158.069 21.3379 157.591 22.0097 157.212 22.9753V31.1562H153.037ZM169.086 31.4971C168.214 31.4971 167.424 31.3263 166.714 30.986C166.003 30.6451 165.398 30.157 164.895 29.5234C164.394 28.8887 164.006 28.1168 163.731 27.2082C163.457 26.2991 163.319 25.267 163.319 24.1117C163.319 22.9565 163.485 21.9249 163.817 21.0158C164.148 20.1061 164.584 19.3354 165.123 18.7006C165.662 18.0659 166.288 17.5784 166.998 17.238C167.708 16.8971 168.433 16.727 169.171 16.727C169.967 16.727 170.62 16.8589 171.131 17.1238C171.642 17.3894 172.143 17.7491 172.636 18.2031L172.465 16.0445V11.2446H176.641V31.1556H173.232L172.949 29.7642H172.835C172.343 30.2559 171.765 30.668 171.102 30.9995C170.439 31.331 169.767 31.4971 169.086 31.4971ZM170.164 28.0885C170.619 28.0885 171.031 27.9937 171.401 27.8047C171.77 27.6151 172.125 27.2842 172.465 26.8108V21.0447C172.087 20.7037 171.699 20.4676 171.301 20.3346C170.903 20.2021 170.515 20.1361 170.136 20.1361C169.473 20.1361 168.886 20.4529 168.375 21.087C167.864 21.7212 167.608 22.711 167.608 24.0558C167.608 25.4565 167.831 26.4793 168.276 27.1234C168.721 27.767 169.351 28.0885 170.164 28.0885Z" fill="#1B1D22"/>
</g>
<path fill-rule="evenodd" clip-rule="evenodd" d="M70.4243 43.4369C71.0105 43.3552 71.6018 43.3134 72.1939 43.3118C72.7861 43.3112 73.3775 43.353 73.9635 43.4369L77.7603 51.1612L81.6696 43.4369C82.1932 43.3493 82.7237 43.3075 83.2548 43.3118C83.8164 43.31 84.3773 43.3518 84.9322 43.4369L85.7078 57.6201C85.1597 57.7011 84.6064 57.7429 84.0521 57.7451C83.5364 57.7457 83.0216 57.7039 82.5131 57.6201L82.0995 47.3649L78.7434 54.4532C78.5291 54.4811 78.3068 54.5051 78.0776 54.5264C77.8484 54.5476 77.6179 54.557 77.3874 54.557C77.1881 54.557 76.9901 54.557 76.7907 54.537C76.5822 54.5212 76.3748 54.4932 76.1697 54.4532L73.0441 47.2185L72.72 57.6201C72.2495 57.7019 71.7727 57.7438 71.2949 57.7451C70.7869 57.744 70.2799 57.7021 69.7789 57.6201L70.4216 43.4369H70.4243ZM170.429 48.9803H169.05L168.944 48.5651L172.912 43.5886H173.399V46.7329H175.966C176.006 46.9182 176.034 47.1057 176.051 47.2944C176.065 47.4607 176.073 47.635 176.073 47.8147C176.073 47.9943 176.065 48.1966 176.051 48.3775C176.035 48.5799 176.006 48.7812 175.966 48.9803H173.399V53.2064C173.391 53.5567 173.427 53.9066 173.506 54.2482C173.559 54.4764 173.664 54.6897 173.813 54.8723C173.944 55.0226 174.117 55.1314 174.312 55.185C174.54 55.2435 174.775 55.2713 175.011 55.2675C175.221 55.2678 175.431 55.2504 175.638 55.2156L176.18 55.1225C176.28 55.3886 176.351 55.6642 176.392 55.9448C176.432 56.1962 176.453 56.4501 176.455 56.7046C176.455 56.8563 176.455 56.9853 176.445 57.0891C176.434 57.1929 176.427 57.2941 176.413 57.3912C175.753 57.5451 175.077 57.6219 174.398 57.6201C173.111 57.6201 172.128 57.3251 171.449 56.7352C170.77 56.1453 170.431 55.1841 170.431 53.8517V48.9803H170.429ZM163.092 52.8112C162.3 52.5885 161.681 52.259 161.236 51.8225C160.79 51.3861 160.567 50.7301 160.567 49.8545C160.567 48.8007 160.953 47.9752 161.724 47.3782C162.495 46.7812 163.545 46.4827 164.874 46.4827C165.42 46.483 165.964 46.532 166.501 46.6291C167.055 46.7311 167.599 46.877 168.128 47.0655C168.096 47.4463 168.025 47.823 167.917 48.1899C167.816 48.5424 167.679 48.8843 167.51 49.2105C167.144 49.0626 166.768 48.9407 166.384 48.8459C165.962 48.7405 165.527 48.6882 165.091 48.6902C164.611 48.6902 164.235 48.7621 163.967 48.9084C163.837 48.9737 163.73 49.0743 163.658 49.198C163.586 49.3218 163.552 49.4633 163.56 49.6057C163.56 49.9108 163.655 50.126 163.846 50.251C164.1 50.4042 164.373 50.5232 164.66 50.605L165.869 50.9589C166.246 51.0588 166.612 51.1952 166.962 51.3661C167.266 51.5158 167.542 51.7166 167.776 51.9596C168.013 52.2115 168.193 52.5093 168.306 52.8338C168.443 53.2431 168.508 53.6725 168.497 54.1032C168.501 54.6006 168.389 55.0922 168.169 55.5403C167.945 55.9903 167.62 56.3851 167.22 56.6953C166.766 57.04 166.251 57.3011 165.702 57.4657C165.05 57.6616 164.37 57.7563 163.687 57.7465C163.347 57.7465 163.036 57.7363 162.754 57.7159C162.481 57.6958 162.21 57.6607 161.941 57.6107C161.679 57.5628 161.421 57.503 161.166 57.4338C160.912 57.3646 160.636 57.2741 160.339 57.1676C160.37 56.7838 160.437 56.4038 160.541 56.0326C160.645 55.651 160.781 55.2785 160.948 54.9189C161.379 55.0884 161.822 55.2241 162.274 55.3247C162.703 55.4156 163.14 55.4602 163.579 55.4578C163.795 55.4563 164.012 55.439 164.226 55.4059C164.449 55.3741 164.667 55.3109 164.872 55.2183C165.062 55.1347 165.231 55.0143 165.371 54.8643C165.51 54.7057 165.582 54.501 165.572 54.2922C165.572 53.9595 165.47 53.72 165.264 53.5736C165.001 53.4013 164.711 53.2715 164.406 53.1891L163.091 52.8138L163.092 52.8112ZM153.944 57.7451C153.148 57.7631 152.357 57.6176 151.622 57.318C150.99 57.0524 150.431 56.646 149.988 56.1311C149.546 55.607 149.215 55.0024 149.013 54.352C148.788 53.6377 148.677 52.8935 148.683 52.1459C148.678 51.3913 148.789 50.6403 149.013 49.9184C149.212 49.2599 149.543 48.6473 149.988 48.1167C150.432 47.6005 150.991 47.1908 151.622 46.9192C152.355 46.6132 153.147 46.4644 153.944 46.4827C154.745 46.4655 155.54 46.6147 156.278 46.9205C156.915 47.1915 157.481 47.601 157.932 48.1181C158.383 48.6449 158.715 49.2587 158.909 49.9197C159.126 50.6428 159.233 51.3934 159.227 52.1472C159.234 52.8941 159.127 53.6377 158.909 54.3534C158.712 55.0062 158.38 55.612 157.932 56.1324C157.482 56.6481 156.916 57.0544 156.278 57.3193C155.538 57.6178 154.744 57.7628 153.944 57.7451ZM153.944 55.4964C154.736 55.4964 155.306 55.2085 155.653 54.6328C156 54.0571 156.173 53.2281 156.172 52.1459C156.172 51.0627 155.999 50.2333 155.653 49.6576C155.307 49.0819 154.737 48.794 153.944 48.794C153.167 48.794 152.605 49.0819 152.259 49.6576C151.913 50.2333 151.739 51.0627 151.738 52.1459C151.738 53.2272 151.912 54.0562 152.259 54.6328C152.606 55.2094 153.168 55.4955 153.944 55.4911V55.4964ZM131.896 46.7329C132.092 46.6915 132.29 46.6604 132.49 46.6397C132.708 46.6174 132.928 46.6068 133.147 46.6078C133.36 46.6063 133.572 46.617 133.783 46.6397C133.968 46.6597 134.159 46.6916 134.357 46.7329C134.409 46.828 134.449 46.9296 134.474 47.0349C134.509 47.168 134.541 47.301 134.569 47.4514C134.596 47.6018 134.621 47.7388 134.643 47.8772C134.665 48.0156 134.682 48.134 134.696 48.2312C134.821 48.0075 134.97 47.7982 135.142 47.6071C135.334 47.3916 135.556 47.2027 135.8 47.0456C136.066 46.8751 136.355 46.7408 136.658 46.6464C137.004 46.5373 137.366 46.4843 137.729 46.4894C139.441 46.4894 140.537 47.1281 141.018 48.4055C141.314 47.8778 141.723 47.4192 142.216 47.0615C142.733 46.6801 143.388 46.4894 144.18 46.4894C145.423 46.4894 146.338 46.826 146.926 47.4993C147.513 48.1726 147.807 49.2238 147.807 50.6529V57.5016C146.81 57.6684 145.791 57.6684 144.794 57.5016V51.4167C144.794 50.668 144.699 50.0914 144.508 49.6869C144.317 49.2824 143.932 49.081 143.351 49.0828C143.111 49.0828 142.871 49.1177 142.641 49.1865C142.399 49.2606 142.181 49.3928 142.005 49.5711C141.79 49.7969 141.631 50.0677 141.538 50.3628C141.405 50.7906 141.344 51.237 141.358 51.6841V57.4923C140.361 57.6591 139.342 57.6591 138.345 57.4923V51.4167C138.345 50.668 138.25 50.0914 138.059 49.6869C137.868 49.2824 137.483 49.081 136.902 49.0828C136.658 49.0834 136.415 49.1184 136.181 49.1865C135.932 49.2598 135.709 49.3977 135.534 49.5857C135.319 49.8295 135.163 50.1179 135.078 50.4294C134.952 50.8902 134.895 51.3667 134.909 51.8438V57.4857C133.912 57.6524 132.893 57.6524 131.896 57.4857V46.7329ZM123.866 46.7329C124.077 46.6916 124.279 46.6597 124.469 46.6397C124.677 46.6176 124.886 46.6069 125.096 46.6078C125.305 46.6081 125.513 46.6218 125.721 46.649C125.927 46.677 126.127 46.7116 126.325 46.7542C126.378 46.8485 126.418 46.9498 126.442 47.0549C126.477 47.1879 126.51 47.321 126.538 47.4714C126.567 47.6217 126.591 47.7628 126.613 47.9091C126.635 48.0555 126.651 48.1753 126.666 48.2737C126.986 47.8339 127.372 47.4441 127.81 47.1174C128.302 46.7654 128.9 46.5859 129.508 46.6078C129.644 46.6078 129.812 46.6144 129.996 46.6291C130.134 46.6346 130.27 46.6556 130.403 46.6916C130.434 46.8494 130.455 47.0089 130.467 47.1693C130.482 47.3503 130.488 47.5379 130.488 47.7322C130.488 47.9681 130.477 48.2249 130.456 48.5026C130.437 48.7685 130.398 49.0327 130.339 49.293C130.168 49.264 129.994 49.2502 129.82 49.2517H129.47C129.197 49.2538 128.925 49.2782 128.656 49.3249C128.345 49.3801 128.052 49.5124 127.808 49.7095C127.508 49.9595 127.279 50.28 127.14 50.6409C126.96 51.057 126.869 51.6398 126.869 52.3894V57.5109C126.616 57.5522 126.362 57.5798 126.106 57.5934C125.851 57.6081 125.604 57.6147 125.363 57.6147C125.121 57.6147 124.879 57.6081 124.632 57.5934C124.372 57.5787 124.114 57.5512 123.857 57.5109V46.7329H123.866ZM115.57 53.0201C115.627 53.8522 115.924 54.4558 116.461 54.8311C116.997 55.2063 117.705 55.3935 118.583 55.3926C119.077 55.3921 119.57 55.3476 120.057 55.2595C120.545 55.1736 121.024 55.0449 121.489 54.875C121.661 55.1923 121.798 55.5275 121.895 55.8743C122.011 56.2815 122.075 56.7012 122.087 57.1237C120.891 57.555 119.625 57.7666 118.352 57.7478C117.334 57.7478 116.461 57.609 115.732 57.3313C115.052 57.0877 114.439 56.6912 113.942 56.1737C113.475 55.6679 113.128 55.0673 112.924 54.4146C112.699 53.6931 112.588 52.9417 112.596 52.1871C112.59 51.4318 112.704 50.6803 112.935 49.9596C113.144 49.2959 113.486 48.6801 113.942 48.1487C114.397 47.6289 114.961 47.2129 115.597 46.9298C116.323 46.6178 117.11 46.4652 117.902 46.4827C118.601 46.4717 119.295 46.6078 119.936 46.8819C120.514 47.1338 121.03 47.503 121.452 47.965C121.88 48.4392 122.204 48.9957 122.401 49.599C122.616 50.2545 122.724 50.9396 122.718 51.6282C122.718 51.8944 122.708 52.1525 122.687 52.4093C122.667 52.6661 122.641 52.8711 122.613 53.0241L115.57 53.0201ZM119.876 50.9589C119.847 50.2927 119.66 49.7547 119.314 49.3449C118.967 48.9351 118.483 48.7306 117.86 48.7315C117.153 48.7315 116.616 48.9257 116.248 49.3143C115.88 49.7028 115.661 50.251 115.591 50.9589H119.876ZM105.942 48.9803H104.558L104.45 48.5718L108.417 43.5953H108.905V46.7395H111.472C111.51 46.9251 111.539 47.1125 111.557 47.301C111.571 47.4674 111.578 47.6417 111.578 47.8213C111.578 48.001 111.571 48.2032 111.557 48.3842C111.539 48.5864 111.511 48.7876 111.472 48.987H108.906V53.213C108.898 53.5633 108.934 53.9133 109.013 54.2549C109.066 54.483 109.171 54.6964 109.32 54.879C109.451 55.0293 109.625 55.1381 109.819 55.1917C110.047 55.2502 110.283 55.2779 110.519 55.2742C110.728 55.2744 110.938 55.257 111.145 55.2223L111.687 55.1291C111.787 55.3952 111.858 55.6708 111.899 55.9515C111.939 56.2028 111.96 56.4568 111.963 56.7112C111.963 56.8629 111.963 56.992 111.952 57.0958C111.941 57.1996 111.934 57.3007 111.921 57.3978C111.26 57.5496 110.583 57.6242 109.904 57.6201C108.617 57.6201 107.634 57.3251 106.955 56.7352C106.276 56.1453 105.938 55.1841 105.942 53.8517V48.9803ZM97.9823 48.9803H96.5978L96.4921 48.5651L100.46 43.5886H100.948V46.7329H103.515C103.554 46.9183 103.582 47.1058 103.599 47.2944C103.614 47.4607 103.621 47.635 103.621 47.8147C103.621 47.9943 103.621 48.1966 103.599 48.3775C103.582 48.5798 103.554 48.781 103.515 48.9803H100.948V53.2064C100.939 53.5566 100.975 53.9066 101.054 54.2482C101.107 54.4765 101.212 54.6899 101.361 54.8723C101.492 55.0229 101.665 55.1318 101.859 55.185C102.088 55.2435 102.324 55.2713 102.56 55.2675C102.77 55.2677 102.979 55.2503 103.185 55.2156L103.728 55.1225C103.827 55.3887 103.898 55.6643 103.941 55.9448C103.98 56.1963 104.001 56.4502 104.003 56.7046C104.003 56.8563 104.003 56.9853 103.993 57.0891C103.984 57.1929 103.976 57.2941 103.961 57.3912C103.3 57.5452 102.624 57.622 101.945 57.6201C100.657 57.6201 99.6741 57.3251 98.9952 56.7352C98.3163 56.1453 97.9769 55.1841 97.9769 53.8517V48.9803H97.9823ZM93.041 52.5637C92.8715 52.5371 92.6885 52.5118 92.4892 52.4918C92.3131 52.4718 92.1361 52.4611 91.959 52.4599C91.2656 52.4599 90.7178 52.5814 90.3155 52.8245C89.9132 53.0675 89.7116 53.4596 89.7107 54.0008C89.6922 54.2932 89.7733 54.5834 89.9412 54.8257C90.0878 55.0133 90.2818 55.1601 90.504 55.2515C90.7268 55.3431 90.9629 55.3996 91.2037 55.4192C91.4518 55.4392 91.6674 55.4498 91.8505 55.4498C92.0636 55.4498 92.2763 55.4324 92.4864 55.3979C92.6993 55.3633 92.8837 55.3314 93.0383 55.3034V52.5637H93.041ZM93.041 50.42C93.0532 50.1399 92.9949 49.8612 92.8715 49.6084C92.7644 49.4065 92.6031 49.2372 92.4051 49.1187C92.1797 48.9918 91.9307 48.9103 91.6728 48.8792C91.353 48.8357 91.0303 48.8148 90.7074 48.8166C89.8747 48.8287 89.0498 48.9767 88.2666 49.2544C88.0843 48.9295 87.9354 48.5876 87.8218 48.2338C87.7153 47.8616 87.6651 47.476 87.6726 47.0895C88.8345 46.7011 90.0522 46.4971 91.2796 46.4854C92.7513 46.4854 93.9003 46.8322 94.7266 47.5259C95.5528 48.2196 95.9664 49.3285 95.9673 50.8525V57.0971C95.3744 57.2739 94.7724 57.4196 94.1638 57.5336C93.3741 57.6805 92.5715 57.7505 91.7678 57.7425C91.1016 57.7478 90.4368 57.685 89.7839 57.5549C89.2307 57.4497 88.7043 57.2375 88.2354 56.9308C87.8103 56.6458 87.4667 56.2587 87.2374 55.8064C86.9891 55.2787 86.8693 54.7015 86.8875 54.1205C86.8666 53.5323 87.0176 52.9506 87.3228 52.4439C87.6058 52.0019 87.9921 51.6324 88.4496 51.3661C88.9256 51.0884 89.4459 50.8913 89.9887 50.7833C90.5462 50.6659 91.1148 50.6066 91.685 50.6063C92.0918 50.6063 92.5475 50.6276 93.041 50.6689V50.42Z" fill="#818698"/>
<path d="M50.3625 55.3436L50.579 54.4774C51.3298 55.2137 51.965 55.5169 52.9612 55.5169C54.7948 55.5169 55.8776 53.9432 55.8776 51.6476C55.8776 49.2221 54.6648 47.7495 52.8746 47.7495C52.0228 47.7495 51.3442 48.0527 50.6945 48.7457V44.9775H49.4673V55.3436H50.3625ZM50.6945 49.944C51.1998 49.2077 51.8928 48.8035 52.6291 48.8035C53.8708 48.8035 54.6359 49.8863 54.6359 51.6188C54.6359 53.3801 53.8996 54.4485 52.6436 54.4485C51.9073 54.4485 51.1276 54.0298 50.6945 53.3368V49.944Z" fill="#818698"/>
<path d="M60.5628 55.1126L63.0316 47.865H61.7467L59.9132 53.4667H59.8843L57.993 47.865H56.6359L59.2923 55.1848L59.148 55.6035C58.8015 56.6141 58.4694 56.975 57.6609 56.975C57.4299 56.975 57.1412 56.9462 56.838 56.8884V57.9135C57.1412 57.9712 57.4588 58.0001 57.8486 58.0001C59.2923 58.0001 59.8121 57.336 60.5628 55.1126Z" fill="#818698"/>
<defs>
<clipPath id="clip0_301_506">
<rect width="176.641" height="37.6977" fill="white"/>
</clipPath>
</defs>
</svg>
