<svg width="221" height="73" viewBox="0 0 221 73" fill="none" xmlns="http://www.w3.org/2000/svg">
<g clip-path="url(#clip0_348_264)">
<path fill-rule="evenodd" clip-rule="evenodd" d="M24.2773 9.03014C14.9815 6.48503 4.41784 11.4446 1.02412 21.4679C-2.39309 31.5617 3.02012 42.5144 13.1139 45.9316C23.2077 49.3488 34.1604 43.9356 37.5784 33.8418C40.3709 25.5943 37.2392 17.1771 30.9892 12.3703L30.6515 15.946H30.6507C34.0503 19.5402 35.5758 24.7119 33.8257 29.8828C31.3577 37.1731 23.2202 41.0051 15.6495 38.4424C8.07878 35.8804 3.94215 27.8934 6.40944 20.6031C8.59338 14.1519 15.2171 10.535 21.6368 11.3352V11.3345L24.2773 9.03014ZM19.7443 21.1339C22.2813 20.6457 24.8727 23.1556 23.9741 25.8101C23.3472 27.6615 21.28 28.6364 19.3559 27.9845C17.4326 27.3333 16.3814 25.3043 17.009 23.4522C17.4297 22.2064 18.5022 21.3585 19.7443 21.1339ZM18.801 17.5045C17.4899 17.7416 16.2683 18.315 15.2685 19.1621C14.3149 19.9704 13.5661 21.0304 13.1411 22.2879C12.4958 24.1943 12.7161 26.1955 13.594 27.8905C14.4794 29.6002 16.0349 30.9987 18.05 31.6814C20.0644 32.3634 22.1492 32.196 23.8927 31.3753C25.6193 30.5626 27.0096 29.1062 27.6549 27.1997C28.0623 25.9965 28.1196 24.811 27.9074 23.7047C27.7533 22.9023 27.456 22.1381 27.0456 21.4356L27.7936 17.6866C27.9324 17.8239 28.0682 17.9641 28.1989 18.108C29.4835 19.5167 30.407 21.2521 30.7741 23.1563C31.0787 24.7376 30.9972 26.4282 30.4188 28.1364C29.5092 30.824 27.5573 32.8735 25.1384 34.0129C22.7357 35.1441 19.8713 35.3768 17.1148 34.4445C14.359 33.5115 12.2249 31.5852 11.0027 29.2266C9.7738 26.8532 9.46842 24.0402 10.378 21.3512C10.9792 19.5754 12.037 18.0771 13.3856 16.9349C14.7656 15.7655 16.4548 14.9726 18.2717 14.6408L18.271 14.6379C19.5622 14.389 20.8564 14.4081 22.0978 14.6496L19.4675 17.4106C19.2517 17.4311 19.0359 17.4627 18.8193 17.5038H18.801V17.5045Z" fill="white"/>
<path fill-rule="evenodd" clip-rule="evenodd" d="M27.525 8.56701L27.0075 6.20469L30.1465 0.160889L32.0676 3.39384L35.8262 3.26391L32.4361 9.17044L30.0261 10.0638L21.6867 25.3286L19.1284 23.936L27.525 8.56701Z" fill="white"/>
<path fill-rule="evenodd" clip-rule="evenodd" d="M50.4587 38.8439V15.7544H65.0136V20.1458H55.6649V25.493H63.6681V29.885H55.6649V38.8439H50.4587ZM75.4958 39.269C74.3851 39.269 73.3111 39.062 72.2724 38.6487C71.2336 38.2354 70.319 37.64 69.5276 36.8597C68.737 36.0808 68.1057 35.1191 67.6336 33.9732C67.1609 32.828 66.9252 31.5243 66.9252 30.0605C66.9252 28.5974 67.1609 27.2922 67.6336 26.1478C68.1057 25.0018 68.737 24.0409 69.5276 23.2606C70.319 22.4817 71.2344 21.8863 72.2724 21.473C73.3111 21.0598 74.3851 20.8535 75.4958 20.8535C76.605 20.8535 77.6731 21.0598 78.7001 21.473C79.7264 21.8863 80.6359 22.4824 81.4265 23.2606C82.2179 24.0409 82.8492 25.0018 83.3212 26.1478C83.794 27.2922 84.0297 28.5974 84.0297 30.0605C84.0297 31.5243 83.794 32.8288 83.3212 33.9732C82.8492 35.1191 82.2179 36.0808 81.4265 36.8597C80.6359 37.64 79.7264 38.2354 78.7001 38.6487C77.6739 39.062 76.605 39.269 75.4958 39.269ZM75.4958 35.0545C76.558 35.0545 77.3604 34.606 77.9029 33.7097C78.4461 32.8111 78.7177 31.5962 78.7177 30.0612C78.7177 28.527 78.4454 27.3113 77.9029 26.4135C77.3604 25.5164 76.558 25.0672 75.4958 25.0672C74.4093 25.0672 73.6011 25.5164 73.0696 26.4135C72.5381 27.3113 72.2724 28.527 72.2724 30.0612C72.2724 31.5962 72.5381 32.8111 73.0696 33.7097C73.6011 34.606 74.4093 35.0545 75.4958 35.0545ZM95.2569 39.269C94.0288 39.269 92.8894 39.062 91.839 38.6487C90.7892 38.2354 89.8738 37.64 89.0949 36.8597C88.3153 36.0808 87.7023 35.1191 87.2531 33.9732C86.8045 32.828 86.5806 31.5243 86.5806 30.0605C86.5806 28.5974 86.828 27.2922 87.3243 26.1478C87.8205 25.0018 88.4871 24.0409 89.3254 23.2606C90.1637 22.4817 91.1372 21.8863 92.2464 21.473C93.3563 21.0598 94.5133 20.8535 95.7172 20.8535C96.8029 20.8535 97.7646 21.0304 98.6029 21.3842C99.4412 21.7381 100.191 22.1866 100.851 22.7298L98.4076 26.0942C97.581 25.41 96.7904 25.0672 96.035 25.0672C94.7599 25.0672 93.7564 25.5164 93.0245 26.4135C92.2926 27.3113 91.9263 28.527 91.9263 30.0612C91.9263 31.5962 92.2985 32.8111 93.0429 33.7097C93.7865 34.606 94.7254 35.0545 95.8574 35.0545C96.4241 35.0545 96.9732 34.9305 97.5047 34.6831C98.0362 34.435 98.5368 34.134 99.0096 33.7794L101.064 37.1797C100.19 37.9351 99.2452 38.4732 98.2307 38.7918C97.2162 39.1097 96.2244 39.269 95.2569 39.269ZM108.217 39.269C107.415 39.269 106.689 39.1332 106.04 38.8608C105.391 38.5899 104.842 38.2119 104.393 37.7281C103.945 37.2443 103.597 36.6835 103.348 36.0463C103.101 35.4091 102.977 34.7125 102.977 33.9563C102.977 32.1145 103.756 30.6742 105.315 29.6354C106.873 28.5974 109.387 27.9008 112.858 27.5462C112.811 26.7666 112.58 26.1478 112.168 25.6868C111.754 25.2265 111.064 24.9967 110.096 24.9967C109.341 24.9967 108.591 25.1384 107.847 25.4217C107.104 25.7051 106.306 26.0942 105.456 26.5904L103.58 23.1549C104.712 22.4707 105.899 21.9157 107.139 21.4907C108.378 21.0656 109.694 20.8535 111.087 20.8535C113.355 20.8535 115.083 21.4965 116.275 22.7827C117.467 24.0688 118.064 26.0707 118.064 28.7846V38.8425H113.814L113.461 37.0366H113.319C112.564 37.6965 111.773 38.2346 110.947 38.6472C110.12 39.0598 109.209 39.269 108.217 39.269ZM109.988 35.2315C110.578 35.2315 111.085 35.1015 111.51 34.8424C111.936 34.5833 112.383 34.2162 112.857 33.7442V30.6639C111.015 30.9238 109.741 31.3011 109.032 31.7974C108.324 32.2929 107.97 32.8831 107.97 33.5673C107.97 34.134 108.153 34.5539 108.519 34.8248C108.885 35.0964 109.374 35.2315 109.988 35.2315ZM127.234 39.269C126.336 39.269 125.581 39.128 124.967 38.8439C124.354 38.5598 123.864 38.1656 123.498 37.6576C123.132 37.1504 122.867 36.5367 122.701 35.8165C122.535 35.0964 122.453 34.2874 122.453 33.3903V14.0198H127.659V33.6032C127.659 34.1465 127.76 34.5238 127.959 34.7359C128.16 34.9488 128.367 35.0553 128.58 35.0553C128.697 35.0553 128.798 35.0553 128.881 35.0553C128.963 35.0553 129.076 35.0318 129.217 34.9848L129.854 38.8447C129.571 38.9629 129.211 39.0627 128.773 39.1457C128.337 39.2286 127.824 39.269 127.234 39.269ZM141.788 39.269C141.009 39.269 140.225 39.0737 139.433 38.6846C138.643 38.2956 137.905 37.7215 137.219 36.9661H137.078L136.654 38.8439H132.581V14.0198H137.787V20.1106L137.645 22.8018C138.331 22.1881 139.068 21.7102 139.859 21.3673C140.65 21.0245 141.459 20.8542 142.285 20.8542C143.347 20.8542 144.304 21.0664 145.153 21.4914C146.003 21.9164 146.729 22.5118 147.331 23.2797C147.933 24.0468 148.394 24.9798 148.712 26.0773C149.032 27.1748 149.191 28.397 149.191 29.7419C149.191 31.2541 148.984 32.599 148.571 33.7787C148.157 34.9591 147.603 35.9575 146.906 36.7723C146.21 37.5857 145.418 38.206 144.534 38.6311C143.648 39.0561 142.733 39.269 141.788 39.269ZM140.585 35.0193C141.482 35.0193 142.25 34.6119 142.887 33.7978C143.524 32.9837 143.844 31.6674 143.844 29.8483C143.844 26.6851 142.828 25.1039 140.798 25.1039C139.759 25.1039 138.756 25.6354 137.788 26.6976V33.8859C138.26 34.3109 138.731 34.6053 139.204 34.7719C139.676 34.9363 140.136 35.0193 140.585 35.0193ZM160.416 39.269C159.306 39.269 158.232 39.062 157.193 38.6487C156.154 38.2354 155.24 37.64 154.448 36.8597C153.658 36.0808 153.026 35.1191 152.554 33.9732C152.082 32.828 151.846 31.5243 151.846 30.0605C151.846 28.5974 152.082 27.2922 152.554 26.1478C153.027 25.0018 153.658 24.0409 154.448 23.2606C155.24 22.4817 156.154 21.8863 157.193 21.473C158.232 21.0598 159.306 20.8535 160.416 20.8535C161.526 20.8535 162.594 21.0598 163.621 21.473C164.647 21.8863 165.557 22.4824 166.347 23.2606C167.139 24.0409 167.77 25.0018 168.242 26.1478C168.715 27.2922 168.951 28.5974 168.951 30.0605C168.951 31.5243 168.715 32.8288 168.242 33.9732C167.77 35.1191 167.139 36.0808 166.347 36.8597C165.557 37.64 164.648 38.2354 163.621 38.6487C162.594 39.062 161.526 39.269 160.416 39.269ZM160.416 35.0545C161.478 35.0545 162.281 34.606 162.824 33.7097C163.366 32.8111 163.638 31.5962 163.638 30.0612C163.638 28.527 163.366 27.3113 162.824 26.4135C162.281 25.5164 161.478 25.0672 160.416 25.0672C159.33 25.0672 158.521 25.5164 157.99 26.4135C157.458 27.3113 157.193 28.527 157.193 30.0612C157.193 31.5962 157.458 32.8111 157.99 33.7097C158.521 34.606 159.33 35.0545 160.416 35.0545ZM176.565 39.269C175.762 39.269 175.036 39.1332 174.387 38.8608C173.738 38.5899 173.189 38.2119 172.74 37.7281C172.292 37.2443 171.943 36.6835 171.695 36.0463C171.447 35.4091 171.324 34.7125 171.324 33.9563C171.324 32.1145 172.103 30.6742 173.661 29.6354C175.22 28.5974 177.734 27.9008 181.204 27.5462C181.156 26.7666 180.926 26.1478 180.513 25.6868C180.101 25.2265 179.41 24.9967 178.442 24.9967C177.687 24.9967 176.937 25.1384 176.194 25.4217C175.451 25.7051 174.653 26.0942 173.803 26.5904L171.927 23.1549C173.059 22.4707 174.246 21.9157 175.485 21.4907C176.725 21.0656 178.041 20.8535 179.433 20.8535C181.701 20.8535 183.43 21.4965 184.622 22.7827C185.814 24.0688 186.411 26.0707 186.411 28.7846V38.8425H182.161L181.807 37.0366H181.666C180.91 37.6965 180.12 38.2346 179.293 38.6472C178.465 39.062 177.556 39.269 176.565 39.269ZM178.336 35.2315C178.925 35.2315 179.433 35.1015 179.858 34.8424C180.283 34.5825 180.731 34.2162 181.204 33.7442V30.6639C179.363 30.9238 178.088 31.3011 177.379 31.7974C176.67 32.2929 176.317 32.8831 176.317 33.5673C176.317 34.134 176.5 34.5539 176.866 34.8248C177.233 35.0964 177.721 35.2315 178.336 35.2315ZM190.801 38.8439V21.2792H195.051L195.404 24.3602H195.545C196.183 23.1556 196.95 22.271 197.847 21.7043C198.745 21.1368 199.642 20.8542 200.538 20.8542C201.034 20.8542 201.442 20.8836 201.761 20.943C202.079 21.0018 202.368 21.0898 202.629 21.208L201.779 25.7051C201.448 25.6111 201.141 25.5399 200.857 25.4922C200.575 25.446 200.244 25.4217 199.865 25.4217C199.206 25.4217 198.514 25.6574 197.794 26.1294C197.074 26.6029 196.478 27.4405 196.006 28.6444V38.8439H190.801ZM210.809 39.269C209.723 39.269 208.737 39.0561 207.852 38.6318C206.966 38.2067 206.211 37.5982 205.585 36.8083C204.96 36.0169 204.476 35.0545 204.134 33.9218C203.791 32.7884 203.62 31.5015 203.62 30.0612C203.62 28.6209 203.826 27.3348 204.24 26.2014C204.653 25.0672 205.196 24.1062 205.869 23.3149C206.541 22.5235 207.322 21.9157 208.206 21.4914C209.092 21.0664 209.995 20.8542 210.916 20.8542C211.908 20.8542 212.722 21.0186 213.359 21.349C213.997 21.6801 214.622 22.1286 215.236 22.6946L215.023 20.0034V14.019H220.229V38.8432H215.979L215.626 37.1085H215.484C214.87 37.7215 214.15 38.2354 213.324 38.6487C212.497 39.062 211.659 39.269 210.809 39.269ZM212.154 35.0193C212.721 35.0193 213.234 34.9011 213.696 34.6655C214.155 34.4291 214.598 34.0165 215.023 33.4263V26.2373C214.551 25.8123 214.067 25.5179 213.572 25.352C213.076 25.1868 212.591 25.1046 212.119 25.1046C211.292 25.1046 210.561 25.4996 209.923 26.2902C209.286 27.0808 208.967 28.3148 208.967 29.9915C208.967 31.7379 209.245 33.013 209.799 33.8161C210.354 34.6185 211.14 35.0193 212.154 35.0193Z" fill="white"/>
</g>
<path fill-rule="evenodd" clip-rule="evenodd" d="M87.8047 54.1563C88.5356 54.0544 89.2728 54.0023 90.011 54.0004C90.7493 53.9996 91.4866 54.0517 92.2172 54.1563L96.9509 63.7867L101.825 54.1563C102.478 54.0472 103.139 53.995 103.801 54.0004C104.501 53.9981 105.201 54.0503 105.893 54.1563L106.86 71.8393C106.176 71.9404 105.486 71.9925 104.795 71.9953C104.152 71.996 103.511 71.9438 102.876 71.8393L102.361 59.0536L98.1766 67.891C97.9095 67.9258 97.6322 67.9557 97.3465 67.9822C97.0608 68.0087 96.7734 68.0204 96.486 68.0204C96.2375 68.0204 95.9906 68.0204 95.7421 67.9955C95.4821 67.9757 95.2236 67.9408 94.9678 67.891L91.071 58.8711L90.6669 71.8393C90.0803 71.9414 89.4858 71.9935 88.8901 71.9953C88.2568 71.9938 87.6247 71.9417 87 71.8393L87.8013 54.1563H87.8047ZM212.487 61.0676H210.768L210.636 60.55L215.582 54.3454H216.189V58.2656H219.39C219.44 58.4966 219.475 58.7304 219.496 58.9657C219.513 59.1731 219.523 59.3904 219.523 59.6143C219.523 59.8383 219.513 60.0905 219.496 60.3161C219.475 60.5684 219.44 60.8193 219.39 61.0676H216.189V66.3365C216.179 66.7732 216.224 67.2096 216.323 67.6355C216.389 67.9199 216.519 68.1859 216.705 68.4135C216.869 68.6009 217.085 68.7366 217.327 68.8034C217.612 68.8763 217.905 68.9109 218.2 68.9062C218.461 68.9065 218.723 68.8849 218.981 68.8415L219.657 68.7254C219.781 69.0572 219.869 69.4008 219.921 69.7507C219.971 70.0641 219.997 70.3807 220 70.6979C220 70.8871 220 71.048 219.986 71.1774C219.973 71.3068 219.964 71.4329 219.948 71.554C219.125 71.7458 218.281 71.8416 217.435 71.8393C215.83 71.8393 214.605 71.4716 213.758 70.7361C212.912 70.0006 212.489 68.8023 212.489 67.1411V61.0676H212.487ZM203.339 65.8438C202.352 65.5662 201.58 65.1553 201.025 64.6112C200.469 64.067 200.191 63.2492 200.191 62.1575C200.191 60.8436 200.672 59.8145 201.633 59.0702C202.595 58.3259 203.904 57.9537 205.561 57.9537C206.241 57.9541 206.92 58.0152 207.589 58.1362C208.279 58.2633 208.958 58.4453 209.618 58.6803C209.578 59.1551 209.489 59.6247 209.354 60.0822C209.228 60.5217 209.058 60.9479 208.847 61.3546C208.391 61.1702 207.922 61.0183 207.444 60.9C206.917 60.7686 206.375 60.7034 205.831 60.7059C205.233 60.7059 204.764 60.7955 204.43 60.978C204.268 61.0594 204.135 61.1848 204.045 61.3391C203.955 61.4933 203.912 61.6698 203.922 61.8473C203.922 62.2278 204.041 62.496 204.279 62.6519C204.596 62.8428 204.937 62.9912 205.293 63.0932L206.801 63.5345C207.272 63.659 207.728 63.829 208.164 64.0421C208.544 64.2288 208.887 64.4792 209.178 64.782C209.474 65.0961 209.699 65.4674 209.839 65.872C210.011 66.3823 210.091 66.9176 210.078 67.4546C210.083 68.0747 209.943 68.6877 209.669 69.2463C209.389 69.8074 208.985 70.2996 208.485 70.6863C207.919 71.1162 207.278 71.4416 206.593 71.6469C205.78 71.8911 204.932 72.0092 204.081 71.9969C203.657 71.9969 203.27 71.9842 202.918 71.9588C202.578 71.9338 202.239 71.89 201.904 71.8277C201.577 71.768 201.256 71.6933 200.938 71.6071C200.621 71.5208 200.277 71.408 199.907 71.2753C199.945 70.7967 200.029 70.3229 200.159 69.8602C200.289 69.3844 200.458 68.9199 200.666 68.4716C201.203 68.683 201.756 68.8522 202.32 68.9776C202.854 69.0908 203.399 69.1465 203.946 69.1435C204.216 69.1417 204.486 69.12 204.752 69.0788C205.031 69.0391 205.303 68.9604 205.559 68.8449C205.795 68.7407 206.006 68.5906 206.181 68.4036C206.354 68.2058 206.444 67.9506 206.431 67.6902C206.431 67.2755 206.304 66.9769 206.047 66.7944C205.719 66.5795 205.358 66.4176 204.977 66.3149L203.337 65.8471L203.339 65.8438ZM191.934 71.9953C190.942 72.0176 189.955 71.8362 189.038 71.4627C188.251 71.1316 187.554 70.6249 187.001 69.9829C186.451 69.3295 186.038 68.5757 185.786 67.7649C185.505 66.8742 185.367 65.9464 185.375 65.0143C185.368 64.0735 185.506 63.1372 185.786 62.2372C186.034 61.4162 186.447 60.6524 187.001 59.9909C187.555 59.3473 188.252 58.8366 189.038 58.4979C189.953 58.1163 190.94 57.9308 191.934 57.9537C192.932 57.9322 193.924 58.1183 194.844 58.4995C195.638 58.8374 196.343 59.348 196.906 59.9926C197.468 60.6495 197.882 61.4147 198.124 62.2388C198.394 63.1404 198.528 64.0761 198.521 65.016C198.529 65.9471 198.395 66.8743 198.124 67.7665C197.878 68.5805 197.464 69.3358 196.906 69.9846C196.345 70.6275 195.639 71.1341 194.844 71.4644C193.922 71.8365 192.931 72.0172 191.934 71.9953ZM191.934 69.1916C192.922 69.1916 193.632 68.8327 194.064 68.1149C194.497 67.3971 194.713 66.3636 194.712 65.0143C194.712 63.6639 194.496 62.6298 194.064 61.912C193.633 61.1942 192.923 60.8353 191.934 60.8353C190.965 60.8353 190.264 61.1942 189.833 61.912C189.401 62.6298 189.185 63.6639 189.184 65.0143C189.184 66.3625 189.4 67.396 189.833 68.1149C190.266 68.8338 190.966 69.1905 191.934 69.185V69.1916ZM164.445 58.2656C164.69 58.214 164.937 58.1752 165.185 58.1495C165.458 58.1217 165.732 58.1084 166.005 58.1097C166.27 58.1078 166.535 58.1211 166.798 58.1495C167.028 58.1744 167.267 58.2142 167.513 58.2656C167.579 58.3842 167.628 58.5108 167.659 58.6422C167.703 58.8081 167.743 58.974 167.777 59.1614C167.811 59.3489 167.843 59.5198 167.87 59.6923C167.897 59.8648 167.919 60.0125 167.936 60.1336C168.091 59.8547 168.278 59.5938 168.492 59.3555C168.732 59.0868 169.008 58.8513 169.312 58.6555C169.644 58.4429 170.004 58.2755 170.382 58.1578C170.814 58.0218 171.265 57.9557 171.718 57.962C173.852 57.962 175.218 58.7583 175.818 60.3509C176.187 59.693 176.696 59.1213 177.312 58.6754C177.957 58.1998 178.773 57.962 179.76 57.962C181.31 57.962 182.451 58.3817 183.184 59.2212C183.916 60.0606 184.283 61.3712 184.283 63.1529V71.6917C183.039 71.8996 181.769 71.8996 180.526 71.6917V64.1052C180.526 63.1717 180.407 62.4528 180.169 61.9485C179.931 61.4442 179.451 61.1931 178.727 61.1953C178.427 61.1954 178.129 61.239 177.841 61.3247C177.54 61.417 177.268 61.5819 177.048 61.8042C176.781 62.0857 176.582 62.4233 176.467 62.7913C176.301 63.3247 176.225 63.8811 176.242 64.4386V71.68C174.999 71.888 173.729 71.888 172.486 71.68V64.1052C172.486 63.1717 172.367 62.4528 172.129 61.9485C171.891 61.4442 171.41 61.1931 170.687 61.1953C170.382 61.1961 170.079 61.2397 169.787 61.3247C169.478 61.4161 169.199 61.5881 168.981 61.8224C168.713 62.1263 168.519 62.4859 168.413 62.8742C168.255 63.4488 168.184 64.0429 168.202 64.6377V71.6718C166.958 71.8797 165.688 71.8797 164.445 71.6718V58.2656ZM154.433 58.2656C154.697 58.2142 154.949 58.1744 155.186 58.1495C155.445 58.1218 155.706 58.1085 155.967 58.1097C156.227 58.11 156.488 58.1272 156.746 58.1611C157.003 58.1959 157.253 58.2391 157.5 58.2921C157.566 58.4098 157.615 58.536 157.645 58.6671C157.689 58.833 157.73 58.9989 157.765 59.1863C157.801 59.3738 157.831 59.5496 157.858 59.7321C157.885 59.9146 157.906 60.0639 157.924 60.1867C158.323 59.6384 158.804 59.1523 159.351 58.745C159.964 58.3062 160.71 58.0824 161.468 58.1097C161.637 58.1097 161.847 58.1179 162.076 58.1362C162.248 58.143 162.418 58.1692 162.584 58.2142C162.623 58.4109 162.649 58.6098 162.663 58.8097C162.682 59.0354 162.69 59.2693 162.69 59.5115C162.69 59.8057 162.677 60.1259 162.65 60.472C162.626 60.8036 162.577 61.133 162.504 61.4575C162.29 61.4213 162.074 61.4041 161.857 61.406H161.42C161.08 61.4085 160.741 61.4391 160.406 61.4973C160.017 61.566 159.653 61.731 159.348 61.9767C158.975 62.2885 158.689 62.6881 158.516 63.138C158.291 63.6567 158.178 64.3833 158.178 65.3179V71.7033C157.863 71.7547 157.545 71.7891 157.226 71.8061C156.908 71.8244 156.601 71.8327 156.3 71.8327C155.999 71.8327 155.696 71.8244 155.388 71.8061C155.065 71.7878 154.743 71.7534 154.423 71.7033V58.2656H154.433ZM144.09 66.1042C144.161 67.1417 144.531 67.8943 145.201 68.3621C145.87 68.8299 146.752 69.0633 147.847 69.0622C148.463 69.0616 149.078 69.0061 149.684 68.8963C150.293 68.7892 150.89 68.6287 151.47 68.4168C151.685 68.8125 151.855 69.2303 151.977 69.6627C152.121 70.1705 152.201 70.6937 152.215 71.2205C150.725 71.7582 149.147 72.022 147.559 71.9986C146.29 71.9986 145.201 71.8255 144.293 71.4793C143.445 71.1756 142.68 70.6813 142.061 70.036C141.479 69.4055 141.045 68.6566 140.792 67.8428C140.511 66.9433 140.373 66.0066 140.383 65.0657C140.375 64.1241 140.518 63.1871 140.805 62.2886C141.066 61.4611 141.493 60.6933 142.061 60.0307C142.628 59.3827 143.332 58.864 144.124 58.5111C145.029 58.1221 146.01 57.9319 146.998 57.9537C147.87 57.94 148.734 58.1097 149.534 58.4514C150.254 58.7655 150.898 59.2257 151.424 59.8018C151.958 60.393 152.361 61.0868 152.607 61.839C152.876 62.6563 153.009 63.5103 153.003 64.369C153.003 64.7008 152.989 65.0226 152.964 65.3428C152.939 65.663 152.907 65.9184 152.871 66.1092L144.09 66.1042ZM149.459 63.5345C149.423 62.7039 149.19 62.0331 148.758 61.5222C148.326 61.0112 147.722 60.7563 146.946 60.7574C146.064 60.7574 145.394 60.9996 144.935 61.484C144.477 61.9684 144.204 62.6519 144.117 63.5345H149.459ZM132.087 61.0676H130.361L130.227 60.5583L135.172 54.3537H135.781V58.2739H138.981C139.029 58.5052 139.065 58.7389 139.088 58.974C139.104 59.1813 139.113 59.3987 139.113 59.6226C139.113 59.8466 139.104 60.0988 139.088 60.3244C139.065 60.5765 139.03 60.8273 138.981 61.0759H135.782V66.3448C135.772 66.7815 135.817 67.2179 135.916 67.6438C135.982 67.9282 136.112 68.1942 136.298 68.4218C136.462 68.6092 136.678 68.7449 136.92 68.8117C137.205 68.8846 137.498 68.9192 137.793 68.9145C138.054 68.9148 138.316 68.8932 138.574 68.8498L139.25 68.7337C139.374 69.0655 139.463 69.4091 139.514 69.759C139.564 70.0724 139.59 70.389 139.593 70.7062C139.593 70.8954 139.593 71.0563 139.58 71.1857C139.566 71.3151 139.558 71.4412 139.541 71.5623C138.717 71.7514 137.873 71.8444 137.027 71.8393C135.422 71.8393 134.196 71.4716 133.35 70.7361C132.503 70.0006 132.082 68.8023 132.087 67.1411V61.0676ZM122.163 61.0676H120.437L120.305 60.55L125.252 54.3454H125.86V58.2656H129.061C129.109 58.4968 129.144 58.7305 129.165 58.9657C129.184 59.1731 129.192 59.3904 129.192 59.6143C129.192 59.8383 129.192 60.0905 129.165 60.3161C129.144 60.5683 129.109 60.8192 129.061 61.0676H125.86V66.3365C125.849 66.7732 125.894 67.2095 125.992 67.6355C126.058 67.92 126.19 68.1861 126.376 68.4135C126.539 68.6013 126.755 68.737 126.996 68.8034C127.282 68.8763 127.576 68.9109 127.87 68.9062C128.132 68.9065 128.392 68.8848 128.65 68.8415L129.326 68.7254C129.45 69.0573 129.539 69.4009 129.591 69.7507C129.64 70.0642 129.666 70.3808 129.669 70.6979C129.669 70.8871 129.669 71.048 129.657 71.1774C129.646 71.3068 129.635 71.4329 129.617 71.554C128.793 71.7459 127.949 71.8417 127.103 71.8393C125.498 71.8393 124.272 71.4716 123.426 70.7361C122.579 70.0006 122.156 68.8023 122.156 67.1411V61.0676H122.163ZM116.002 65.5352C115.791 65.502 115.563 65.4705 115.314 65.4456C115.095 65.4207 114.874 65.4074 114.653 65.4058C113.789 65.4058 113.106 65.5573 112.604 65.8604C112.103 66.1634 111.851 66.6523 111.85 67.3269C111.827 67.6915 111.928 68.0534 112.138 68.3555C112.32 68.5894 112.562 68.7724 112.839 68.8863C113.117 69.0004 113.411 69.071 113.712 69.0954C114.021 69.1203 114.29 69.1335 114.518 69.1335C114.784 69.1335 115.049 69.1118 115.311 69.0688C115.576 69.0257 115.806 68.9859 115.999 68.951V65.5352H116.002ZM116.002 62.8626C116.017 62.5134 115.945 62.1659 115.791 61.8506C115.657 61.599 115.456 61.3879 115.209 61.2401C114.928 61.0819 114.618 60.9804 114.297 60.9415C113.898 60.8873 113.495 60.8613 113.093 60.8635C112.055 60.8786 111.026 61.0631 110.05 61.4093C109.823 61.0042 109.637 60.578 109.495 60.1369C109.362 59.6728 109.3 59.1921 109.309 58.7102C110.758 58.226 112.276 57.9717 113.806 57.957C115.641 57.957 117.074 58.3895 118.104 59.2543C119.134 60.1192 119.65 61.5017 119.651 63.4018V71.1873C118.912 71.4077 118.161 71.5894 117.402 71.7315C116.418 71.9147 115.417 72.002 114.415 71.9919C113.584 71.9986 112.755 71.9202 111.942 71.758C111.252 71.6269 110.595 71.3624 110.011 70.98C109.481 70.6247 109.052 70.142 108.767 69.5781C108.457 68.9202 108.308 68.2006 108.33 67.4762C108.304 66.7429 108.493 66.0176 108.873 65.3859C109.226 64.8348 109.708 64.3742 110.278 64.0421C110.871 63.6958 111.52 63.4502 112.197 63.3155C112.892 63.1692 113.601 63.0952 114.312 63.0949C114.819 63.0949 115.387 63.1214 116.002 63.1728V62.8626Z" fill="#C5D2EC"/>
<path d="M62.791 68.9999L63.061 67.9199C63.997 68.8379 64.789 69.2159 66.031 69.2159C68.317 69.2159 69.667 67.2539 69.667 64.3919C69.667 61.3679 68.155 59.5319 65.923 59.5319C64.861 59.5319 64.015 59.9099 63.205 60.7739V56.0759H61.675V68.9999H62.791ZM63.205 62.2679C63.835 61.3499 64.699 60.8459 65.617 60.8459C67.165 60.8459 68.119 62.1959 68.119 64.3559C68.119 66.5519 67.201 67.8839 65.635 67.8839C64.717 67.8839 63.745 67.3619 63.205 66.4979V62.2679Z" fill="#C5D2EC"/>
<path d="M75.5085 68.7119L78.5865 59.6759H76.9845L74.6985 66.6599H74.6625L72.3045 59.6759H70.6125L73.9245 68.8019L73.7445 69.3239C73.3125 70.5839 72.8985 71.0339 71.8905 71.0339C71.6025 71.0339 71.2425 70.9979 70.8645 70.9259V72.2039C71.2425 72.2759 71.6385 72.3119 72.1245 72.3119C73.9245 72.3119 74.5725 71.4839 75.5085 68.7119Z" fill="#C5D2EC"/>
<defs>
<clipPath id="clip0_348_264">
<rect width="220.229" height="47" fill="white"/>
</clipPath>
</defs>
</svg>
