<svg width="177" height="38" viewBox="0 0 177 38" fill="none" xmlns="http://www.w3.org/2000/svg">
<g clip-path="url(#clip0_1409_78331)">
<mask id="mask0_1409_78331" style="mask-type:luminance" maskUnits="userSpaceOnUse" x="0" y="0" width="177" height="38">
<path d="M176.641 0H0V37.6977H176.641V0Z" fill="white"/>
</mask>
<g mask="url(#mask0_1409_78331)">
<path fill-rule="evenodd" clip-rule="evenodd" d="M19.4724 7.24306C12.0164 5.20168 3.54346 9.17963 0.821424 17.2191C-1.91945 25.3152 2.42238 34.1001 10.5184 36.841C18.6145 39.5819 27.3994 35.24 30.1409 27.144C32.3807 20.5288 29.8688 13.7776 24.8558 9.92211L24.5849 12.7902C27.3117 15.6729 28.5346 19.8211 27.1309 23.9686C25.1514 29.816 18.6245 32.8895 12.5522 30.834C6.47981 28.7791 3.16191 22.3729 5.14088 16.5255C6.89256 11.3511 12.2054 8.45011 17.3544 9.0919L19.4724 7.24306ZM15.8365 16.9512C17.8714 16.5597 19.9499 18.5728 19.2292 20.7019C18.7264 22.1869 17.0683 22.9688 15.525 22.4459C13.9824 21.9237 13.1392 20.2962 13.6426 18.8107C13.98 17.8115 14.8403 17.1314 15.8365 16.9512ZM15.0799 14.0402C14.0283 14.2304 13.0485 14.6902 12.2466 15.3697C11.4817 16.018 10.8811 16.8682 10.5402 17.8768C10.0227 19.406 10.1993 21.011 10.9035 22.3706C11.6136 23.7419 12.8613 24.8636 14.4776 25.4111C16.0932 25.9581 17.7654 25.8239 19.1638 25.1656C20.5487 24.5138 21.6639 23.3456 22.1814 21.8165C22.5082 20.8515 22.5542 19.9005 22.384 19.0132C22.2603 18.3697 22.0219 17.7567 21.6927 17.1932L22.2927 14.1862C22.404 14.2963 22.5129 14.4088 22.6177 14.5242C23.6481 15.6541 24.3889 17.046 24.6833 18.5734C24.9276 19.8417 24.8623 21.1977 24.3983 22.5678C23.6688 24.7234 22.1031 26.3674 20.163 27.2812C18.2359 28.1885 15.9384 28.3752 13.7274 27.6274C11.5171 26.879 9.80537 25.334 8.82501 23.4422C7.83936 21.5386 7.59442 19.2823 8.32394 17.1255C8.80617 15.7012 9.65463 14.4995 10.7363 13.5833C11.8433 12.6453 13.1981 12.0094 14.6554 11.7433L14.6548 11.7409C15.6905 11.5413 16.7285 11.5566 17.7242 11.7503L15.6145 13.9648C15.4414 13.9813 15.2683 14.0066 15.0946 14.0396L15.0799 14.0402Z" fill="#1C58D9"/>
<path fill-rule="evenodd" clip-rule="evenodd" d="M22.0771 6.87153L21.662 4.97676L24.1797 0.12915L25.7206 2.72224L28.7353 2.61802L26.0162 7.35552L24.0832 8.07209L17.3944 20.3156L15.3424 19.1987L22.0771 6.87153Z" fill="#1C58D9"/>
<path fill-rule="evenodd" clip-rule="evenodd" d="M40.4719 31.1562V12.6366H52.1461V16.1588H44.6477V20.4476H51.0668V23.9704H44.6477V31.1562H40.4719ZM60.5536 31.4971C59.6628 31.4971 58.8013 31.331 57.9682 30.9995C57.135 30.668 56.4014 30.1905 55.7667 29.5646C55.1325 28.9399 54.6261 28.1686 54.2475 27.2495C53.8684 26.3309 53.6793 25.2852 53.6793 24.1111C53.6793 22.9377 53.8684 21.8908 54.2475 20.9728C54.6261 20.0537 55.1325 19.283 55.7667 18.6571C56.4014 18.0323 57.1356 17.5548 57.9682 17.2233C58.8013 16.8918 59.6628 16.7264 60.5536 16.7264C61.4433 16.7264 62.3 16.8918 63.1237 17.2233C63.9469 17.5548 64.6764 18.0329 65.3105 18.6571C65.9453 19.283 66.4516 20.0537 66.8302 20.9728C67.2094 21.8908 67.3984 22.9377 67.3984 24.1111C67.3984 25.2852 67.2094 26.3315 66.8302 27.2495C66.4516 28.1686 65.9453 28.9399 65.3105 29.5646C64.6764 30.1905 63.9469 30.668 63.1237 30.9995C62.3006 31.331 61.4433 31.4971 60.5536 31.4971ZM60.5536 28.1168C61.4056 28.1168 62.0492 27.757 62.4843 27.0381C62.92 26.3174 63.1379 25.3429 63.1379 24.1117C63.1379 22.8811 62.9194 21.9061 62.4843 21.186C62.0492 20.4665 61.4056 20.1061 60.5536 20.1061C59.6822 20.1061 59.0339 20.4665 58.6076 21.186C58.1813 21.9061 57.9682 22.8811 57.9682 24.1117C57.9682 25.3429 58.1813 26.3174 58.6076 27.0381C59.0339 27.757 59.6822 28.1168 60.5536 28.1168ZM76.4036 31.4971C75.4185 31.4971 74.5047 31.331 73.6621 30.9995C72.8201 30.668 72.0859 30.1905 71.4612 29.5646C70.8359 28.9399 70.3442 28.1686 69.9839 27.2495C69.6241 26.3309 69.4445 25.2852 69.4445 24.1111C69.4445 22.9377 69.643 21.8908 70.041 20.9728C70.439 20.0537 70.9736 19.283 71.6461 18.6571C72.3185 18.0323 73.0992 17.5548 73.9889 17.2233C74.8792 16.8918 75.8071 16.7264 76.7728 16.7264C77.6436 16.7264 78.4149 16.8683 79.0873 17.1521C79.7598 17.4359 80.3609 17.7956 80.8908 18.2314L78.9307 20.9298C78.2677 20.3811 77.6336 20.1061 77.0277 20.1061C76.005 20.1061 75.2001 20.4665 74.613 21.186C74.026 21.9061 73.7322 22.8811 73.7322 24.1117C73.7322 25.3429 74.0307 26.3174 74.6278 27.0381C75.2242 27.757 75.9773 28.1168 76.8852 28.1168C77.3398 28.1168 77.7802 28.0173 78.2065 27.8188C78.6328 27.6198 79.0344 27.3784 79.4135 27.094L81.061 29.8213C80.3603 30.4272 79.6025 30.8588 78.7888 31.1143C77.9751 31.3693 77.1796 31.4971 76.4036 31.4971ZM86.7989 31.4971C86.1553 31.4971 85.573 31.3881 85.0525 31.1697C84.532 30.9524 84.0916 30.6492 83.7312 30.2612C83.3721 29.8732 83.093 29.4233 82.8934 28.9122C82.6949 28.4011 82.596 27.8424 82.596 27.2359C82.596 25.7586 83.2207 24.6034 84.4708 23.7702C85.7208 22.9377 87.7369 22.3789 90.5213 22.0945C90.483 21.4692 90.2981 20.9728 89.9672 20.6031C89.6357 20.2339 89.0823 20.0496 88.3056 20.0496C87.6998 20.0496 87.0986 20.1632 86.5021 20.3905C85.9057 20.6178 85.2662 20.9298 84.5844 21.3279L83.0794 18.5723C83.9874 18.0235 84.9395 17.5784 85.9339 17.2375C86.9278 16.8965 87.9836 16.7264 89.1005 16.7264C90.9193 16.7264 92.3054 17.2422 93.2616 18.2738C94.2178 19.3053 94.6965 20.911 94.6965 23.0878V31.155H91.2879L91.0047 29.7065H90.8905C90.2852 30.2359 89.651 30.6674 88.9881 30.9984C88.3251 31.3293 87.5944 31.4971 86.7989 31.4971ZM88.2191 28.2587C88.6925 28.2587 89.0993 28.1544 89.4403 27.9466C89.7812 27.7387 90.1403 27.4443 90.5201 27.0657V24.5951C89.0428 24.8036 88.0207 25.1062 87.4525 25.5042C86.8843 25.9017 86.6005 26.3751 86.6005 26.9238C86.6005 27.3784 86.7477 27.7152 87.0409 27.9325C87.3341 28.1503 87.7268 28.2587 88.2191 28.2587ZM102.052 31.4971C101.332 31.4971 100.726 31.384 100.234 31.1562C99.7414 30.9283 99.3486 30.6121 99.0548 30.2046C98.7616 29.7978 98.549 29.3055 98.416 28.7279C98.2829 28.1503 98.2169 27.5015 98.2169 26.7819V11.2452H102.393V26.9527C102.393 27.3884 102.473 27.6911 102.634 27.8612C102.794 28.032 102.96 28.1173 103.131 28.1173C103.225 28.1173 103.306 28.1173 103.372 28.1173C103.438 28.1173 103.529 28.0985 103.642 28.0608L104.153 31.1567C103.926 31.2515 103.637 31.3316 103.287 31.3982C102.937 31.4647 102.525 31.4971 102.052 31.4971ZM113.725 31.4971C113.1 31.4971 112.471 31.3405 111.837 31.0284C111.202 30.7163 110.611 30.2559 110.061 29.65H109.948L109.607 31.1562H106.341V11.2452H110.516V16.1305L110.402 18.2891C110.952 17.7968 111.543 17.4135 112.178 17.1385C112.813 16.8636 113.461 16.727 114.124 16.727C114.976 16.727 115.743 16.8971 116.424 17.238C117.106 17.579 117.689 18.0565 118.171 18.6724C118.654 19.2877 119.023 20.036 119.279 20.9163C119.535 21.7966 119.663 22.7769 119.663 23.8556C119.663 25.0685 119.497 26.1472 119.165 27.0934C118.834 28.0402 118.389 28.841 117.83 29.4946C117.272 30.1469 116.637 30.6445 115.928 30.9854C115.217 31.3263 114.483 31.4971 113.725 31.4971ZM112.76 28.0885C113.48 28.0885 114.096 27.7617 114.607 27.1087C115.118 26.4557 115.374 25.4 115.374 23.941C115.374 21.4038 114.559 20.1355 112.931 20.1355C112.098 20.1355 111.294 20.5618 110.517 21.4138V27.1794C110.896 27.5203 111.274 27.7564 111.653 27.8901C112.031 28.022 112.4 28.0885 112.76 28.0885ZM128.666 31.4971C127.776 31.4971 126.915 31.331 126.081 30.9995C125.248 30.668 124.515 30.1905 123.88 29.5646C123.246 28.9399 122.739 28.1686 122.361 27.2495C121.982 26.3309 121.793 25.2852 121.793 24.1111C121.793 22.9377 121.982 21.8908 122.361 20.9728C122.739 20.0537 123.246 19.283 123.88 18.6571C124.515 18.0323 125.248 17.5548 126.081 17.2233C126.915 16.8918 127.776 16.7264 128.666 16.7264C129.557 16.7264 130.413 16.8918 131.237 17.2233C132.06 17.5548 132.79 18.0329 133.424 18.6571C134.059 19.283 134.565 20.0537 134.943 20.9728C135.323 21.8908 135.512 22.9377 135.512 24.1111C135.512 25.2852 135.323 26.3315 134.943 27.2495C134.565 28.1686 134.059 28.9399 133.424 29.5646C132.79 30.1905 132.061 30.668 131.237 30.9995C130.413 31.331 129.557 31.4971 128.666 31.4971ZM128.666 28.1168C129.518 28.1168 130.162 27.757 130.598 27.0381C131.033 26.3174 131.251 25.3429 131.251 24.1117C131.251 22.8811 131.033 21.9061 130.598 21.186C130.162 20.4665 129.518 20.1061 128.666 20.1061C127.795 20.1061 127.147 20.4665 126.72 21.186C126.294 21.9061 126.081 22.8811 126.081 24.1117C126.081 25.3429 126.294 26.3174 126.72 27.0381C127.147 27.757 127.795 28.1168 128.666 28.1168ZM141.619 31.4971C140.975 31.4971 140.393 31.3881 139.872 31.1697C139.351 30.9524 138.911 30.6492 138.551 30.2612C138.192 29.8732 137.912 29.4233 137.713 28.9122C137.514 28.4011 137.415 27.8424 137.415 27.2359C137.415 25.7586 138.04 24.6034 139.29 23.7702C140.54 22.9377 142.557 22.3789 145.34 22.0945C145.302 21.4692 145.117 20.9728 144.786 20.6031C144.455 20.2339 143.901 20.0496 143.125 20.0496C142.519 20.0496 141.917 20.1632 141.321 20.3905C140.726 20.6178 140.085 20.9298 139.404 21.3279L137.899 18.5723C138.807 18.0235 139.759 17.5784 140.753 17.2375C141.747 16.8965 142.803 16.7264 143.92 16.7264C145.739 16.7264 147.125 17.2422 148.081 18.2738C149.038 19.3053 149.516 20.911 149.516 23.0878V31.155H146.108L145.824 29.7065H145.71C145.104 30.2359 144.47 30.6674 143.807 30.9984C143.143 31.331 142.414 31.4971 141.619 31.4971ZM143.04 28.2587C143.512 28.2587 143.919 28.1544 144.261 27.9466C144.601 27.7382 144.961 27.4443 145.34 27.0657V24.5951C143.863 24.8036 142.841 25.1062 142.272 25.5042C141.704 25.9017 141.42 26.3751 141.42 26.9238C141.42 27.3784 141.567 27.7152 141.86 27.9325C142.155 28.1503 142.547 28.2587 143.04 28.2587ZM153.037 31.1562V17.0679H156.446L156.729 19.5391H156.842C157.354 18.5729 157.969 17.8634 158.689 17.4088C159.409 16.9537 160.128 16.727 160.847 16.727C161.245 16.727 161.572 16.7505 161.828 16.7982C162.084 16.8453 162.315 16.916 162.524 17.0108L161.842 20.6178C161.577 20.5424 161.331 20.4853 161.103 20.447C160.877 20.4099 160.611 20.3905 160.308 20.3905C159.779 20.3905 159.224 20.5795 158.646 20.9581C158.069 21.3379 157.591 22.0097 157.212 22.9753V31.1562H153.037ZM169.086 31.4971C168.214 31.4971 167.424 31.3263 166.714 30.986C166.003 30.6451 165.398 30.157 164.895 29.5234C164.394 28.8887 164.006 28.1168 163.731 27.2082C163.457 26.2991 163.319 25.267 163.319 24.1117C163.319 22.9565 163.485 21.9249 163.817 21.0158C164.148 20.1061 164.584 19.3354 165.123 18.7006C165.662 18.0659 166.288 17.5784 166.998 17.238C167.708 16.8971 168.433 16.727 169.171 16.727C169.967 16.727 170.62 16.8589 171.131 17.1238C171.642 17.3894 172.143 17.7491 172.636 18.2031L172.465 16.0445V11.2446H176.641V31.1556H173.232L172.949 29.7642H172.835C172.343 30.2559 171.765 30.668 171.102 30.9995C170.439 31.331 169.767 31.4971 169.086 31.4971ZM170.164 28.0885C170.619 28.0885 171.031 27.9937 171.401 27.8047C171.77 27.6151 172.125 27.2842 172.465 26.8108V21.0447C172.087 20.7037 171.699 20.4676 171.301 20.3346C170.903 20.2021 170.515 20.1361 170.136 20.1361C169.473 20.1361 168.886 20.4529 168.375 21.087C167.864 21.7212 167.608 22.711 167.608 24.0558C167.608 25.4565 167.831 26.4793 168.276 27.1234C168.721 27.767 169.351 28.0885 170.164 28.0885Z" fill="#1B1D22"/>
</g>
</g>
<defs>
<clipPath id="clip0_1409_78331">
<rect width="177" height="38" fill="white"/>
</clipPath>
</defs>
</svg>
