<svg id="livetype" xmlns="http://www.w3.org/2000/svg" width="156.10054" height="40" viewBox="0 0 156.10054 40">
  <title>Download_on_the_Mac_App_Store_Badge_US-UK_RGB_wht_092917</title>
  <g>
    <g>
      <path d="M146.57123,0H9.53468c-.3667,0-.729,0-1.09473.002-.30615.002-.60986.00781-.91895.0127A13.21476,13.21476,0,0,0,5.5171.19141a6.66509,6.66509,0,0,0-1.90088.627A6.4378,6.4378,0,0,0,1.99757,1.99707,6.25844,6.25844,0,0,0,.81935,3.61816a6.60119,6.60119,0,0,0-.625,1.90332,12.993,12.993,0,0,0-.1792,2.002C.00587,7.83008.00489,8.1377,0,8.44434V31.5586c.00489.3105.00587.6113.01514.9219a12.99232,12.99232,0,0,0,.1792,2.0019,6.58756,6.58756,0,0,0,.625,1.9043A6.20778,6.20778,0,0,0,1.99757,38.001a6.27446,6.27446,0,0,0,1.61865,1.1787,6.70082,6.70082,0,0,0,1.90088.6308,13.45514,13.45514,0,0,0,2.0039.1768c.30909.0068.6128.0107.91895.0107C8.80567,40,9.168,40,9.53468,40H146.57123c.3594,0,.7246,0,1.084-.002.3047,0,.6172-.0039.9219-.0107a13.279,13.279,0,0,0,2-.1768,6.80432,6.80432,0,0,0,1.9082-.6308,6.27742,6.27742,0,0,0,1.6172-1.1787,6.39482,6.39482,0,0,0,1.1816-1.6143,6.60413,6.60413,0,0,0,.6191-1.9043,13.50643,13.50643,0,0,0,.1856-2.0019c.0039-.3106.0039-.6114.0039-.9219.0078-.3633.0078-.7246.0078-1.0938V9.53613c0-.36621,0-.72949-.0078-1.09179,0-.30664,0-.61426-.0039-.9209a13.5071,13.5071,0,0,0-.1856-2.002,6.6177,6.6177,0,0,0-.6191-1.90332,6.46619,6.46619,0,0,0-2.7988-2.7998,6.76754,6.76754,0,0,0-1.9082-.627,13.04394,13.04394,0,0,0-2-.17676c-.3047-.00488-.6172-.01074-.9219-.01269-.3594-.002-.7246-.002-1.084-.002Z"/>
      <path d="M8.44483,39.125c-.30468,0-.60205-.0039-.90429-.0107a12.68714,12.68714,0,0,1-1.86914-.1631,5.88381,5.88381,0,0,1-1.65674-.5479,5.40573,5.40573,0,0,1-1.397-1.0166,5.32082,5.32082,0,0,1-1.02051-1.3965,5.72184,5.72184,0,0,1-.543-1.6572,12.41339,12.41339,0,0,1-.1665-1.875c-.00634-.2109-.01464-.9131-.01464-.9131V8.44434S.88185,7.75293.8877,7.5498a12.37032,12.37032,0,0,1,.16553-1.87207,5.75552,5.75552,0,0,1,.54346-1.6621A5.3735,5.3735,0,0,1,2.61183,2.61768,5.56543,5.56543,0,0,1,4.01417,1.59521a5.82309,5.82309,0,0,1,1.65332-.54394A12.58589,12.58589,0,0,1,7.543.88721L8.44532.875h139.205l.9131.0127a12.38493,12.38493,0,0,1,1.8584.16259,5.93833,5.93833,0,0,1,1.6709.54785,5.59374,5.59374,0,0,1,2.415,2.41993,5.76267,5.76267,0,0,1,.5352,1.64892,12.995,12.995,0,0,1,.1738,1.88721c.0029.2832.0029.5874.0029.89014.0079.375.0079.73193.0079,1.09179V30.4648c0,.3633,0,.7178-.0079,1.0752,0,.3252,0,.6231-.0039.9297a12.73127,12.73127,0,0,1-.1709,1.8535,5.739,5.739,0,0,1-.54,1.67,5.48029,5.48029,0,0,1-1.0156,1.3857,5.4129,5.4129,0,0,1-1.3994,1.0225,5.86168,5.86168,0,0,1-1.668.5498,12.54218,12.54218,0,0,1-1.8692.1631c-.2929.0068-.5996.0107-.8974.0107l-1.084.002Z" style="fill: #fff"/>
    </g>
    <g>
      <path d="M46.14895,30.49474V21.3546H46.0884L42.34523,30.4H40.91652L37.16359,21.3546H37.104v9.14014H35.34816V18.07628h2.22949l4.01855,9.80225h.06836l4.01074-9.80225h2.2373V30.49474Z"/>
      <path d="M49.396,27.9215c0-1.583,1.21289-2.53906,3.36523-2.668l2.47852-.13818v-.68848c0-1.00684-.66309-1.5752-1.791-1.5752a1.73035,1.73035,0,0,0-1.90137,1.27441H49.8091c.05176-1.63574,1.5752-2.79687,3.69141-2.79687,2.16016,0,3.58887,1.17871,3.58887,2.96v6.20557H55.30813V29.00548h-.043A3.23683,3.23683,0,0,1,52.40773,30.65,2.74447,2.74447,0,0,1,49.396,27.9215Zm5.84375-.81738v-.69727l-2.22949.1377c-1.11035.06934-1.73828.55078-1.73828,1.3252,0,.792.6543,1.30859,1.65234,1.30859A2.17046,2.17046,0,0,0,55.23977,27.10411Z"/>
      <path d="M64.89309,24.55577a1.99909,1.99909,0,0,0-2.13379-1.66895c-1.42871,0-2.375,1.19629-2.375,3.08154,0,1.92773.95508,3.08887,2.3916,3.08887a1.94829,1.94829,0,0,0,2.11719-1.626h1.79A3.61835,3.61835,0,0,1,62.7593,30.607c-2.582,0-4.26855-1.76465-4.26855-4.63867,0-2.81494,1.68652-4.63916,4.251-4.63916a3.63931,3.63931,0,0,1,3.9248,3.22656Z"/>
      <path d="M78.7593,27.13829H74.0259l-1.13672,3.35645H70.8843l4.4834-12.41846h2.083l4.4834,12.41846H79.895Zm-4.24316-1.54883h3.752l-1.84961-5.44775h-.05176Z"/>
      <path d="M91.61672,25.96837c0,2.81348-1.50586,4.62109-3.77832,4.62109a3.0693,3.0693,0,0,1-2.84863-1.584h-.043v4.48437H83.0884V21.44054h1.79883V22.9464h.03418a3.21161,3.21161,0,0,1,2.88281-1.60059C90.10207,21.34581,91.61672,23.16222,91.61672,25.96837Zm-1.91016,0c0-1.8335-.94727-3.03857-2.39258-3.03857-1.41992,0-2.375,1.23047-2.375,3.03857,0,1.82422.95508,3.0459,2.375,3.0459C88.7593,29.01427,89.70656,27.818,89.70656,25.96837Z"/>
      <path d="M101.58156,25.96837c0,2.81348-1.50586,4.62109-3.77832,4.62109a3.0693,3.0693,0,0,1-2.84863-1.584h-.043v4.48437h-1.8584V21.44054h1.79883V22.9464h.03418a3.21162,3.21162,0,0,1,2.88281-1.60059C100.06691,21.34581,101.58156,23.16222,101.58156,25.96837Zm-1.91016,0c0-1.8335-.94727-3.03857-2.39258-3.03857-1.41992,0-2.375,1.23047-2.375,3.03857,0,1.82422.95508,3.0459,2.375,3.0459C98.72414,29.01427,99.67141,27.818,99.67141,25.96837Z"/>
      <path d="M108.1675,27.03478c.1377,1.23145,1.334,2.04,2.96875,2.04,1.56641,0,2.69336-.80859,2.69336-1.91895,0-.96387-.67969-1.541-2.28906-1.93652l-1.60937-.38818c-2.28027-.55078-3.33887-1.61719-3.33887-3.34766,0-2.14258,1.86719-3.61426,4.51855-3.61426,2.624,0,4.42285,1.47168,4.4834,3.61426h-1.876c-.1123-1.23926-1.13672-1.9873-2.63379-1.9873s-2.52149.75684-2.52149,1.8584c0,.87793.65431,1.39453,2.25489,1.79l1.36816.33594c2.54785.60254,3.60645,1.626,3.60645,3.44287,0,2.32324-1.85059,3.77832-4.79395,3.77832-2.75391,0-4.61328-1.4209-4.7334-3.667Z"/>
      <path d="M119.80324,19.298v2.14258h1.72168v1.47168h-1.72168v4.9917c0,.77539.34473,1.13672,1.10156,1.13672a5.80752,5.80752,0,0,0,.61133-.043v1.46289a5.10351,5.10351,0,0,1-1.03223.08594c-1.833,0-2.54785-.68848-2.54785-2.44434V22.91222h-1.31641V21.44054h1.31641V19.298Z"/>
      <path d="M122.521,25.96837c0-2.84912,1.67773-4.63916,4.29395-4.63916,2.625,0,4.29492,1.79,4.29492,4.63916,0,2.85645-1.66113,4.63867-4.29492,4.63867C124.18215,30.607,122.521,28.82482,122.521,25.96837Zm6.69531,0c0-1.95459-.89551-3.10791-2.40137-3.10791s-2.40137,1.16211-2.40137,3.10791c0,1.96191.89551,3.10645,2.40137,3.10645S129.21633,27.93028,129.21633,25.96837Z"/>
      <path d="M132.64211,21.44054h1.77246v1.541h.043a2.1594,2.1594,0,0,1,2.17773-1.63574,2.86616,2.86616,0,0,1,.63672.06934v1.73828a2.59794,2.59794,0,0,0-.835-.1123,1.87264,1.87264,0,0,0-1.93652,2.083v5.37061h-1.8584Z"/>
      <path d="M145.84035,27.83556c-.25,1.64355-1.85059,2.77148-3.89844,2.77148-2.63379,0-4.26855-1.76465-4.26855-4.5957,0-2.84033,1.64355-4.68213,4.19043-4.68213,2.50488,0,4.08008,1.7207,4.08008,4.46631v.63672h-6.39453v.1123a2.358,2.358,0,0,0,2.43555,2.56445,2.04834,2.04834,0,0,0,2.09082-1.27344Zm-6.28223-2.70264h4.52637a2.1773,2.1773,0,0,0-2.2207-2.29785A2.292,2.292,0,0,0,139.55813,25.13292Z"/>
    </g>
    <g>
      <g id="_Group_" data-name="&lt;Group&gt;">
        <g id="_Group_2" data-name="&lt;Group&gt;">
          <g id="_Group_3" data-name="&lt;Group&gt;">
            <path id="_Path_" data-name="&lt;Path&gt;" d="M24.99671,19.88935a5.14625,5.14625,0,0,1,2.45058-4.31771,5.26776,5.26776,0,0,0-4.15039-2.24376c-1.74624-.1833-3.43913,1.04492-4.329,1.04492-.90707,0-2.27713-1.02672-3.75247-.99637a5.52735,5.52735,0,0,0-4.65137,2.8367c-2.01111,3.482-.511,8.59939,1.41551,11.414.96388,1.37823,2.09037,2.91774,3.56438,2.86315,1.4424-.05983,1.98111-.91977,3.7222-.91977,1.72494,0,2.23035.91977,3.73427.88506,1.54777-.02512,2.52292-1.38435,3.453-2.77563a11.39931,11.39931,0,0,0,1.579-3.21589A4.97284,4.97284,0,0,1,24.99671,19.88935Z"/>
            <path id="_Path_2" data-name="&lt;Path&gt;" d="M22.15611,11.47681a5.06687,5.06687,0,0,0,1.159-3.62989,5.15524,5.15524,0,0,0-3.33555,1.72582,4.82131,4.82131,0,0,0-1.18934,3.4955A4.26259,4.26259,0,0,0,22.15611,11.47681Z"/>
          </g>
        </g>
      </g>
      <g id="_Group_4" data-name="&lt;Group&gt;">
        <g>
          <path d="M37.82619,8.731a2.63964,2.63964,0,0,1,2.80762,2.96484c0,1.90625-1.03027,3.002-2.80762,3.002H35.67092V8.731Zm-1.22852,5.123h1.125a1.87588,1.87588,0,0,0,1.96777-2.146,1.881,1.881,0,0,0-1.96777-2.13379h-1.125Z"/>
          <path d="M41.68068,12.44434a2.13323,2.13323,0,1,1,4.24707,0,2.13358,2.13358,0,1,1-4.24707,0Zm3.333,0c0-.97607-.43848-1.54687-1.208-1.54687-.77246,0-1.207.5708-1.207,1.54688,0,.98389.43457,1.55029,1.207,1.55029C44.57521,13.99463,45.01369,13.42432,45.01369,12.44434Z"/>
          <path d="M51.57326,14.69775h-.92187l-.93066-3.31641h-.07031l-.92676,3.31641h-.91309l-1.24121-4.50293h.90137l.80664,3.436h.06641l.92578-3.436h.85254l.92578,3.436h.07031l.80273-3.436h.88867Z"/>
          <path d="M53.85354,10.19482H54.709v.71533h.06641a1.348,1.348,0,0,1,1.34375-.80225,1.46456,1.46456,0,0,1,1.55859,1.6748v2.915h-.88867V12.00586c0-.72363-.31445-1.0835-.97168-1.0835a1.03294,1.03294,0,0,0-1.0752,1.14111v2.63428h-.88867Z"/>
          <path d="M59.09377,8.437h.88867v6.26074h-.88867Z"/>
          <path d="M61.21779,12.44434a2.13323,2.13323,0,1,1,4.24707,0,2.13358,2.13358,0,1,1-4.24707,0Zm3.333,0c0-.97607-.43848-1.54687-1.208-1.54687-.77246,0-1.207.5708-1.207,1.54688,0,.98389.43457,1.55029,1.207,1.55029C64.11232,13.99463,64.5508,13.42432,64.5508,12.44434Z"/>
          <path d="M66.40041,13.42432c0-.81055.60352-1.27783,1.6748-1.34424l1.21973-.07031v-.38867c0-.47559-.31445-.74414-.92187-.74414-.49609,0-.83984.18213-.93848.50049h-.86035c.09082-.77344.81836-1.26953,1.83984-1.26953,1.12891,0,1.76563.562,1.76563,1.51318v3.07666h-.85547v-.63281h-.07031a1.515,1.515,0,0,1-1.35254.707A1.36026,1.36026,0,0,1,66.40041,13.42432Zm2.89453-.38477v-.37646l-1.09961.07031c-.62012.0415-.90137.25244-.90137.64941,0,.40527.35156.64111.835.64111A1.0615,1.0615,0,0,0,69.29494,13.03955Z"/>
          <path d="M71.34768,12.44434c0-1.42285.73145-2.32422,1.86914-2.32422a1.484,1.484,0,0,1,1.38086.79h.06641V8.437h.88867v6.26074h-.85156v-.71143h-.07031a1.56284,1.56284,0,0,1-1.41406.78564C72.07131,14.772,71.34768,13.87061,71.34768,12.44434Zm.918,0c0,.95508.4502,1.52979,1.20313,1.52979.749,0,1.21191-.583,1.21191-1.52588,0-.93848-.46777-1.52979-1.21191-1.52979C72.72072,10.91846,72.26564,11.49707,72.26564,12.44434Z"/>
          <path d="M79.22951,12.44434a2.13346,2.13346,0,1,1,4.24756,0,2.1338,2.1338,0,1,1-4.24756,0Zm3.333,0c0-.97607-.43848-1.54687-1.208-1.54687-.77246,0-1.207.5708-1.207,1.54688,0,.98389.43457,1.55029,1.207,1.55029C82.124,13.99463,82.56252,13.42432,82.56252,12.44434Z"/>
          <path d="M84.66945,10.19482h.85547v.71533h.06641a1.348,1.348,0,0,1,1.34375-.80225,1.46456,1.46456,0,0,1,1.55859,1.6748v2.915H87.605V12.00586c0-.72363-.31445-1.0835-.97168-1.0835a1.03294,1.03294,0,0,0-1.0752,1.14111v2.63428h-.88867Z"/>
          <path d="M93.51516,9.07373v1.1416h.97559v.74854h-.97559V13.2793c0,.47168.19434.67822.63672.67822a2.96657,2.96657,0,0,0,.33887-.02051v.74023a2.9155,2.9155,0,0,1-.4834.04541c-.98828,0-1.38184-.34766-1.38184-1.21582v-2.543h-.71484v-.74854h.71484V9.07373Z"/>
          <path d="M95.70461,8.437h.88086v2.48145h.07031a1.3856,1.3856,0,0,1,1.373-.80664,1.48339,1.48339,0,0,1,1.55078,1.67871v2.90723H98.69v-2.688c0-.71924-.335-1.0835-.96289-1.0835a1.05194,1.05194,0,0,0-1.13379,1.1416v2.62988h-.88867Z"/>
          <path d="M104.76125,13.48193a1.828,1.828,0,0,1-1.95117,1.30273A2.04531,2.04531,0,0,1,100.73,12.46045a2.07685,2.07685,0,0,1,2.07617-2.35254c1.25293,0,2.00879.856,2.00879,2.27V12.688h-3.17969v.0498a1.1902,1.1902,0,0,0,1.19922,1.29,1.07934,1.07934,0,0,0,1.07129-.5459Zm-3.126-1.45117h2.27441a1.08647,1.08647,0,0,0-1.1084-1.1665A1.15162,1.15162,0,0,0,101.63527,12.03076Z"/>
        </g>
      </g>
    </g>
  </g>
</svg>
