<svg width="58" height="56" viewBox="0 0 58 56" fill="none" xmlns="http://www.w3.org/2000/svg">
<path d="M0 27.4889C0 27.4889 0.949408 16.0791 6.95688 10.3382C12.9644 4.59719 18.6887 0.777288 30.848 0.0555038C43.0073 -0.666281 50.5638 11.5985 51.7353 13.7861C52.9068 15.9736 56.3992 22.4753 56.3992 27.5111C56.3992 32.5469 56.438 43.1238 49.259 47.8265C42.0801 52.5293 35.1565 55.2665 30.1984 55.0055C25.2402 54.7446 12.7034 53.7008 7.09013 45.8666C1.47686 38.0325 0 35.5062 0 27.4889Z" fill="#FFBC1F"/>
<path d="M29.1991 5.95745C30.4689 5.59142 31.7985 5.47999 33.1116 5.62959C34.4246 5.77918 35.6951 6.18686 36.85 6.82915C36.9162 6.8682 36.9934 6.88435 37.0697 6.87512C37.146 6.86588 37.2172 6.83176 37.2721 6.77805C37.3271 6.72433 37.3629 6.65401 37.3739 6.57794C37.3849 6.50187 37.3705 6.4243 37.333 6.35721C36.267 4.39729 33.4798 0.805018 28.8715 5.36336C28.8145 5.4165 28.7769 5.48714 28.7646 5.56408C28.7523 5.64102 28.7661 5.71985 28.8037 5.78808C28.8413 5.85631 28.9007 5.91001 28.9723 5.94069C29.0439 5.97138 29.1237 5.97728 29.1991 5.95745Z" fill="#FFD791"/>
<path d="M17.8892 49.792C14.952 46.7549 11.0377 42.935 11.4264 29.8041C11.815 16.6731 14.9576 12.0371 17.2062 8.55584C18.4277 6.65699 22.6696 2.7427 27.8831 0.283081C17.7392 1.43794 12.448 5.06906 6.95688 10.3214C0.949408 16.0624 0 27.4722 0 27.4722C0 35.4895 1.47131 38.0213 7.09013 45.8277C12.7089 53.6341 25.2347 54.7112 30.1984 54.9666C30.1984 54.9777 20.8263 52.8012 17.8892 49.792Z" fill="#CC8F00"/>
<path d="M52.8679 18.1612C52.7402 17.7392 52.5403 17.345 52.4126 16.9231C52.207 16.2386 52.207 15.5088 52.4126 14.8244C52.2072 14.7966 52.0018 14.7744 51.7852 14.7577C50.2473 14.6189 45.5335 14.7133 43.357 14.7577C41.5893 14.7988 39.86 15.2817 38.3267 16.1624C36.9607 16.9051 35.4391 17.3159 33.885 17.3617C32.49 17.3947 31.1075 17.0919 29.8541 16.4789C28.7436 16.0236 26.1841 15.7516 24.0964 15.7516C22.0088 15.7516 13.7194 16.068 10.8212 16.7065C7.92292 17.345 7.96732 18.9718 7.96732 18.9718C8.15055 20.3765 9.73293 20.2377 10.3714 20.2821C11.0099 20.3266 11.1376 20.7818 11.182 21.326C11.3534 23.4258 11.7252 25.5043 12.2925 27.5333C13.1086 30.3094 14.3801 30.6148 15.374 31.1589C16.3678 31.703 18.8219 31.5698 21.7645 31.5698C24.5226 31.5572 27.2715 31.252 29.9651 30.6592C31.4142 30.2539 31.4642 29.0768 31.6308 28.3939C31.7973 27.711 32.4469 23.9077 32.7412 22.9583C33.0355 22.0089 33.4686 21.7812 33.6962 21.6869C34.098 21.6107 34.5137 21.6754 34.8733 21.8701C35.4618 22.0977 35.9115 23.2748 36.0947 24.2742C36.4737 25.9214 37.1169 27.4963 37.9992 28.938C38.8598 30.165 41.1694 29.9818 44.0233 29.9818C46.3143 30.0014 48.5989 29.7366 50.8247 29.1934C52.1795 28.8159 52.768 27.128 53.0456 26.223C53.4081 24.5658 53.6511 22.8847 53.7729 21.1927C53.8173 20.6375 53.8729 20.2433 53.9339 19.9046C53.4425 19.4185 53.0767 18.8201 52.8679 18.1612Z" fill="#CC8F00"/>
<path d="M20.9095 37.3329C22.0754 36.65 22.8139 37.5772 23.5856 38.1157C26.0397 39.8092 28.5104 41.4026 31.5808 41.7247C36.0225 42.1966 39.6093 40.8863 42.0467 36.9276C42.5464 36.1114 42.9628 34.3958 44.1454 35.0232C45.4724 35.7339 44.0677 36.9442 43.7956 37.9325L43.7457 38.1046C43.0587 39.5234 42.0831 40.7831 40.8813 41.8032C39.6795 42.8233 38.2781 43.5814 36.7666 44.0288C33.0632 45.1393 29.2877 45.167 25.6622 43.4736C23.9406 42.6475 22.4678 41.3815 21.3925 39.8036C20.8318 39.0929 20.4431 38.2768 20.9095 37.3329Z" fill="#66320A"/>
<path d="M20.9096 37.3329C21.4204 40.5976 25.2292 43.5846 29.3212 44.1399C35.3398 44.956 40.1258 42.9517 43.7569 38.1046C43.7569 40.2922 42.0912 41.4359 40.681 42.6352C35.4785 47.077 26.2008 46.4163 21.6258 41.3527C20.582 40.2422 19.4327 38.9652 20.9096 37.3329Z" fill="#FFD791"/>
<path d="M9.33329 16.8675C9.33329 16.8675 9.28885 15.2352 12.1871 14.6022C15.0853 13.9693 23.3803 13.6528 25.468 13.6528C27.5556 13.6528 30.1318 13.9248 31.22 14.3746C32.4744 14.9908 33.8594 15.2937 35.2565 15.2574C36.8107 15.2118 38.3323 14.8009 39.6982 14.0581C41.2315 13.1774 42.9608 12.6945 44.7285 12.6534C46.905 12.609 51.6188 12.5201 53.1568 12.6534C54.6947 12.7866 56.0106 13.1087 56.4881 13.5584C56.9656 14.0081 57.3487 14.6688 57.171 15.1019C56.7846 15.6581 56.3102 16.1475 55.7663 16.551C55.4443 16.8231 55.2111 17.456 55.0834 19.0884C54.9635 20.7802 54.7223 22.4613 54.3616 24.1187C54.0895 25.0237 53.501 26.7115 52.1407 27.0946C49.9142 27.633 47.6299 27.896 45.3393 27.8775C42.4854 27.8775 40.1757 28.0607 39.3151 26.8392C38.4327 25.3956 37.7896 23.8188 37.4107 22.1698C37.233 21.176 36.7778 19.9934 36.1893 19.7713C35.8297 19.5766 35.4139 19.5119 35.0122 19.5881C34.7846 19.6769 34.3293 19.9045 34.0572 20.854C33.7851 21.8034 33.1522 25.6122 32.9468 26.2951C32.7413 26.978 32.7247 28.1495 31.2811 28.5604C28.6037 29.1502 25.872 29.4591 23.1305 29.4821C20.1878 29.4821 17.7393 29.6209 16.7399 29.0768C15.7405 28.5326 14.4746 28.2162 13.664 25.4512C13.0938 23.4229 12.7219 21.344 12.5536 19.2438C12.5036 18.6886 12.3703 18.2444 11.7374 18.2C11.1044 18.1556 9.51651 18.2722 9.33329 16.8675Z" fill="#010101"/>
<path d="M15.2075 19.4881C15.2117 20.231 15.2636 20.9728 15.363 21.709C15.4878 22.7552 15.751 23.7802 16.1458 24.7571C16.5104 25.5934 17.084 26.3219 17.8115 26.8725C18.6632 27.1804 19.5657 27.3236 20.471 27.2945C21.8035 27.3278 26.1842 27.2667 26.8449 27.2945C27.5056 27.3222 29.6543 27.3278 30.1762 26.7837C31.0218 26.0675 31.5799 25.0697 31.7475 23.9743C31.9251 22.4641 31.9862 19.2882 31.9862 18.6553C31.9862 18.0223 32.0473 17.5448 31.5365 17.1451C30.9063 16.6432 30.1211 16.3763 29.3156 16.39C28.3828 16.4233 21.5425 16.3567 20.0434 16.39C18.5444 16.4233 16.8732 16.39 16.2346 17.0229C15.8672 17.3119 15.5798 17.6902 15.4 18.1217C15.2202 18.5533 15.1539 19.0237 15.2075 19.4881Z" fill="#283035"/>
<path d="M38.9542 19.3438C38.9542 19.3438 39.1985 21.3092 39.4094 22.1865C39.6848 23.1823 40.1118 24.1299 40.6753 24.9959C41.0973 25.5511 41.2306 25.8121 42.341 25.9287C43.4514 26.0453 46.2275 26.1452 47.449 26.1119C48.6067 26.1176 49.7583 25.9453 50.8636 25.6011C51.6404 25.334 52.2872 24.7825 52.6737 24.0576C53.0753 23.0388 53.2642 21.9485 53.2289 20.854C53.2289 19.4382 53.1678 17.5227 53.1067 16.9286C53.0456 16.3345 52.1739 15.1463 50.5416 15.0852C48.162 15.04 45.7818 15.1309 43.4126 15.3573C42.11 15.5036 40.8371 15.8462 39.6371 16.3734C39.0763 16.712 38.6766 17.4782 38.9542 19.3438Z" fill="#283035"/>
<path d="M15.585 25.9564C15.585 25.9564 15.635 25.7288 15.7904 25.7288C15.9459 25.7288 16.1069 25.7288 16.379 26.1174C16.651 26.5061 16.8786 27.0835 17.3117 27.3C17.7904 27.5549 18.3309 27.6703 18.8719 27.6332C19.8713 27.6776 20.6875 27.5166 20.9595 27.6332C21.2316 27.7498 21.3648 28.3328 21.0705 28.355C20.7763 28.3772 18.622 28.3994 17.9669 28.355C17.3652 28.3612 16.7788 28.1657 16.3012 27.7997C15.9633 27.4751 15.7131 27.0701 15.5739 26.6227C15.5236 26.403 15.5274 26.1743 15.585 25.9564Z" fill="#5A6971"/>
<path d="M17.3118 23.0748C17.3413 23.0813 17.3719 23.0818 17.4016 23.0764C17.4314 23.0709 17.4598 23.0596 17.4851 23.0431C17.5104 23.0265 17.5322 23.0051 17.5491 22.9801C17.5661 22.955 17.5779 22.9268 17.5838 22.8972C17.6283 22.6695 17.5339 21.7867 17.5838 20.8317C17.6338 19.8768 17.6727 19.0883 18.2612 18.7052C18.8043 18.3278 19.3989 18.0305 20.0268 17.8225C20.3932 17.7503 20.843 17.617 21.1372 17.5726C21.4315 17.5282 21.6592 17.3672 21.6147 17.2561C21.5703 17.1451 20.6375 17.1395 20.0712 17.1395C19.2801 17.0839 18.486 17.0839 17.6949 17.1395C17.2896 17.2561 16.7455 17.0285 16.5178 17.7725C16.3379 18.5302 16.2761 19.3112 16.3346 20.0877C16.3568 20.6985 16.7677 23.0304 17.3118 23.0748Z" fill="#5A6971"/>
<path d="M20.4819 14.8298C20.4819 14.8298 20.4375 14.9964 20.9372 15.0686C21.4369 15.1408 29.1822 15.2851 30.176 15.3739C31.1699 15.4628 30.176 14.741 29.2266 14.5578C27.6749 14.2283 26.0979 14.0315 24.5128 13.9692C22.8805 13.9692 20.2987 14.1025 20.4819 14.8298Z" fill="#768996"/>
<path d="M28.4549 18.6831C28.7447 18.7643 29.0001 18.9378 29.1823 19.1773C29.4099 19.5437 29.5876 20.1767 30.0873 20.0878C30.587 19.999 30.859 20.0046 31.0422 19.3883C31.153 19.0987 31.1692 18.7815 31.0884 18.4822C31.0076 18.183 30.834 17.917 30.5925 17.7226C30.0373 17.2729 29.5431 16.9453 29.0934 17.0841C28.6437 17.2229 27.983 17.3173 27.983 17.7226C27.983 18.1279 27.7331 18.1834 28.4549 18.6831Z" fill="#768996"/>
<path d="M50.3862 17.1284C50.5767 17.1828 50.7444 17.2978 50.8636 17.456C51.0136 17.7003 51.1357 18.1167 51.4688 18.0556C51.8019 17.9946 51.9796 18.0057 52.0962 17.5948C52.1734 17.4027 52.1864 17.1909 52.1334 16.9908C52.0804 16.7907 51.9641 16.613 51.802 16.4844C51.4355 16.1846 51.1079 15.968 50.8081 16.0624C50.5083 16.1568 50.0863 16.2123 50.0863 16.4844C50.0863 16.7564 49.9031 16.7953 50.3862 17.1284Z" fill="#768996"/>
<path d="M40.5532 21.8367C41.0085 21.8367 40.8253 21.2371 40.8752 20.593C40.9252 19.949 41.0973 18.3722 41.7358 17.9557C42.4394 17.4887 43.201 17.1154 44.0011 16.8453C44.6785 16.6621 44.4953 16.49 44.0011 16.3956C43.0883 16.3374 42.1718 16.4122 41.2805 16.6177C40.9274 16.7342 40.6153 16.9503 40.3819 17.2398C40.1485 17.5294 40.0036 17.8801 39.9647 18.25C39.9202 19.044 39.9202 21.8201 40.5532 21.8367Z" fill="#5A6971"/>
<path d="M39.587 25.7288C39.6892 26.1429 39.9113 26.5176 40.2255 26.8059C40.4365 26.9858 40.6811 27.1221 40.9451 27.2069C41.2091 27.2917 41.4872 27.3234 41.7635 27.3001C42.8184 27.3501 43.4569 27.4944 43.6679 27.3001C43.8789 27.1058 43.7901 26.7171 43.5458 26.7171C42.9215 26.7759 42.2916 26.7233 41.6858 26.5616C41.2194 26.3229 40.5753 26.0508 40.4032 25.6011C40.2311 25.1514 40.0423 24.846 39.7702 24.9015C39.4982 24.957 39.4149 25.2624 39.587 25.7288Z" fill="#5A6971"/>
<path d="M45.4779 13.9693C45.4779 13.9693 45.3946 14.0915 46.0331 14.0915C46.6716 14.0915 50.275 13.9971 51.5853 14.0915C52.4761 14.1339 53.3639 14.2248 54.2448 14.3635C54.7278 14.4523 54.9666 14.5134 55.0277 14.3635C55.0887 14.2136 54.7889 13.8083 54.2115 13.6362C53.2601 13.3968 52.2908 13.2353 51.3133 13.1531C50.3472 13.0643 48.837 13.1531 47.9264 13.1531C47.1379 13.1903 46.3568 13.3227 45.6 13.5473C45.4501 13.6084 45.3002 13.6972 45.4779 13.9693Z" fill="#768996"/>
<path d="M36.1169 16.812C36.0645 17.0964 36.0645 17.3881 36.1169 17.6726C36.2058 18.0335 36.1169 18.5276 36.5666 18.5554C37.0164 18.5831 37.3384 18.5054 37.4272 18.0446C37.5196 17.4932 37.5196 16.9303 37.4272 16.3789C37.3384 16.1568 37.0497 15.7515 36.7832 15.8237C36.5167 15.8959 36.1169 15.9514 36.1169 16.812Z" fill="#5A6971"/>
</svg>
