<svg width="69" height="57" viewBox="0 0 69 57" fill="none" xmlns="http://www.w3.org/2000/svg">
<path d="M67.8263 21.0134C68.0018 21.1881 68.1399 21.3969 68.232 21.6268C68.3242 21.8567 68.3685 22.103 68.3623 22.3506V55.1268C68.3654 55.3734 68.3188 55.618 68.2252 55.8461C68.1315 56.0742 67.9929 56.2811 67.8175 56.4544C67.6421 56.6277 67.4335 56.7638 67.2043 56.8547C66.9751 56.9455 66.7299 56.9892 66.4834 56.9831H2.00867C1.48944 56.9885 0.987433 56.797 0.603721 56.4471C0.409213 56.2838 0.253959 56.0788 0.14945 55.8473C0.0449403 55.6158 -0.00613209 55.3638 6.25767e-06 55.1099V22.3506C-0.00412848 22.097 0.047834 21.8456 0.152205 21.6144C0.256576 21.3832 0.410761 21.178 0.603721 21.0134C0.987433 20.6635 1.48944 20.472 2.00867 20.4774H66.4834C66.732 20.47 66.9795 20.5138 67.2105 20.606C67.4415 20.6982 67.6511 20.8369 67.8263 21.0134Z" fill="#CC8F00"/>
<path d="M6.02037 34.9273H3.76344C3.50435 34.918 3.25633 34.8199 3.0611 34.6493C2.86586 34.4787 2.73532 34.2461 2.69141 33.9906V27.7051C2.69615 27.5718 2.72817 27.4409 2.78549 27.3204C2.84281 27.1999 2.92422 27.0925 3.02468 27.0047C3.12514 26.917 3.24253 26.8507 3.36959 26.8101C3.49666 26.7694 3.63069 26.7553 3.76344 26.7685H6.02037C6.15312 26.7553 6.28717 26.7694 6.41424 26.8101C6.5413 26.8507 6.65867 26.917 6.75913 27.0047C6.85959 27.0925 6.941 27.1999 6.99832 27.3204C7.05564 27.4409 7.08766 27.5718 7.09241 27.7051V33.9906C7.0485 34.2461 6.91795 34.4787 6.72271 34.6493C6.52748 34.8199 6.27946 34.918 6.02037 34.9273ZM6.02037 42.4203H3.76344C3.50435 42.411 3.25633 42.3129 3.0611 42.1423C2.86586 41.9717 2.73532 41.7391 2.69141 41.4836V39.3396C2.69615 39.2062 2.72817 39.0753 2.78549 38.9548C2.84281 38.8344 2.92422 38.7269 3.02468 38.6392C3.12514 38.5514 3.24253 38.4852 3.36959 38.4445C3.49666 38.4039 3.63069 38.3897 3.76344 38.4029H6.02037C6.15312 38.3897 6.28717 38.4039 6.41424 38.4445C6.5413 38.4852 6.65867 38.5514 6.75913 38.6392C6.85959 38.7269 6.941 38.8344 6.99832 38.9548C7.05564 39.0753 7.08766 39.2062 7.09241 39.3396V41.4836C7.0485 41.7391 6.91795 41.9717 6.72271 42.1423C6.52748 42.3129 6.27946 42.411 6.02037 42.4203ZM6.02037 49.6424H3.76344C3.50435 49.6332 3.25633 49.5351 3.0611 49.3645C2.86586 49.1939 2.73532 48.9613 2.69141 48.7058V46.5674C2.73532 46.3118 2.86586 46.0793 3.0611 45.9087C3.25633 45.7381 3.50435 45.64 3.76344 45.6307H6.02037C6.27946 45.64 6.52748 45.7381 6.72271 45.9087C6.91795 46.0793 7.0485 46.3118 7.09241 46.5674V48.7058C7.0485 48.9613 6.91795 49.1939 6.72271 49.3645C6.52748 49.5351 6.27946 49.6332 6.02037 49.6424ZM12.3172 34.9273H9.90793C9.28164 34.837 8.97131 34.5267 8.97131 33.9906V27.7051C8.95224 27.5777 8.96332 27.4476 9.00364 27.3253C9.04397 27.2029 9.11242 27.0918 9.2035 27.0007C9.29459 26.9096 9.40576 26.8411 9.5281 26.8008C9.65044 26.7605 9.78054 26.7494 9.90793 26.7685H12.3172C12.8476 26.7685 13.1635 27.0788 13.2482 27.7051V33.9906C13.2258 34.2305 13.1207 34.4552 12.9508 34.6261C12.7809 34.7969 12.557 34.9034 12.3172 34.9273ZM12.3172 42.4203H9.90793C9.28164 42.33 8.97131 42.0197 8.97131 41.4836V39.3396C8.95346 39.2124 8.96538 39.0828 9.00614 38.961C9.0469 38.8393 9.11539 38.7286 9.20619 38.6378C9.29699 38.547 9.40763 38.4785 9.52941 38.4378C9.65118 38.397 9.78076 38.3851 9.90793 38.4029H12.3172C12.8476 38.4029 13.1635 38.7189 13.2482 39.3396V41.4836C13.2258 41.7235 13.1207 41.9482 12.9508 42.1191C12.7809 42.2899 12.557 42.3964 12.3172 42.4203ZM12.3172 49.6424H9.90793C9.28164 49.5521 8.97131 49.2418 8.97131 48.7058V46.5674C8.97131 46.0313 9.28164 45.721 9.90793 45.6307H12.3172C12.557 45.6546 12.7809 45.7611 12.9508 45.9319C13.1207 46.1028 13.2258 46.3275 13.2482 46.5674V48.7058C13.227 48.9467 13.1225 49.1727 12.9525 49.3447C12.7825 49.5167 12.5578 49.624 12.3172 49.6481V49.6424ZM59.9383 33.9906V27.7051C59.9336 27.5718 59.9016 27.4409 59.8443 27.3204C59.7869 27.1999 59.7055 27.0925 59.6051 27.0047C59.5046 26.917 59.3872 26.8507 59.2602 26.8101C59.1331 26.7694 58.9991 26.7553 58.8663 26.7685H56.6094C56.4767 26.7544 56.3426 26.768 56.2155 26.8083C56.0884 26.8487 55.971 26.915 55.8708 27.003C55.7706 27.091 55.6898 27.1988 55.6333 27.3197C55.5769 27.4405 55.5461 27.5718 55.543 27.7051V33.9906C55.5805 34.248 55.7084 34.4836 55.9038 34.6552C56.0992 34.8268 56.3493 34.9233 56.6094 34.9273H58.8663C59.1254 34.918 59.3734 34.8199 59.5686 34.6493C59.7639 34.4787 59.8944 34.2461 59.9383 33.9906ZM58.8663 42.4203H56.6094C56.3493 42.4163 56.0992 42.3198 55.9038 42.1482C55.7084 41.9766 55.5805 41.741 55.543 41.4836V39.3396C55.547 39.2065 55.5783 39.0757 55.635 38.9552C55.6917 38.8348 55.7726 38.7273 55.8726 38.6395C55.9726 38.5516 56.0896 38.4853 56.2164 38.4446C56.3431 38.4039 56.4769 38.3897 56.6094 38.4029H58.8663C58.9991 38.3897 59.1331 38.4039 59.2602 38.4445C59.3872 38.4852 59.5046 38.5514 59.6051 38.6392C59.7055 38.7269 59.7869 38.8344 59.8443 38.9548C59.9016 39.0753 59.9336 39.2062 59.9383 39.3396V41.4836C59.8944 41.7391 59.7639 41.9717 59.5686 42.1423C59.3734 42.3129 59.1254 42.411 58.8663 42.4203ZM58.8663 49.6424H56.6094C56.3493 49.6384 56.0992 49.542 55.9038 49.3704C55.7084 49.1987 55.5805 48.9632 55.543 48.7058V46.5674C55.5805 46.31 55.7084 46.0744 55.9038 45.9028C56.0992 45.7312 56.3493 45.6347 56.6094 45.6307H58.8663C59.1254 45.64 59.3734 45.7381 59.5686 45.9087C59.7639 46.0793 59.8944 46.3118 59.9383 46.5674V48.7058C59.8944 48.9613 59.7639 49.1939 59.5686 49.3645C59.3734 49.5351 59.1254 49.6332 58.8663 49.6424ZM65.1575 34.9273H62.7482C62.1219 34.837 61.8116 34.5267 61.8116 33.9906V27.7051C61.7925 27.5777 61.8036 27.4476 61.8439 27.3253C61.8843 27.2029 61.9527 27.0918 62.0438 27.0007C62.1349 26.9096 62.2461 26.8411 62.3684 26.8008C62.4907 26.7605 62.6208 26.7494 62.7482 26.7685H65.1575C65.6879 26.7685 66.0038 27.0788 66.0941 27.7051V33.9906C66.0694 34.2306 65.9628 34.4548 65.7922 34.6254C65.6216 34.796 65.3975 34.9026 65.1575 34.9273ZM65.1575 42.4203H62.7482C62.1219 42.33 61.8116 42.0197 61.8116 41.4836V39.3396C61.7937 39.2124 61.8057 39.0828 61.8464 38.961C61.8872 38.8393 61.9557 38.7286 62.0465 38.6378C62.1373 38.547 62.2479 38.4785 62.3697 38.4378C62.4915 38.397 62.621 38.3851 62.7482 38.4029H65.1575C65.6879 38.4029 66.0038 38.7189 66.0941 39.3396V41.4836C66.0694 41.7236 65.9628 41.9478 65.7922 42.1184C65.6216 42.289 65.3975 42.3956 65.1575 42.4203ZM65.1575 49.6424H62.7482C62.1219 49.5521 61.8116 49.2418 61.8116 48.7058V46.5674C61.8116 46.0313 62.1219 45.721 62.7482 45.6307H65.1575C65.3975 45.6554 65.6216 45.762 65.7922 45.9326C65.9628 46.1032 66.0694 46.3274 66.0941 46.5674V48.7058C66.0694 48.9458 65.9628 49.1699 65.7922 49.3405C65.6216 49.5111 65.3975 49.6177 65.1575 49.6424Z" fill="#66320A"/>
<path d="M52.8403 3.40929V55.5274C52.75 56.4188 52.4397 56.9097 51.9037 57H17.5251C16.8988 56.9097 16.5433 56.4358 16.453 55.5274V3.40929C16.5433 2.5178 16.8988 2.02692 17.5251 1.93665H51.9037C52.4397 2.02692 52.75 2.50088 52.8403 3.40929Z" fill="#FFBC1F"/>
<path d="M24.2168 29.8436C24.1265 30.4699 23.8162 30.7802 23.2801 30.7802H20.3349C20.2075 30.7993 20.0774 30.7882 19.955 30.7479C19.8327 30.7076 19.7215 30.6391 19.6304 30.548C19.5394 30.4569 19.4709 30.3458 19.4306 30.2234C19.3903 30.1011 19.3792 29.971 19.3982 29.8436V22.5086C19.3804 22.3814 19.3923 22.2519 19.4331 22.1301C19.4738 22.0083 19.5423 21.8977 19.6331 21.8069C19.7239 21.7161 19.8346 21.6476 19.9563 21.6068C20.0781 21.5661 20.2077 21.5541 20.3349 21.572H23.2801C23.8162 21.572 24.1265 21.8879 24.2168 22.5086V29.8436ZM23.2801 38.6738C23.8162 38.6738 24.1265 38.3635 24.2168 37.7372V35.5988C24.1942 35.358 24.0882 35.1327 23.9172 34.9617C23.7462 34.7907 23.5209 34.6848 23.2801 34.6622H20.3349C19.7086 34.7468 19.3982 35.0628 19.3982 35.5988V37.7372C19.3792 37.8646 19.3903 37.9947 19.4306 38.117C19.4709 38.2394 19.5394 38.3505 19.6304 38.4416C19.7215 38.5327 19.8327 38.6012 19.955 38.6415C20.0774 38.6818 20.2075 38.6929 20.3349 38.6738H23.2801ZM23.2801 46.432C23.8162 46.432 24.1265 46.1217 24.2168 45.4954V43.357C24.1931 43.1166 24.0869 42.8918 23.9161 42.7211C23.7453 42.5503 23.5205 42.444 23.2801 42.4203H20.3349C19.7086 42.5106 19.3982 42.8209 19.3982 43.357V45.4954C19.3792 45.6228 19.3903 45.7529 19.4306 45.8752C19.4709 45.9976 19.5394 46.1087 19.6304 46.1998C19.7215 46.2909 19.8327 46.3594 19.955 46.3997C20.0774 46.44 20.2075 46.4511 20.3349 46.432H23.2801ZM23.2801 53.5244C23.5201 53.4997 23.7443 53.3931 23.9149 53.2225C24.0855 53.0519 24.1921 52.8278 24.2168 52.5878V50.4437C24.1931 50.2033 24.0869 49.9786 23.9161 49.8078C23.7453 49.637 23.5205 49.5307 23.2801 49.5071H20.3349C19.7086 49.5974 19.3982 49.9077 19.3982 50.4437V52.5878C19.3982 53.1182 19.7086 53.4341 20.3349 53.5244H23.2801ZM30.2371 30.7802C30.3696 30.7935 30.5033 30.7793 30.6301 30.7386C30.7569 30.6979 30.8739 30.6316 30.9739 30.5437C31.0739 30.4559 31.1548 30.3484 31.2115 30.2279C31.2682 30.1075 31.2995 29.9767 31.3035 29.8436V22.5086C31.2987 22.3758 31.2669 22.2454 31.2099 22.1253C31.1529 22.0053 31.072 21.8981 30.9722 21.8105C30.8723 21.7228 30.7557 21.6564 30.6293 21.6154C30.5029 21.5744 30.3694 21.5596 30.2371 21.572H27.2918C26.7276 21.572 26.4455 21.8879 26.3552 22.5086V29.8436C26.4455 30.4699 26.7558 30.7802 27.2918 30.7802H30.2371ZM30.2371 38.6795C30.3696 38.6927 30.5033 38.6785 30.6301 38.6378C30.7569 38.5971 30.8739 38.5308 30.9739 38.443C31.0739 38.3551 31.1548 38.2476 31.2115 38.1272C31.2682 38.0067 31.2995 37.8759 31.3035 37.7429V35.5988C31.2598 35.3442 31.1301 35.1123 30.936 34.9418C30.7419 34.7714 30.4952 34.6726 30.2371 34.6622H27.2918C27.0511 34.6848 26.8257 34.7907 26.6547 34.9617C26.4837 35.1327 26.3778 35.358 26.3552 35.5988V37.7372C26.4455 38.3635 26.7558 38.6738 27.2918 38.6738L30.2371 38.6795ZM41.8716 30.7802C42.4076 30.7802 42.7179 30.4699 42.8082 29.8436V22.5086C42.7179 21.8879 42.4076 21.572 41.8716 21.572H38.9319C38.7992 21.5588 38.6651 21.5729 38.5381 21.6136C38.411 21.6542 38.2936 21.7205 38.1932 21.8082C38.0927 21.896 38.0113 22.0034 37.954 22.1239C37.8966 22.2444 37.8646 22.3753 37.8599 22.5086V29.8436C37.8646 29.9769 37.8966 30.1079 37.954 30.2283C38.0113 30.3488 38.0927 30.4562 38.1932 30.544C38.2936 30.6318 38.411 30.698 38.5381 30.7386C38.6651 30.7793 38.7992 30.7934 38.9319 30.7802H41.8716ZM41.8716 38.6795C42.4076 38.6795 42.7179 38.3692 42.8082 37.7429V35.5988C42.7856 35.358 42.6797 35.1327 42.5087 34.9617C42.3377 34.7907 42.1123 34.6848 41.8716 34.6622H38.9319C38.6728 34.6714 38.4248 34.7695 38.2296 34.9401C38.0344 35.1107 37.9038 35.3433 37.8599 35.5988V37.7372C37.8646 37.8705 37.8966 38.0015 37.954 38.1219C38.0113 38.2424 38.0927 38.3498 38.1932 38.4376C38.2936 38.5254 38.411 38.5916 38.5381 38.6322C38.6651 38.6729 38.7992 38.687 38.9319 38.6738L41.8716 38.6795ZM48.8285 30.7802C48.9559 30.7993 49.086 30.7882 49.2084 30.7479C49.3307 30.7076 49.4419 30.6391 49.533 30.548C49.6241 30.4569 49.6925 30.3458 49.7328 30.2234C49.7732 30.1011 49.7842 29.971 49.7652 29.8436V22.5086C49.783 22.3814 49.7711 22.2519 49.7303 22.1301C49.6896 22.0083 49.6211 21.8977 49.5303 21.8069C49.4395 21.7161 49.3288 21.6476 49.2071 21.6068C49.0853 21.5661 48.9557 21.5541 48.8285 21.572H45.8889C45.3529 21.572 45.0369 21.8879 44.9523 22.5086V29.8436C45.0369 30.4699 45.3529 30.7802 45.8889 30.7802H48.8285ZM24.2168 16.4995C24.1265 17.1258 23.8162 17.4362 23.2801 17.4362H20.3349C20.2075 17.4552 20.0774 17.4441 19.955 17.4038C19.8327 17.3635 19.7215 17.295 19.6304 17.2039C19.5394 17.1129 19.4709 17.0017 19.4306 16.8794C19.3903 16.757 19.3792 16.6269 19.3982 16.4995V9.16452C19.3804 9.03735 19.3923 8.90778 19.4331 8.786C19.4738 8.66423 19.5423 8.55359 19.6331 8.46278C19.7239 8.37198 19.8346 8.3035 19.9563 8.26274C20.0781 8.22198 20.2077 8.21005 20.3349 8.22789H23.2801C23.8162 8.22789 24.1265 8.54387 24.2168 9.16452V16.4995ZM30.2371 17.4362C30.3696 17.4494 30.5033 17.4352 30.6301 17.3945C30.7569 17.3538 30.8739 17.2875 30.9739 17.1996C31.0739 17.1118 31.1548 17.0043 31.2115 16.8839C31.2682 16.7634 31.2995 16.6326 31.3035 16.4995V9.16452C31.2987 9.03173 31.2669 8.90131 31.2099 8.78126C31.1529 8.66121 31.072 8.55406 30.9722 8.46637C30.8723 8.37868 30.7557 8.3123 30.6293 8.27129C30.5029 8.23029 30.3694 8.21552 30.2371 8.22789H27.2918C26.7276 8.22789 26.4455 8.54387 26.3552 9.16452V16.4995C26.4455 17.1258 26.7558 17.4362 27.2918 17.4362H30.2371ZM41.8716 17.4362C42.4076 17.4362 42.7179 17.1258 42.8082 16.4995V9.16452C42.7179 8.54387 42.4076 8.22789 41.8716 8.22789H38.9319C38.7992 8.2147 38.6651 8.22886 38.5381 8.2695C38.411 8.31013 38.2936 8.37638 38.1932 8.46415C38.0927 8.55192 38.0113 8.65935 37.954 8.77981C37.8966 8.90027 37.8646 9.0312 37.8599 9.16452V16.4995C37.8646 16.6329 37.8966 16.7638 37.954 16.8842C38.0113 17.0047 38.0927 17.1121 38.1932 17.1999C38.2936 17.2877 38.411 17.3539 38.5381 17.3946C38.6651 17.4352 38.7992 17.4494 38.9319 17.4362H41.8716ZM48.8285 17.4362C48.9559 17.4552 49.086 17.4441 49.2084 17.4038C49.3307 17.3635 49.4419 17.295 49.533 17.2039C49.6241 17.1129 49.6925 17.0017 49.7328 16.8794C49.7732 16.757 49.7842 16.6269 49.7652 16.4995V9.16452C49.783 9.03735 49.7711 8.90778 49.7303 8.786C49.6896 8.66423 49.6211 8.55359 49.5303 8.46278C49.4395 8.37198 49.3288 8.3035 49.2071 8.26274C49.0853 8.22198 48.9557 8.21005 48.8285 8.22789H45.8889C45.3529 8.22789 45.0369 8.54387 44.9523 9.16452V16.4995C45.0369 17.1258 45.3529 17.4362 45.8889 17.4362H48.8285ZM48.8285 38.6738C48.9559 38.6929 49.086 38.6818 49.2084 38.6415C49.3307 38.6012 49.4419 38.5327 49.533 38.4416C49.6241 38.3505 49.6925 38.2394 49.7328 38.117C49.7732 37.9947 49.7842 37.8646 49.7652 37.7372V35.5988C49.7652 35.0628 49.4548 34.7468 48.8285 34.6622H45.8889C45.6481 34.6848 45.4228 34.7907 45.2518 34.9617C45.0808 35.1327 44.9749 35.358 44.9523 35.5988V37.7372C45.0369 38.3635 45.3529 38.6738 45.8889 38.6738H48.8285ZM48.8285 46.432C48.9559 46.4511 49.086 46.44 49.2084 46.3997C49.3307 46.3594 49.4419 46.2909 49.533 46.1998C49.6241 46.1087 49.6925 45.9976 49.7328 45.8752C49.7732 45.7529 49.7842 45.6228 49.7652 45.4954V43.357C49.7652 42.8209 49.4548 42.5106 48.8285 42.4203H45.8889C45.6481 42.4429 45.4228 42.5489 45.2518 42.7199C45.0808 42.8909 44.9749 43.1162 44.9523 43.357V45.4954C45.0369 46.1217 45.3529 46.432 45.8889 46.432H48.8285ZM48.8285 53.5244C49.4548 53.4341 49.7652 53.1182 49.7652 52.5878V50.4437C49.7652 49.9077 49.4548 49.5974 48.8285 49.5071H45.8889C45.6481 49.5297 45.4228 49.6356 45.2518 49.8066C45.0808 49.9776 44.9749 50.2029 44.9523 50.4437V52.5878C44.9759 52.8282 45.0822 53.0529 45.253 53.2237C45.4238 53.3945 45.6485 53.5008 45.8889 53.5244H48.8285Z" fill="#CC8F00"/>
<path d="M41.6064 42.6854H27.6925V57H41.6064V42.6854Z" fill="#E0E9EF"/>
<path d="M52.8403 4.61112H16.5884C16.3283 4.60713 16.0782 4.51069 15.8828 4.33907C15.6874 4.16744 15.5595 3.93185 15.522 3.67449V1.93666C15.526 1.8036 15.5573 1.67278 15.614 1.55233C15.6707 1.43189 15.7516 1.3244 15.8516 1.23655C15.9516 1.14871 16.0686 1.08237 16.1954 1.04168C16.3221 1.00099 16.4559 0.986817 16.5884 1.00003H52.8403C53.3763 1.00003 53.6866 1.31601 53.7769 1.93666V3.67449C53.7543 3.91526 53.6483 4.14059 53.4773 4.31159C53.3064 4.48258 53.081 4.58852 52.8403 4.61112ZM41.7418 40.9476H27.5514C26.9307 41.0379 26.6148 41.3483 26.6148 41.8843V43.4867C26.5969 43.6139 26.6089 43.7434 26.6496 43.8652C26.6904 43.987 26.7589 44.0976 26.8497 44.1884C26.9405 44.2792 27.0511 44.3477 27.1729 44.3885C27.2946 44.4292 27.4242 44.4412 27.5514 44.4233H34.2432V56.9831H35.0444V44.4233H41.7362C41.8687 44.4365 42.0024 44.4224 42.1292 44.3817C42.2559 44.341 42.3729 44.2746 42.473 44.1868C42.573 44.0989 42.6539 43.9915 42.7106 43.871C42.7673 43.7506 42.7986 43.6198 42.8026 43.4867V41.8843C42.7589 41.6297 42.6292 41.3978 42.4351 41.2273C42.241 41.0569 41.9943 40.9581 41.7362 40.9476H41.7418Z" fill="#1E325C"/>
</svg>
