<svg width="52" height="53" viewBox="0 0 52 53" fill="none" xmlns="http://www.w3.org/2000/svg">
<g clip-path="url(#clip0_180_69720)">
<path d="M48.9264 0.54834H3.07361C1.3761 0.54834 0 1.92444 0 3.62195V49.4747C0 51.1722 1.3761 52.5483 3.07361 52.5483H48.9264C50.6239 52.5483 52 51.1722 52 49.4747V3.62195C52 1.92444 50.6239 0.54834 48.9264 0.54834Z" fill="#FFBC1F"/>
<path fill-rule="evenodd" clip-rule="evenodd" d="M17.6343 11.8828C18.2247 12.3523 18.3237 13.2128 17.8553 13.8047L8.25733 25.9327L17.8555 38.0665C18.3237 38.6585 18.2246 39.519 17.634 39.9884C17.0435 40.4578 16.1851 40.3584 15.7169 39.7665L5.44625 26.7825C5.05235 26.2845 5.05243 25.5802 5.44644 25.0823L15.717 12.1043C16.1855 11.5124 17.0438 11.4132 17.6343 11.8828Z" fill="#1B1D22"/>
<path fill-rule="evenodd" clip-rule="evenodd" d="M34.3657 11.8828C34.9562 11.4132 35.8145 11.5124 36.283 12.1043L46.5536 25.0823C46.9476 25.5802 46.9476 26.2845 46.5537 26.7825L36.2831 39.7665C35.8149 40.3584 34.9565 40.4578 34.3659 39.9884C33.7754 39.519 33.6763 38.6585 34.1445 38.0665L43.7427 25.9327L34.1447 13.8047C33.6763 13.2128 33.7753 12.3523 34.3657 11.8828Z" fill="#1B1D22"/>
<rect x="28.4277" y="10.9683" width="2.62587" height="30.0831" rx="1.31293" transform="rotate(15 28.4277 10.9683)" fill="#1B1D22"/>
</g>
<defs>
<clipPath id="clip0_180_69720">
<rect width="52" height="52.2241" fill="white" transform="translate(0 0.476074)"/>
</clipPath>
</defs>
</svg>
