<svg width="48" height="47" viewBox="0 0 48 47" fill="none" xmlns="http://www.w3.org/2000/svg">
<g clip-path="url(#clip0_375_107997)">
<path d="M0.540675 25.7006L1.256 28.2961L4.47769 31.195L9.18541 31.4366L14.6694 34.6389H19.1387L24.6227 37.594L32.4911 37.3524L45.0118 34.8805L46.9802 21.959C46.9802 21.959 46.3204 15.1331 45.9655 13.8073C45.6106 12.4814 44.6513 10.9983 44.4738 9.31286C44.2964 7.62746 44.4738 2.43079 40.5923 1.3409C36.7108 0.251004 35.1084 1.29595 33.5003 1.80158C31.8706 2.28192 30.1395 2.28192 28.5098 1.80158C26.5578 1.30129 24.495 1.49976 22.6709 2.36338C21.0074 3.26788 19.0334 4.66114 16.9484 4.47575C14.8635 4.29035 12.2962 4.90272 10.9875 5.9252C9.67891 6.94768 9.61235 7.49824 7.28899 7.49824C4.96562 7.49824 2.1044 9.97579 1.2671 13.2342C0.429807 16.4927 0.185794 23.7062 0.540675 25.7006Z" fill="#CC8F00"/>
<path d="M9.34623 15.2345C9.34623 15.2345 9.12443 20.2907 9.00799 22.257C8.89154 24.2233 8.94698 26.1222 6.08575 25.7008C3.22452 25.2795 2.33177 23.7064 2.27078 20.7176C2.20978 17.7289 2.03237 11.5041 4.65516 9.51532C6.05805 8.39172 6.47394 8.18385 7.5774 8.15576C8.68086 8.12767 9.96176 8.33554 10.9765 7.43104C11.9912 6.52654 13.5549 4.98159 15.662 5.10518C17.7691 5.22878 17.9299 5.82991 19.5435 5.62766C21.1571 5.42541 24.2346 2.25685 26.1975 2.25685C28.1605 2.25685 29.458 2.57708 30.373 3.09955C31.2879 3.62203 32.2805 4.22316 33.4338 3.90855C34.5872 3.59394 35.8182 1.57145 37.3153 1.45347C38.8125 1.33549 40.6423 1.53213 41.6848 2.6164C42.7273 3.70068 43.5535 4.99282 43.5535 6.12204C43.5535 7.25126 43.4759 10.2681 43.5535 11.4367C43.6311 12.6052 44.2688 18.7064 44.4462 20.639C44.6237 22.5716 44.9453 27.6615 43.8917 29.4761C42.8382 31.2908 41.9066 32.0941 39.3226 31.9312C36.7387 31.7683 34.2379 31.2851 33.9218 28.6278C33.6057 25.9705 32.9237 19.5322 32.8849 16.83C32.8516 14.212 32.8849 12.858 32.8849 12.858L31.676 13.0097C31.676 13.0097 31.7536 18.3693 31.798 21.1053C31.8424 23.8413 31.7981 28.5154 31.7149 29.5323C31.6317 30.5492 30.8831 31.302 29.7297 31.5885C27.6666 31.9033 25.5695 31.9166 23.5027 31.6278C22.061 31.302 21.1073 30.1391 20.83 28.257C20.5528 26.375 20.1923 15.9367 20.5915 13.7625C20.0628 13.9961 19.5017 14.1458 18.928 14.2064C18.928 14.2064 19.1665 21.6109 19.0833 23.4255C19.0001 25.2401 19.2441 28.4817 17.453 28.4817C15.662 28.4817 12.7287 28.3188 11.653 26.5491C10.7273 25.0306 10.2448 23.2776 10.2612 21.4929C10.1835 19.5997 10.422 14.5659 10.422 14.5659C10.1919 14.5117 9.95004 14.5514 9.7487 14.6766C9.54737 14.8017 9.40278 15.0021 9.34623 15.2345Z" fill="#FFBC1F"/>
<path d="M2.85282 30.8693C0.717992 29.1164 0.723513 27.7513 0.540527 25.7007C0.540527 25.7007 3.52375 32.2794 9.41256 29.1389C9.41256 29.1389 11.4421 35.1783 18.889 32.8243C18.889 32.8243 24.6725 38.9255 32.064 33.3861C32.064 33.3861 40.7086 35.7401 44.762 32.4198C43.8599 33.9849 42.5858 35.2966 41.0556 36.2356C39.5255 37.1746 37.7879 37.7111 36.001 37.7963C29.6796 38.2176 24.6115 39.0041 24.6115 39.0041L23.5413 39.6053C23.5413 39.6053 20.3418 38.6558 19.1052 36.1614C18.6727 36.7232 15.6951 37.1951 14.1647 36.9929C12.6343 36.7906 11.2313 35.7738 10.1667 34.8974C9.46823 34.2697 8.90237 33.5053 8.50317 32.6502C8.50317 32.6502 5.01538 32.6445 2.85282 30.8693Z" fill="#A37200"/>
<path d="M29.8408 36.2795C29.8408 36.2795 25.2384 39.0885 25.1829 40.2514C25.1275 41.4143 26.1921 44.184 28.3824 44.2402C30.5727 44.2964 36.6057 43.5941 39.1897 42.9537C41.7736 42.3132 44.8844 41.0604 45.9213 39.5829C45.9213 39.5829 44.6737 43.5885 38.3524 44.6784C32.031 45.7683 28.0996 46.2852 25.998 44.9986C23.8965 43.7121 23.3309 40.8525 23.8521 38.4761C24.3734 36.0997 29.8408 36.2795 29.8408 36.2795Z" fill="#CC8F00"/>
<path d="M25.7983 37.1897C25.7983 37.1897 27.1069 36.2403 30.6835 35.9593C34.26 35.6784 38.9123 35.8751 40.8974 35.0717C42.8825 34.2683 44.474 32.2627 45.1505 29.1503C45.827 26.0379 46.0044 16.5323 45.4998 12.5322C46.87 15.6767 47.589 19.0726 47.6124 22.5098C47.6512 28.229 47.4627 38.0998 46.4202 39.5998C45.3778 41.0998 43.9971 42.2796 40.9363 43.2066C37.8754 44.1336 30.9552 44.9369 29.5856 45.0212C29.418 45.0495 29.2464 45.0384 29.0837 44.9888C28.9211 44.9393 28.7719 44.8525 28.6476 44.7353C28.5233 44.618 28.4272 44.4734 28.3668 44.3126C28.3064 44.1518 28.2833 43.979 28.2991 43.8077L25.7983 37.1897Z" fill="#FFBC1F"/>
<path d="M24.3289 41.9031C24.3289 41.9031 23.7079 38.6053 25.1219 37.594C26.5359 36.5828 27.4674 36.6783 29.4137 36.7513C31.36 36.8244 33.2176 37.2513 34.2601 37.9086C35.3025 38.566 35.6297 39.9705 35.4301 41.4424C35.2526 42.7289 33.8109 44.5997 31.4321 44.8862C29.0533 45.1727 26.7909 44.9649 25.998 44.4424C25.5533 44.1687 25.1733 43.7994 24.8849 43.3607C24.5965 42.9219 24.4067 42.4243 24.3289 41.9031Z" fill="#FFD470"/>
</g>
<defs>
<clipPath id="clip0_375_107997">
<rect width="48" height="46" fill="white" transform="translate(0 0.354004)"/>
</clipPath>
</defs>
</svg>
