<svg width="51" height="51" viewBox="0 0 51 51" fill="none" xmlns="http://www.w3.org/2000/svg">
<path d="M0 25.4919C0 25.4919 0.855358 15.2509 6.26901 10.0979C11.6827 4.94485 16.8648 1.51951 27.8129 0.848459C38.7609 0.177412 45.5834 11.2096 46.645 13.1727C47.7066 15.1357 50.8511 20.9698 50.8511 25.4919C50.8511 30.014 50.8813 39.5138 44.406 43.7203C37.9308 47.9269 31.6971 50.4007 27.2243 50.1654C22.7515 49.93 11.4512 48.9936 6.38975 41.9626C1.32829 34.9316 0 32.6831 0 25.4919Z" fill="#FFBC1F"/>
<path d="M14.4548 17.9251C14.4548 15.8018 15.7982 14.0841 17.4736 14.0841C19.149 14.0841 20.4924 15.8018 20.4924 17.9251C20.4924 20.0484 19.154 21.7661 17.4736 21.7661C15.7932 21.7661 14.4548 20.0484 14.4548 17.9251Z" fill="#FFD470"/>
<path d="M36.995 21.7711C38.6511 21.7711 39.9936 20.0514 39.9936 17.9301C39.9936 15.8088 38.6511 14.0891 36.995 14.0891C35.3389 14.0891 33.9963 15.8088 33.9963 17.9301C33.9963 20.0514 35.3389 21.7711 36.995 21.7711Z" fill="#FFD470"/>
<path d="M26.3236 6.16677C27.4692 5.83833 28.6687 5.73827 29.8533 5.87233C31.0379 6.00639 32.1842 6.37193 33.2265 6.94798C33.2857 6.9818 33.3543 6.99536 33.422 6.98662C33.4897 6.97787 33.5526 6.9473 33.6011 6.89957C33.6496 6.85184 33.6811 6.78958 33.6907 6.72235C33.7003 6.65512 33.6874 6.58662 33.6542 6.52733C32.6932 4.76458 30.1877 1.55958 26.0268 5.63594C25.9729 5.68269 25.9367 5.74646 25.9243 5.81658C25.912 5.8867 25.9243 5.9589 25.959 6.02109C25.9938 6.08329 26.049 6.1317 26.1154 6.15822C26.1818 6.18474 26.2553 6.18776 26.3236 6.16677Z" fill="#FFD470"/>
<path d="M16.1303 45.5031C13.4788 42.7789 9.94688 39.3536 10.3041 27.5752C10.6613 15.7968 13.4838 11.6353 15.5114 8.51044C16.6133 6.80278 20.4371 3.29231 25.1363 1.08386C15.9894 2.12048 11.2198 5.37556 6.26901 10.0979C0.855358 15.251 0 25.4919 0 25.4919C0 32.6831 1.32829 34.9317 6.38975 41.9626C11.4512 48.9936 22.7515 49.93 27.2243 50.1654C27.2243 50.1604 18.7767 48.2274 16.1303 45.5031Z" fill="#CC8F00"/>
<path d="M27.5461 41.4468C30.5666 41.4468 33.0151 38.6308 33.0151 35.157C33.0151 31.6832 30.5666 28.8672 27.5461 28.8672C24.5257 28.8672 22.0771 31.6832 22.0771 35.157C22.0771 38.6308 24.5257 41.4468 27.5461 41.4468Z" fill="#6F370B"/>
<path d="M23.2495 37.8412C23.2495 37.8412 24.2859 41.0662 28.5223 40.8008C28.5223 40.8008 29.4883 38.5373 27.0129 37.1751C26.4033 36.8425 25.6978 36.7271 25.0133 36.8483C24.3288 36.9694 23.7065 37.3197 23.2495 37.8412Z" fill="#D24B4E"/>
<path d="M44.5369 11.2648C42.786 8.38528 38.9472 6.87793 35.6416 7.21846C34.5046 7.33865 34.097 9.01627 35.2492 8.89609C37.8906 8.62566 42.1018 9.54208 43.5156 11.8757C44.1143 12.8573 45.1205 12.2563 44.5369 11.2648Z" fill="#7A5600"/>
<path d="M8.45264 12.9173C10.113 9.69724 14.1128 7.79928 17.68 7.90945C18.9076 7.95453 19.4661 9.71727 18.2284 9.67721C15.3757 9.58206 10.9381 10.8791 9.59475 13.4831C9.02621 14.5698 7.88913 14.019 8.45264 12.9173Z" fill="#7A5600"/>
<path d="M14.8374 16.9385C14.8374 14.8152 16.1808 13.0975 17.8562 13.0975C19.5316 13.0975 20.8749 14.8152 20.8749 16.9385C20.8749 19.0618 19.5316 20.7795 17.8562 20.7795C16.1808 20.7795 14.8374 19.0769 14.8374 16.9385Z" fill="#6F370B"/>
<path d="M34.3787 16.9385C34.3787 14.8152 35.717 13.0975 37.3722 13.0975C39.0275 13.0975 40.391 14.8152 40.391 16.9385C40.391 19.0618 39.0477 20.7795 37.3722 20.7795C35.6968 20.7795 34.3787 19.0769 34.3787 16.9385Z" fill="#6F370B"/>
</svg>
