<svg width="80" height="51" viewBox="0 0 80 51" fill="none" xmlns="http://www.w3.org/2000/svg">
<path d="M66.8751 26.6516L65.5658 6.97321L56.6607 12.5227C52.2947 11.7816 51.0882 11.7871 47.7069 10.08C45.6943 9.06455 43.0812 9.7452 41.8152 10.4698C39.8892 8.36195 27.3863 11.4249 26.0013 12.0616C22.2142 11.0242 16.658 6.57251 16.658 6.57251L14.759 28.8417L17.291 29.4345C17.5507 30.214 18.1296 32.0473 18.1296 32.0473C15.7707 35.1377 18.6002 38.6342 21.2187 37.4815C20.0718 40.495 23.1177 43.3274 25.5469 41.4062C25.1898 44.2331 28.1654 46.275 30.2916 44.3099C29.3178 47.6967 33.094 50.1942 35.2906 47.4387C36.638 48.4313 38.103 49.2482 39.6512 49.8704V49.8704C41.8747 50.8474 44.3688 48.6518 43.9793 45.9237C46.6032 48.9866 50.3957 45.9896 49.5517 42.6303C52.4678 44.8863 56.0115 41.0714 54.1071 37.7175C57.3208 39.5893 60.1232 34.5394 57.0015 31.3283L66.8751 26.6516Z" fill="#FFBC1F"/>
<path d="M21.4837 29.7583C23.1392 30.5377 24.1238 32.9639 22.4358 35.187L21.7055 36.0762C21.4215 36.5151 21.0309 36.8724 20.5714 37.1138C20.1118 37.3551 19.5987 37.4722 19.0815 37.454C19.4209 37.6122 19.7901 37.6941 20.1636 37.6941C20.5371 37.6941 20.9062 37.6122 21.2456 37.454C21.3946 37.0604 21.5987 36.6907 21.8516 36.3562L22.5819 35.4615C22.9478 34.9611 23.4339 34.5642 23.994 34.3087C24.8434 32.0582 23.3339 29.89 21.4837 29.7583Z" fill="#CC8F00"/>
<path d="M33.7215 40.4895C35.4636 40.967 36.7729 43.2011 35.4095 45.6767L34.8144 46.6867C34.5878 47.1667 34.2472 47.582 33.8232 47.8953C33.3992 48.2086 32.905 48.4101 32.3853 48.4816C33.5214 48.789 34.8415 48.3608 35.7341 46.7416L36.3292 45.7371C37.9523 42.8443 35.8694 40.248 33.7215 40.4895Z" fill="#CC8F00"/>
<path d="M26.2013 39.6663L27.9163 36.9766C27.8646 36.2509 27.5669 35.5657 27.0738 35.0375C26.5807 34.5092 25.9226 34.1703 25.2112 34.0784C26.8343 34.8523 27.846 37.284 26.1634 39.5016L25.4331 40.3963C25.1467 40.8341 24.7549 41.1905 24.2947 41.4316C23.8346 41.6727 23.3214 41.7906 22.8037 41.7741C23.2562 41.9861 23.7587 42.0636 24.2528 41.9975C24.7469 41.9315 25.2125 41.7245 25.5954 41.4008C25.6697 40.7846 25.8765 40.1924 26.2013 39.6663V39.6663Z" fill="#CC8F00"/>
<path d="M30.762 34.7589C32.477 35.3078 33.6781 37.6462 32.2011 40.0394L30.1398 43.2615C29.8932 43.7259 29.5356 44.12 29.0999 44.4077C28.6641 44.6954 28.1641 44.8675 27.6458 44.9082C28.7711 45.287 30.1074 44.9082 31.0758 43.3713L33.1262 40.1547C34.8629 37.3717 32.9261 34.6766 30.762 34.7589Z" fill="#CC8F00"/>
<path d="M44.9908 37.4595C45.6063 37.342 46.231 37.2813 46.8573 37.2783C45.2343 35.6316 42.7185 36.8996 41.2253 36.1311C42.3074 37.9864 44.5147 37.5418 44.7798 37.4979L47.3983 40.8517C49.5029 43.5468 47.8257 46.6701 45.5805 47.0599C47.8961 47.8228 50.2441 45.3418 49.5624 42.6686C49.3352 42.4435 44.9908 37.4595 44.9908 37.4595Z" fill="#CC8F00"/>
<path d="M47.5661 31.2074C48.5549 31.0172 49.5573 30.9089 50.5634 30.8835C48.9403 29.5771 46.5003 30.7518 44.9314 29.7363C45.1436 30.1986 45.4873 30.5857 45.9183 30.8479C46.3494 31.1101 46.8479 31.2353 47.3497 31.2074L52.2459 36.916C54.4641 39.5069 52.9168 42.707 50.6878 43.212C53.2901 43.9256 55.7734 40.6431 54.1016 37.7229C53.0142 37.2564 47.5661 31.2074 47.5661 31.2074Z" fill="#CC8F00"/>
<path d="M44.174 43.6896C42.5996 42.3996 40.3869 43.3108 39.3535 42.707C39.9378 44.1891 41.8963 43.9366 41.9991 43.9256C43.8115 46.7964 41.9233 49.6946 39.6781 49.8703C41.8963 50.8364 44.4012 48.6517 44.0062 45.9401C43.9521 45.8797 42.3832 43.8817 42.3832 43.8817C42.9738 43.7673 43.5728 43.703 44.174 43.6896Z" fill="#CC8F00"/>
<path d="M65.663 24.7961C65.663 24.7961 63.8452 28.5507 56.7687 30.6365C55.1704 28.599 53.3881 26.7172 51.4451 25.0157C52.9437 24.6973 53.6795 23.4733 54.9238 23.2757C54.5235 22.842 52.9437 23.111 51.8563 23.5282C49.7247 24.3405 44.8231 20.7836 44.8231 20.7836L40.733 21.3764C37.8332 24.2088 31.6385 25.6744 31.2761 21.4039C31.0164 18.3739 37.6114 16.2771 39.5969 14.2681C42.1397 11.7321 44.4119 8.62532 48.6048 10.7441C52.0835 12.5006 53.4739 12.3908 58.1213 13.2087C59.7443 13.4886 60.7722 14.3065 62.0003 15.9532C61.0157 13.6478 59.6902 12.7366 57.9644 12.314L65.4141 8.71863L65.5656 6.91821L56.6497 12.067C52.5325 11.3808 51.0448 11.4193 47.7446 9.75607C45.5805 8.65825 43.9196 8.97113 42.4751 9.86585C39.8674 8.36733 38.4012 8.63081 37.4166 8.94368C34.3923 9.90427 29.5448 10.0415 25.3032 11.7815C25.9625 12.0413 26.6583 12.1932 27.3645 12.2316V12.2316C31.5465 10.9143 35.9288 11.057 37.9305 10.283C38.4864 10.1349 39.0664 10.1048 39.6343 10.1945C40.2021 10.2842 40.7456 10.4919 41.2307 10.8045C40.3813 11.5565 39.5752 12.4512 38.7367 13.2801C36.7349 15.2781 30.497 18.0775 30.919 21.6289C31.1191 23.3306 33.4401 27.9688 41.3065 22.8256L44.5959 22.37C49.0942 24.8094 53.1063 28.076 56.4279 32.0033C58.6352 34.5722 57.261 37.3881 55.0645 38.0413C57.9373 38.6231 60.4152 34.4953 57.6073 31.6026L64.3538 27.8536L65.663 24.7961Z" fill="#CC8F00"/>
<path d="M18.4488 31.652C18.068 30.6602 17.7783 29.6349 17.5831 28.5891L14.9376 26.7612L14.759 28.8361L17.0313 29.4619C17.2698 30.3694 17.6341 31.2381 18.1133 32.0417L18.4488 31.652Z" fill="#CC8F00"/>
<path d="M58.2673 10.1019L64.5269 28.7208C68.6061 26.882 79.9999 20.0316 79.9999 20.0316L72.9613 1.98901C72.9613 1.98901 65.1977 5.9137 58.2673 10.1019Z" fill="#1E325C"/>
<path d="M8.71034 0.106445L0 21.3382C0 21.3382 13.2495 28.8363 15.7327 29.4017C17.1123 29.7145 23.7181 10.5576 23.3719 10.3161C19.7471 7.80213 8.71034 0.106445 8.71034 0.106445Z" fill="#1E325C"/>
</svg>
