<svg width="80" height="80" viewBox="0 0 80 80" fill="none" xmlns="http://www.w3.org/2000/svg">
<path d="M38.309 45.9257C37.067 44.2521 36.0508 43.9453 34.2273 44.5534C33.5103 45.1614 32.5337 45.4515 31.9691 46.227L31.7489 46.439C31.365 47.114 30.6763 47.5547 30.3545 48.2911C29.7899 49.5798 28.7512 49.9647 27.3624 50.1823C25.2058 50.4836 23.196 51.2702 21.875 53.1781C21.7508 53.312 21.7056 53.5072 21.5362 53.6021C21.6717 53.4459 21.7733 53.2618 21.8975 53.1C22.6983 51.929 23.7472 50.9443 24.9717 50.214C26.1961 49.4838 27.5667 49.0256 28.9883 48.8713C29.7674 48.7653 30.5239 48.6035 30.4956 47.5659C30.1851 47.3037 30.2924 46.9411 30.2529 46.6119C29.6883 41.6245 30.1061 36.6204 30.044 31.6218C30.044 30.1267 29.6883 28.8325 28.0963 28.2188C26.6454 28.1686 25.9792 29.05 25.6462 30.2829C25.5717 30.5593 25.5188 30.841 25.4881 31.1253C25.5549 30.2723 25.517 29.4143 25.3752 28.5703C24.9743 28.1184 25.1832 27.555 25.0985 27.0417C24.8614 25.6191 24.1501 24.7488 22.5976 24.7544C20.8362 25.2063 20.3394 26.5731 20.2829 28.1017C20.2095 30.1044 20.0402 32.096 20.0119 34.0932C19.9611 37.1392 19.7805 40.2298 21.2483 43.1308C20.7459 42.9021 19.7127 44.0792 19.7974 42.6454C20.0627 38.4056 19.7579 34.1602 20.0797 29.9203C20.2451 28.8009 20.0474 27.6584 19.5151 26.6568C19.024 26.4727 18.5441 26.177 18.0021 26.5061C15.806 27.7223 15.5294 29.7585 15.7157 31.9231C15.8194 33.1876 15.7644 34.4599 15.552 35.7111C15.4281 36.4735 15.3545 37.2432 15.3318 38.0151C15.3318 37.1336 15.3657 36.2522 15.3318 35.3708C15.281 33.9593 15.5915 32.4085 14.5753 31.1421C14.0672 31.1421 13.6043 30.5842 13.0567 31.0026C12.3067 31.727 11.7868 32.6517 11.5606 33.6637C11.1485 36.6092 10.2791 39.4934 10.121 42.4781C9.80863 47.6051 10.3989 52.7469 11.8655 57.6745C12.7518 60.5922 14.4116 62.5336 17.1722 63.5099C20.6329 64.7372 24.1614 65.3844 27.543 63.164C29.103 59.5394 31.3012 56.217 34.0354 53.351C34.7404 52.6051 35.313 51.7469 35.729 50.8127C36.2315 49.4124 36.7396 48.0233 37.8235 46.9076C38.0888 46.6454 38.4219 46.3832 38.309 45.9257ZM25.2566 33.3513C25.3187 32.7934 25.3921 32.2355 25.4373 31.6386C25.4262 32.06 25.4488 32.4815 25.505 32.8994C25.6619 33.7185 25.6753 34.5583 25.5445 35.3819C24.9405 38.1211 25.3074 40.7933 26.0639 43.499C25.1268 43.499 24.5904 43.3484 24.8501 42.2549C25.0635 41.2466 25.1225 40.2123 25.0251 39.1866C24.9245 37.2386 25.002 35.2855 25.2566 33.3513ZM14.6092 44.7654C14.5019 44.81 14.4285 44.8546 14.3608 44.81C14.5959 44.6001 14.7803 44.3408 14.9005 44.0512C15.0207 43.7615 15.0735 43.4489 15.0552 43.1364C15.1342 41.5129 15.2641 39.8951 15.3205 38.2717C15.291 39.6173 15.4544 40.9602 15.806 42.2605C16.3028 44.0568 16.3424 44.0401 14.6092 44.7654Z" fill="#FFBC1F"/>
<path d="M28.0852 28.2076C26.2052 29.0054 25.4883 30.4837 25.9004 32.877C26.0375 34.1789 25.99 35.4932 25.7593 36.7821C25.5165 39.0136 25.5617 41.3288 26.6908 43.4376C26.798 43.644 26.8545 43.8783 27.0013 44.2744L23.8511 43.4878C24.9802 41.6691 24.5624 39.711 24.5793 37.8253C24.6186 34.7314 24.8808 31.6441 25.3641 28.587C25.7171 28.2448 26.1718 28.0233 26.6615 27.955C27.1512 27.8868 27.6501 27.9753 28.0852 28.2076Z" fill="#CC8F00"/>
<path d="M35.7407 50.8072C35.6221 48.6817 36.9206 47.2814 38.3094 45.9258C38.9473 46.4837 38.5747 46.9913 38.2473 47.4544C37.44 48.5924 36.5819 49.6914 35.7407 50.8072Z" fill="#FFD470"/>
<path d="M30.7554 47.1195C30.6381 47.2464 30.5461 47.394 30.4844 47.5547C30.2473 48.2632 29.694 48.3859 28.9996 48.4919C25.872 48.9605 23.1509 50.1265 21.6605 53.139C21.445 53.2826 21.2768 53.4853 21.1765 53.7223C21.0762 53.9592 21.0482 54.2199 21.0959 54.4723L21.9202 53.4458C23.4783 51.5546 25.5615 50.7178 27.9496 50.45C28.6044 50.3719 29.5303 50.5002 29.8069 49.8308C29.8069 49.8308 32.8781 45.4236 35.5879 44.2521C35.6049 44.2744 32.9007 43.895 30.7554 47.1195Z" fill="#CC8F00"/>
<path d="M27.1932 63.0023C23.8059 64.9437 20.3565 64.291 16.9862 63.0023C15.2191 62.3217 13.5989 61.2729 12.8875 59.3984C10.2398 52.2747 9.70891 44.5513 11.3576 37.1393C11.7584 35.3039 11.8375 33.3792 12.769 31.7056C12.9746 31.4392 13.2588 31.2424 13.5824 31.1425C13.906 31.0426 14.253 31.0444 14.5755 31.1477C14.1467 30.8806 13.6307 30.7855 13.1333 30.882C12.6358 30.9784 12.1945 31.2591 11.8996 31.6665L11.8093 31.7669C11.4126 32.3133 11.1182 32.9255 10.9398 33.5744C9.95188 36.4642 9.67525 39.4935 9.50024 42.5004C9.26877 46.4446 9.18409 50.4222 10.4374 54.2158C11.1109 56.0449 11.4919 57.9666 11.5665 59.9117C11.5501 60.526 11.6981 61.1337 11.9955 61.6734C12.2929 62.2131 12.7291 62.6657 13.2601 62.9856C15.9864 64.883 19.2652 65.8488 22.5978 65.7359C24.602 65.6633 26.5497 65.1445 27.5489 63.1194C27.4529 63.1027 27.2553 62.9632 27.1932 63.0023Z" fill="#CC8F00"/>
<path d="M19.515 26.6512C19.515 26.6512 17.9342 25.4294 15.9413 27.2816C15.3941 27.8224 15.048 28.5302 14.959 29.2899C14.8348 29.9036 14.6993 30.5228 14.5695 31.1365C15.134 34.2829 14.9534 37.4516 14.7389 40.6203C14.6203 42.3442 15.3034 44.3525 13.1299 45.5129C14.3888 45.2172 15.4954 44.8379 16.6132 44.4976C17.0704 44.3581 17.3979 44.2242 16.9971 43.7221C15.6873 42.1099 15.868 40.1685 15.755 38.2884C15.6478 36.6148 16.4269 34.997 16.218 33.3624C15.9583 31.3317 15.9696 29.4238 16.9914 27.7837C17.2229 27.4099 18.1431 26.2328 19.515 26.6512Z" fill="#CC8F00"/>
<path d="M24.2465 25.2733C23.8596 24.9278 23.3804 24.6994 22.866 24.6154C22.3515 24.5313 21.8235 24.5951 21.3447 24.7991C21.2277 24.8421 21.1144 24.8943 21.0059 24.9553C20.3987 25.4019 19.8961 25.9728 19.5325 26.6289C19.7018 29.2017 19.7018 31.7826 19.5325 34.3554C19.4289 35.6657 19.4044 36.9809 19.4591 38.294C19.6228 40.1685 19.8655 42.0708 18.6687 44.0122C19.9276 43.4265 21.1809 43.962 22.2931 43.2312C21.4262 42.4024 20.8657 41.3102 20.7011 40.1294C20.0688 36.3024 20.6672 32.5033 20.6446 28.693C20.6014 28.0857 20.6832 27.4759 20.885 26.9006C21.0869 26.3253 21.4045 25.7964 21.8189 25.3458C22.152 25.0501 22.9762 24.5536 24.2465 25.2733Z" fill="#CC8F00"/>
<path d="M42.1646 46.9076C43.2486 48.0234 43.7567 49.4069 44.2591 50.8127C44.6769 51.746 45.2493 52.6039 45.9528 53.3511C48.692 56.2185 50.8923 59.5452 52.4507 63.1752C55.838 65.4067 59.3665 64.7484 62.8272 63.5211C65.5878 62.5448 67.2476 60.6034 68.1339 57.6858C69.6014 52.7583 70.1898 47.6161 69.8728 42.4893C69.7203 39.5046 68.8509 36.6204 68.4388 33.6749C68.2105 32.6637 67.6909 31.7396 66.9427 31.0138C66.3782 30.6066 65.9322 31.1477 65.4185 31.1533C64.4023 32.4197 64.7128 33.9705 64.662 35.382C64.6281 36.2634 64.662 37.1448 64.662 38.0263C64.6374 37.2542 64.5619 36.4846 64.4361 35.7223C64.2266 34.4708 64.1716 33.1988 64.2724 31.9343C64.4644 29.7698 64.1877 27.7335 62.0142 26.5173C61.4497 26.1882 60.9867 26.4839 60.4956 26.668C59.9655 27.6703 59.768 28.8121 59.931 29.9315C60.2472 34.1714 59.931 38.4168 60.2077 42.6566C60.298 44.0904 59.2649 42.9133 58.7624 43.142C60.2302 40.2299 60.0496 37.1504 59.9988 34.1044C59.9649 32.1072 59.8012 30.1156 59.7221 28.1129C59.6657 26.5787 59.1576 25.2119 57.4131 24.7656C55.8606 24.7656 55.1549 25.6303 54.9065 27.0529C54.8218 27.5662 55.0364 28.1296 54.6355 28.5815C54.4937 29.4255 54.4558 30.2835 54.5226 31.1365C54.4891 30.8526 54.4363 30.5711 54.3646 30.2942C54.0315 29.0613 53.3653 28.1798 51.9144 28.23C50.3224 28.8381 49.9893 30.138 49.9667 31.6331C49.9046 36.6539 50.328 41.6357 49.7578 46.6231C49.7183 46.9523 49.8256 47.3149 49.5151 47.5771C49.4812 48.6147 50.2433 48.7765 51.0224 48.8825C52.443 49.0376 53.8125 49.4962 55.0359 50.2264C56.2593 50.9565 57.3074 51.9409 58.1075 53.1112C58.2374 53.273 58.3333 53.4571 58.4745 53.6133C58.2995 53.5184 58.26 53.3232 58.1358 53.1893C56.8147 51.2814 54.7993 50.4948 52.6427 50.1935C51.2539 50.0038 50.2377 49.591 49.6506 48.3023C49.3288 47.5882 48.6457 47.1252 48.2618 46.4502L48.0416 46.2382C47.4432 45.4739 46.4891 45.1838 45.7834 44.5646C43.9373 43.9565 42.9606 44.2856 41.6961 45.9369C41.5662 46.3832 41.9106 46.6454 42.1646 46.9076ZM54.9686 39.1867C54.876 40.2126 54.9368 41.2465 55.1493 42.255C55.409 43.3707 54.8727 43.5158 53.9299 43.499C54.692 40.7933 55.059 38.1211 54.4549 35.382C54.3241 34.5583 54.3375 33.7186 54.4944 32.8994C54.5487 32.4814 54.5695 32.0599 54.5565 31.6386C54.6073 32.1965 54.6751 32.7878 54.7428 33.3513C54.9929 35.286 55.0685 37.2388 54.9686 39.1867ZM64.1934 42.2494C64.5432 40.9489 64.7047 39.6059 64.6732 38.2606C64.7353 39.884 64.8596 41.5018 64.9442 43.1252C64.9234 43.438 64.9751 43.7514 65.0954 44.0415C65.2158 44.3315 65.4016 44.5906 65.6386 44.7989C65.5652 44.8435 65.4975 44.7989 65.3902 44.7542C63.6514 44.0402 63.6966 44.0569 64.1934 42.2494Z" fill="#FFBC1F"/>
<path d="M51.9148 28.2076C53.7947 29.0053 54.5061 30.4837 54.0996 32.877C53.9607 34.1786 54.0063 35.4929 54.2351 36.7821C54.4835 39.0136 54.4383 41.3288 53.3092 43.4375C53.1868 43.7092 53.0831 43.9888 52.9987 44.2743L56.1489 43.4877C55.0198 41.6691 55.4376 39.7109 55.4206 37.8253C55.3797 34.724 55.1175 31.6294 54.6359 28.5646C54.2802 28.226 53.8243 28.0087 53.3347 27.9445C52.8451 27.8802 52.3476 27.9724 51.9148 28.2076Z" fill="#CC8F00"/>
<path d="M44.2598 50.8072C44.3783 48.6817 43.0799 47.2814 41.6854 45.9258C41.0475 46.4837 41.4257 46.9913 41.7532 47.4544C42.5605 48.5924 43.4186 49.6914 44.2598 50.8072Z" fill="#FFD470"/>
<path d="M49.2446 47.1195C49.3599 47.2479 49.4516 47.3951 49.5156 47.5547C49.7527 48.2632 50.306 48.3859 50.9947 48.4919C54.128 48.9605 56.8491 50.1265 58.3339 53.139C58.5453 53.2852 58.7087 53.4894 58.804 53.7263C58.8993 53.9632 58.9223 54.2226 58.8702 54.4723L58.0459 53.4458C56.4934 51.5546 54.4102 50.7178 52.0222 50.45C51.3673 50.3719 50.4414 50.5002 50.1592 49.8308C50.1592 49.8308 47.0937 45.4236 44.3782 44.2521C44.3895 44.2744 47.0993 43.895 49.2446 47.1195Z" fill="#CC8F00"/>
<path d="M52.8069 63.0023C56.1942 64.9437 59.6436 64.291 63.0139 63.0023C64.781 62.3217 66.4012 61.2729 67.1126 59.3984C69.756 52.2737 70.2848 44.551 68.6369 37.1393C68.236 35.3039 68.1626 33.3792 67.2255 31.7056C67.0199 31.4392 66.7356 31.2424 66.412 31.1425C66.0884 31.0426 65.7414 31.0444 65.4189 31.1477C65.8478 30.8806 66.3637 30.7855 66.8612 30.882C67.3586 30.9784 67.8 31.2591 68.0949 31.6665L68.1909 31.7669C68.5875 32.3133 68.8819 32.9255 69.0603 33.5744C70.0482 36.4642 70.3249 39.4935 70.4999 42.5004C70.7313 46.4446 70.816 50.4222 69.5627 54.2158C68.8865 56.0442 68.5055 57.9663 68.4336 59.9117C68.4488 60.5258 68.3003 61.1331 68.0031 61.6726C67.7058 62.2121 67.2702 62.6649 66.74 62.9856C64.0134 64.8823 60.7348 65.848 57.4023 65.7359C55.3925 65.6633 53.4505 65.1445 52.4456 63.1194C52.5754 63.1027 52.7391 62.9632 52.8069 63.0023Z" fill="#CC8F00"/>
<path d="M60.479 26.6512C60.479 26.6512 62.0597 25.4294 64.0526 27.2816C64.6007 27.8212 64.9454 28.5299 65.0293 29.2899C65.1535 29.9036 65.289 30.5228 65.4188 31.1365C64.8543 34.2829 65.0349 37.4516 65.2551 40.6203C65.3737 42.3442 64.6906 44.3525 66.8641 45.5129C65.5995 45.2172 64.4986 44.8379 63.3752 44.4976C62.9235 44.3581 62.5904 44.2242 62.9969 43.7221C64.301 42.1099 64.126 40.1685 64.2389 38.2884C64.3405 36.6148 63.5671 34.997 63.776 33.3624C64.03 31.3317 64.0187 29.4238 63.0025 27.7837C62.7767 27.4099 61.8565 26.2328 60.479 26.6512Z" fill="#CC8F00"/>
<path d="M55.748 25.2732C56.1358 24.9273 56.6159 24.6986 57.1314 24.6146C57.6468 24.5305 58.1758 24.5945 58.6555 24.799C58.7711 24.8409 58.8826 24.8932 58.9886 24.9552C59.5955 25.4006 60.0965 25.9718 60.4564 26.6288C60.2899 29.2017 60.2899 31.7825 60.4564 34.3554C60.5609 35.6656 60.5835 36.981 60.5241 38.294C60.3604 40.1684 60.1233 42.0708 61.3145 44.0122C60.0612 43.4264 58.8079 43.962 57.6901 43.2312C58.5613 42.4055 59.1227 41.3118 59.2821 40.1294C59.9144 36.3024 59.3217 32.5032 59.3442 28.693C59.3861 28.0857 59.3037 27.4763 59.102 26.9012C58.9002 26.3261 58.5832 25.7971 58.17 25.3457C57.8482 25.0501 57.0239 24.5535 55.748 25.2732Z" fill="#CC8F00"/>
<path d="M27.2103 16.7322L26.5779 18.0655C26.3944 18.4549 26.3211 18.8862 26.3658 19.3136C26.4105 19.7409 26.5716 20.1482 26.832 20.4923L33.042 28.6874C33.0714 28.7227 33.1117 28.7473 33.1568 28.7575C33.2018 28.7677 33.249 28.7628 33.2909 28.7437C33.3328 28.7246 33.3672 28.6922 33.3886 28.6518C33.4099 28.6113 33.4171 28.565 33.409 28.5201C32.9461 26.4559 31.4952 21.1729 28.0176 16.6429C27.9662 16.5816 27.9001 16.5338 27.8254 16.504C27.7507 16.4741 27.6696 16.4631 27.5895 16.472C27.5094 16.4808 27.4328 16.5093 27.3666 16.5547C27.3004 16.6001 27.2466 16.6611 27.2103 16.7322Z" fill="#1E325C"/>
<path d="M34.916 19.4769C34.916 19.4769 34.0296 18.8633 33.6006 19.7559C33.2957 20.3918 34.5039 22.6791 35.2378 23.9678C35.2672 24.0206 35.3138 24.062 35.3701 24.0854C35.4263 24.1087 35.4888 24.1127 35.5476 24.0965C35.6064 24.0804 35.6579 24.0452 35.6939 23.9965C35.7299 23.9478 35.7482 23.8886 35.7459 23.8283C35.6781 22.3444 35.4862 19.7726 34.916 19.4769Z" fill="#1E325C"/>
<path d="M39.3761 10.0544L38.8963 10.1214C38.5738 10.1683 38.2832 10.3397 38.0885 10.598C37.8937 10.8564 37.8107 11.1805 37.8575 11.4993L39.9746 26.11C39.9816 26.1471 40.0016 26.1806 40.0309 26.2046C40.0603 26.2287 40.0973 26.2419 40.1355 26.2419C40.1736 26.2419 40.2106 26.2287 40.24 26.2046C40.2694 26.1806 40.2893 26.1471 40.2964 26.11L42.4134 11.4993C42.4603 11.1805 42.3772 10.8564 42.1824 10.598C41.9877 10.3397 41.6972 10.1683 41.3747 10.1214L40.9004 10.0544C40.395 9.98186 39.8816 9.98186 39.3761 10.0544Z" fill="#1E325C"/>
<path d="M53.0609 16.7322L53.6932 18.0655C53.878 18.4546 53.952 18.8862 53.9072 19.3137C53.8624 19.7413 53.7006 20.1487 53.4391 20.4923L47.2291 28.6874C47.1997 28.7227 47.1594 28.7473 47.1144 28.7575C47.0693 28.7677 47.0222 28.7628 46.9802 28.7437C46.9383 28.7246 46.904 28.6922 46.8826 28.6518C46.8612 28.6113 46.854 28.565 46.8621 28.5201C47.3251 26.4559 48.7759 21.1729 52.2536 16.6429C52.305 16.5816 52.371 16.5338 52.4457 16.504C52.5205 16.4741 52.6015 16.4631 52.6816 16.472C52.7617 16.4808 52.8384 16.5093 52.9046 16.5547C52.9708 16.6001 53.0245 16.6611 53.0609 16.7322Z" fill="#1E325C"/>
<path d="M45.3603 19.4769C45.3603 19.4769 46.241 18.8633 46.6701 19.7559C46.9749 20.3918 45.7668 22.6791 45.0329 23.9678C45.0055 24.0228 44.9596 24.0667 44.9029 24.0917C44.8463 24.1167 44.7826 24.1214 44.7229 24.1048C44.6632 24.0882 44.6112 24.0515 44.576 24.001C44.5409 23.9505 44.5247 23.8894 44.5304 23.8283C44.5925 22.3444 44.7845 19.7726 45.3603 19.4769Z" fill="#1E325C"/>
</svg>
