<svg width="50" height="56" viewBox="0 0 50 56" fill="none" xmlns="http://www.w3.org/2000/svg">
<g clip-path="url(#clip0_375_107969)">
<path d="M15.2075 29.1541L13.5011 29.6362C13.5011 29.6362 8.46298 28.1089 5.03738 32.0166L2.47778 29.7471C2.47778 29.7471 8.11742 16.45 18.3601 16.3774C19.1034 16.4154 19.8425 16.5138 20.5698 16.6718L20.8514 16.7315C18.3846 20.4199 16.5145 24.474 15.3099 28.7446L15.2075 29.1541Z" fill="#C43133"/>
<path d="M26.218 50.5906L23.6584 48.3467C27.0712 44.4391 24.9382 39.6441 24.9382 39.6441L25.1942 37.895L25.5867 37.7244C29.6628 35.9828 33.4402 33.6119 36.7807 30.6983C36.7807 30.6983 36.8148 30.8007 36.8745 30.9671C37.1244 31.6615 37.3184 32.3747 37.4547 33.1001C38.6663 43.2702 26.218 50.5906 26.218 50.5906Z" fill="#C43133"/>
<g style="mix-blend-mode:multiply">
<g style="mix-blend-mode:multiply">
<path d="M15.2074 29.1541L13.501 29.6361C15.0093 24.9062 17.4039 20.5065 20.5569 16.6718L20.8385 16.7315C18.3762 20.4207 16.5104 24.4747 15.3098 28.7445L15.2074 29.1541Z" fill="#D1D3D4"/>
</g>
<g style="mix-blend-mode:multiply">
<path d="M36.832 30.9544C33.2699 34.8663 28.9527 37.6605 24.8872 39.6314L25.1432 37.8823L25.5314 37.7117C29.6086 35.9703 33.3862 33.5978 36.7253 30.6813V30.6813C36.7253 30.6813 36.7723 30.788 36.832 30.9544Z" fill="#D1D3D4"/>
</g>
</g>
<path d="M39.6259 27.7633C38.7236 28.7914 37.7576 29.7617 36.7335 30.6685C33.399 33.5892 29.624 35.9647 25.5481 37.7074L25.1855 37.8652C24.6864 38.0828 24.1872 38.2918 23.7009 38.4752L14.8105 30.677C14.9343 30.1779 15.0708 29.6702 15.2371 29.1541L15.3523 28.7275C16.5467 24.4651 18.4038 20.417 20.8555 16.7315C21.621 15.5991 22.4574 14.5162 23.3596 13.4893C28.0735 8.11843 34.1611 4.79949 39.2974 2.78594C42.6432 1.45233 46.1251 0.489564 49.6808 -0.085083C49.5732 3.51397 49.0711 7.09036 48.1835 10.5799C46.8397 15.938 44.3398 22.4052 39.6259 27.7633Z" fill="url(#paint0_linear_375_107969)"/>
<path d="M48.158 10.5884L39.272 2.78594C42.6178 1.45233 46.0997 0.489564 49.6554 -0.085083C49.5484 3.51683 49.0462 7.09611 48.158 10.5884V10.5884Z" fill="#C43133"/>
<path d="M22.9502 39.3198L14.0727 31.5301C4.01344 35.5487 0.319092 46.2179 0.319092 46.2179C1.80896 45.5415 3.38999 45.0873 5.01169 44.8699C2.54594 50.3047 0.459851 55.9913 0.459851 55.9913C0.459851 55.9913 5.83077 53.1758 10.8945 50.0189C10.8939 51.6638 10.6509 53.2996 10.1735 54.8736C10.1735 54.8736 20.2754 49.827 22.9502 39.3198Z" fill="#DD6400"/>
<path d="M21.0136 39.1323L14.5079 33.4201C7.13202 36.3636 3.7832 43.6201 3.7832 43.6201C3.7832 43.6201 6.27027 43.33 7.87855 43.1935C6.06977 47.1779 4.54256 51.3458 4.54256 51.3458C4.54256 51.3458 8.48005 49.2811 12.1915 46.9732C12.2683 48.59 12.3067 51.0941 12.3067 51.0941C12.3067 51.0941 19.0555 46.8324 21.0136 39.1323Z" fill="#E08F00"/>
<path d="M19.0769 39.017L14.8706 35.3227C10.1055 37.2296 7.92554 41.9094 7.92554 41.9094C8.68306 41.6444 9.46683 41.4614 10.2633 41.3633C9.48885 43.154 8.87496 45.0099 8.42895 46.9091C10.2569 46.2125 12.0199 45.356 13.6974 44.3495C13.702 45.1532 13.6234 45.9553 13.4628 46.7428C13.4628 46.7428 17.8099 43.9955 19.0769 39.017Z" fill="#FFBC1F"/>
<path d="M14.8117 30.686L14.0688 31.5325L22.9537 39.3298L23.6966 38.4833L14.8117 30.686Z" fill="url(#paint1_linear_375_107969)"/>
<path d="M25.5481 37.7074C24.921 37.9847 24.3024 38.2406 23.7009 38.4752L14.8105 30.677C14.9684 30.0456 15.1391 29.3972 15.331 28.7445L25.5481 37.7074Z" fill="url(#paint2_linear_375_107969)"/>
<path d="M36.7808 19.6963C39.5987 19.6963 41.883 17.412 41.883 14.5941C41.883 11.7763 39.5987 9.492 36.7808 9.492C33.963 9.492 31.6787 11.7763 31.6787 14.5941C31.6787 17.412 33.963 19.6963 36.7808 19.6963Z" fill="#C43133"/>
<path d="M39.9927 17.414C39.532 17.9399 38.949 18.3446 38.2951 18.5923C37.6412 18.84 36.9365 18.9232 36.2429 18.8346C35.6473 18.7622 35.0741 18.5629 34.5621 18.2501C34.3503 18.1246 34.1491 17.9819 33.9606 17.8235C33.2547 17.2127 32.7686 16.3871 32.577 15.4734C32.3853 14.5598 32.4986 13.6085 32.8996 12.7654C33.3005 11.9223 33.9669 11.2341 34.7966 10.8062C35.6263 10.3782 36.5735 10.2343 37.4929 10.3964C38.085 10.4927 38.6496 10.7153 39.1481 11.0491C39.3054 11.1554 39.4563 11.2708 39.6002 11.3947C40.4503 12.1409 40.9693 13.1943 41.0429 14.3231C41.1165 15.4518 40.7387 16.5636 39.9927 17.414V17.414Z" fill="#32A4EC"/>
<path opacity="0.5" d="M36.243 18.8346C35.6474 18.7623 35.0743 18.563 34.5623 18.2502L37.493 10.3837C38.0852 10.4799 38.6497 10.7026 39.1482 11.0364L36.243 18.8346Z" fill="white"/>
<path d="M28.2923 23.2775L13.8374 39.7486L14.8314 40.6209L29.2863 24.1498L28.2923 23.2775Z" fill="#C43133"/>
<g style="mix-blend-mode:multiply">
<path d="M29.2852 24.1415L25.5397 37.7074L23.6925 38.4753L22.9459 39.32L19.0042 35.856L29.2852 24.1415Z" fill="#E6E7E8"/>
</g>
</g>
<defs>
<linearGradient id="paint0_linear_375_107969" x1="26.3057" y1="10.1052" x2="42.5876" y2="24.3941" gradientUnits="userSpaceOnUse">
<stop offset="0.5" stop-color="#D1D3D4"/>
</linearGradient>
<linearGradient id="paint1_linear_375_107969" x1="14.4403" y1="31.1093" x2="23.3251" y2="38.9066" gradientUnits="userSpaceOnUse">
<stop offset="0.5" stop-color="#808285"/>
</linearGradient>
<linearGradient id="paint2_linear_375_107969" x1="14.7208" y1="29.4242" x2="24.9394" y2="38.3921" gradientUnits="userSpaceOnUse">
<stop offset="0.5" stop-color="#A7A9AC"/>
</linearGradient>
<clipPath id="clip0_375_107969">
<rect width="50" height="56" fill="white"/>
</clipPath>
</defs>
</svg>
