<svg width="74" height="40" viewBox="0 0 74 40" fill="none" xmlns="http://www.w3.org/2000/svg">
<g clip-path="url(#clip0_180_69486)">
<path fill-rule="evenodd" clip-rule="evenodd" d="M18.2742 9.80466L8.51196 30.1954H11.9226L14.2598 25.242H23.2371L25.4387 30.1954H28.9027L19.4853 9.80466H18.2742ZM18.836 15.4172L21.9478 22.3502H15.5765L18.836 15.4172Z" fill="#001871"/>
<path fill-rule="evenodd" clip-rule="evenodd" d="M34.8499 30.1954H31.4514V9.80466H34.8499V28.9634V30.1954Z" fill="#001871"/>
<path fill-rule="evenodd" clip-rule="evenodd" d="M51.1922 19.7444H59.7455V20.4317C59.7455 21.9932 59.5635 23.3764 59.1958 24.5785C58.8393 25.6924 58.2357 26.733 57.3869 27.7039C55.4643 29.8769 53.0203 30.9614 50.0536 30.9614C47.1565 30.9614 44.6767 29.9119 42.612 27.8113C40.547 25.7017 39.5149 23.1693 39.5149 20.2163C39.5149 17.2003 40.5662 14.6411 42.666 12.5405C44.7668 10.4299 47.3214 9.37598 50.3335 9.37598C51.953 9.37598 53.4624 9.70625 54.8661 10.3675C56.2065 11.0287 57.5245 12.1036 58.8205 13.591L56.5951 15.7314C54.8975 13.46 52.8274 12.3248 50.3885 12.3248C48.1982 12.3248 46.3606 13.0837 44.8778 14.601C43.3953 16.0915 42.6523 17.9579 42.6523 20.2009C42.6523 22.5187 43.4796 24.4266 45.1332 25.9253C46.6799 27.3177 48.3553 28.0133 50.1604 28.0133C51.6972 28.0133 53.0776 27.4937 54.3034 26.4548C55.5271 25.4078 56.2106 24.1532 56.3544 22.6939H51.1922V19.7444Z" fill="#001871"/>
<mask id="mask0_180_69486" style="mask-type:alpha" maskUnits="userSpaceOnUse" x="0" y="1" width="74" height="38">
<path d="M0.865479 38.6915H73.7495V1.65045H0.865479V38.6915Z" fill="white"/>
</mask>
<g mask="url(#mask0_180_69486)">
<path fill-rule="evenodd" clip-rule="evenodd" d="M0.865479 38.6915H69.0514V1.65045H0.865479V38.6915ZM3.70142 35.8353H66.2158V4.50596H3.70142V35.8353Z" fill="#001871"/>
<path fill-rule="evenodd" clip-rule="evenodd" d="M72.0012 37.0942H72.2753C72.5072 37.0942 72.7195 37.0836 72.7195 36.8174C72.7195 36.5904 72.5239 36.5558 72.3477 36.5558H72.0012V37.0942ZM71.7407 36.3414H72.3918C72.7912 36.3414 72.9821 36.5002 72.9821 36.8257C72.9821 37.1323 72.7895 37.2588 72.5379 37.2876L73.0207 38.0353H72.7404L72.2781 37.3079H72.0012V38.0353H71.7407V36.3414ZM72.3033 38.4301C72.9702 38.4301 73.4878 37.8919 73.4878 37.1827C73.4878 36.4906 72.9702 35.9549 72.3033 35.9549C71.6266 35.9549 71.11 36.4906 71.11 37.1827C71.11 37.8919 71.6266 38.4301 72.3033 38.4301ZM72.3033 35.7405C73.0897 35.7405 73.7493 36.3661 73.7493 37.1827C73.7493 38.0185 73.0897 38.6403 72.3033 38.6403C71.5116 38.6403 70.8481 38.0185 70.8481 37.1827C70.8481 36.3661 71.5116 35.7405 72.3033 35.7405Z" fill="#001871"/>
</g>
<rect x="0.865479" width="73.0667" height="40"  style="mix-blend-mode:saturation"/>
</g>
<defs>
<clipPath id="clip0_180_69486">
<rect width="73.0667" height="40" fill="white" transform="translate(0.865479)"/>
</clipPath>
</defs>
</svg>
