<svg width="60" height="48" viewBox="0 0 60 48" fill="none" xmlns="http://www.w3.org/2000/svg">
<path d="M28.1977 48C41.4528 48 52.1981 37.2548 52.1981 24C52.1981 10.7452 41.4528 0 28.1977 0C14.9426 0 4.19727 10.7452 4.19727 24C4.19727 37.2548 14.9426 48 28.1977 48Z" fill="#0B3D91"/>
<path d="M26.7808 4.87894C26.9294 4.87894 27.0498 4.75848 27.0498 4.60988C27.0498 4.46128 26.9294 4.34082 26.7808 4.34082C26.6322 4.34082 26.5117 4.46128 26.5117 4.60988C26.5117 4.75848 26.6322 4.87894 26.7808 4.87894Z" fill="white"/>
<path d="M29.543 5.23767C29.6916 5.23767 29.8121 5.11721 29.8121 4.96861C29.8121 4.82002 29.6916 4.69955 29.543 4.69955C29.3944 4.69955 29.2739 4.82002 29.2739 4.96861C29.2739 5.11721 29.3944 5.23767 29.543 5.23767Z" fill="white"/>
<path d="M33.1665 10.1166C33.3151 10.1166 33.4356 9.99612 33.4356 9.84752C33.4356 9.69892 33.3151 9.57846 33.1665 9.57846C33.0179 9.57846 32.8975 9.69892 32.8975 9.84752C32.8975 9.99612 33.0179 10.1166 33.1665 10.1166Z" fill="white"/>
<path d="M13.2918 35.2287C13.4404 35.2287 13.5608 35.1082 13.5608 34.9596C13.5608 34.811 13.4404 34.6906 13.2918 34.6906C13.1432 34.6906 13.0227 34.811 13.0227 34.9596C13.0227 35.1082 13.1432 35.2287 13.2918 35.2287Z" fill="white"/>
<path d="M13.9912 37.3811C14.1398 37.3811 14.2603 37.2607 14.2603 37.1121C14.2603 36.9635 14.1398 36.843 13.9912 36.843C13.8426 36.843 13.7222 36.9635 13.7222 37.1121C13.7222 37.2607 13.8426 37.3811 13.9912 37.3811Z" fill="white"/>
<path d="M10.6549 35.484C10.7662 35.484 10.8564 35.3938 10.8564 35.2825C10.8564 35.1713 10.7662 35.0811 10.6549 35.0811C10.5436 35.0811 10.4534 35.1713 10.4534 35.2825C10.4534 35.3938 10.5436 35.484 10.6549 35.484Z" fill="white"/>
<path d="M21.5969 39.713C21.7085 39.713 21.799 39.6225 21.799 39.5109C21.799 39.3993 21.7085 39.3088 21.5969 39.3088C21.4853 39.3088 21.3948 39.3993 21.3948 39.5109C21.3948 39.6225 21.4853 39.713 21.5969 39.713Z" fill="white"/>
<path d="M38.7581 36.1477C38.8694 36.1477 38.9596 36.0575 38.9596 35.9462C38.9596 35.8349 38.8694 35.7447 38.7581 35.7447C38.6469 35.7447 38.5566 35.8349 38.5566 35.9462C38.5566 36.0575 38.6469 36.1477 38.7581 36.1477Z" fill="white"/>
<path d="M43.7456 30.7312C43.8572 30.7312 43.9477 30.6407 43.9477 30.5291C43.9477 30.4175 43.8572 30.327 43.7456 30.327C43.6339 30.327 43.5435 30.4175 43.5435 30.5291C43.5435 30.6407 43.6339 30.7312 43.7456 30.7312Z" fill="white"/>
<path d="M19.3009 11.6227C19.4121 11.6227 19.5024 11.5325 19.5024 11.4212C19.5024 11.3099 19.4121 11.2197 19.3009 11.2197C19.1896 11.2197 19.0994 11.3099 19.0994 11.4212C19.0994 11.5325 19.1896 11.6227 19.3009 11.6227Z" fill="white"/>
<path d="M24.7896 7.59162C24.9009 7.59162 24.9911 7.50141 24.9911 7.39012C24.9911 7.27884 24.9009 7.18863 24.7896 7.18863C24.6783 7.18863 24.5881 7.27884 24.5881 7.39012C24.5881 7.50141 24.6783 7.59162 24.7896 7.59162Z" fill="white"/>
<path d="M24.1934 7.197C24.3047 7.197 24.3949 7.10678 24.3949 6.9955C24.3949 6.88422 24.3047 6.79401 24.1934 6.79401C24.0822 6.79401 23.9919 6.88422 23.9919 6.9955C23.9919 7.10678 24.0822 7.197 24.1934 7.197Z" fill="white"/>
<path d="M23.6554 6.80237C23.7666 6.80237 23.8569 6.71216 23.8569 6.60088C23.8569 6.4896 23.7666 6.39938 23.6554 6.39938C23.5441 6.39938 23.4539 6.4896 23.4539 6.60088C23.4539 6.71216 23.5441 6.80237 23.6554 6.80237Z" fill="white"/>
<path d="M20.1617 12.6637C20.273 12.6637 20.3632 12.5735 20.3632 12.4622C20.3632 12.3509 20.273 12.2607 20.1617 12.2607C20.0504 12.2607 19.9602 12.3509 19.9602 12.4622C19.9602 12.5735 20.0504 12.6637 20.1617 12.6637Z" fill="white"/>
<path d="M28.2469 2.1746C28.3582 2.1746 28.4484 2.08438 28.4484 1.9731C28.4484 1.86182 28.3582 1.77161 28.2469 1.77161C28.1356 1.77161 28.0454 1.86182 28.0454 1.9731C28.0454 2.08438 28.1356 2.1746 28.2469 2.1746Z" fill="white"/>
<path d="M29.5748 7.98624C29.6861 7.98624 29.7763 7.89603 29.7763 7.78475C29.7763 7.67346 29.6861 7.58325 29.5748 7.58325C29.4635 7.58325 29.3733 7.67346 29.3733 7.78475C29.3733 7.89603 29.4635 7.98624 29.5748 7.98624Z" fill="white"/>
<path d="M27.4803 6.85141C27.5916 6.85141 27.6818 6.7612 27.6818 6.64992C27.6818 6.53864 27.5916 6.44843 27.4803 6.44843C27.369 6.44843 27.2788 6.53864 27.2788 6.64992C27.2788 6.7612 27.369 6.85141 27.4803 6.85141Z" fill="white"/>
<path d="M23.8927 8.3946C24.0039 8.3946 24.0942 8.30438 24.0942 8.1931C24.0942 8.08182 24.0039 7.99161 23.8927 7.99161C23.7814 7.99161 23.6912 8.08182 23.6912 8.1931C23.6912 8.30438 23.7814 8.3946 23.8927 8.3946Z" fill="white"/>
<path d="M39.7137 41.4709C39.825 41.4709 39.9152 41.3807 39.9152 41.2694C39.9152 41.1581 39.825 41.0679 39.7137 41.0679C39.6024 41.0679 39.5122 41.1581 39.5122 41.2694C39.5122 41.3807 39.6024 41.4709 39.7137 41.4709Z" fill="white"/>
<path d="M12.9509 36.525C13.0625 36.525 13.153 36.4345 13.153 36.3229C13.153 36.2113 13.0625 36.1208 12.9509 36.1208C12.8393 36.1208 12.7488 36.2113 12.7488 36.3229C12.7488 36.4345 12.8393 36.525 12.9509 36.525Z" fill="white"/>
<path d="M26.978 39.1259C27.0896 39.1259 27.1801 39.0354 27.1801 38.9238C27.1801 38.8122 27.0896 38.7217 26.978 38.7217C26.8664 38.7217 26.7759 38.8122 26.7759 38.9238C26.7759 39.0354 26.8664 39.1259 26.978 39.1259Z" fill="white"/>
<path d="M17.1254 36.3635C17.2371 36.3635 17.3275 36.2731 17.3275 36.1614C17.3275 36.0498 17.2371 35.9594 17.1254 35.9594C17.0138 35.9594 16.9233 36.0498 16.9233 36.1614C16.9233 36.2731 17.0138 36.3635 17.1254 36.3635Z" fill="white"/>
<path d="M18.8703 39.2114C18.9819 39.2114 19.0724 39.1209 19.0724 39.0093C19.0724 38.8977 18.9819 38.8072 18.8703 38.8072C18.7587 38.8072 18.6682 38.8977 18.6682 39.0093C18.6682 39.1209 18.7587 39.2114 18.8703 39.2114Z" fill="white"/>
<path d="M31.7135 37.417C31.8247 37.417 31.915 37.3268 31.915 37.2155C31.915 37.1042 31.8247 37.014 31.7135 37.014C31.6022 37.014 31.512 37.1042 31.512 37.2155C31.512 37.3268 31.6022 37.417 31.7135 37.417Z" fill="white"/>
<path d="M38.794 33.4212C38.9053 33.4212 38.9955 33.331 38.9955 33.2197C38.9955 33.1085 38.9053 33.0182 38.794 33.0182C38.6827 33.0182 38.5925 33.1085 38.5925 33.2197C38.5925 33.331 38.6827 33.4212 38.794 33.4212Z" fill="white"/>
<path d="M44.1622 35.8738C44.2735 35.8738 44.3637 35.7836 44.3637 35.6723C44.3637 35.561 44.2735 35.4708 44.1622 35.4708C44.0509 35.4708 43.9607 35.561 43.9607 35.6723C43.9607 35.7836 44.0509 35.8738 44.1622 35.8738Z" fill="white"/>
<path d="M45.9918 37.0445C46.1031 37.0445 46.1933 36.9543 46.1933 36.843C46.1933 36.7318 46.1031 36.6415 45.9918 36.6415C45.8805 36.6415 45.7903 36.7318 45.7903 36.843C45.7903 36.9543 45.8805 37.0445 45.9918 37.0445Z" fill="white"/>
<path d="M46.2926 33.8517C46.4038 33.8517 46.4941 33.7615 46.4941 33.6502C46.4941 33.5389 46.4038 33.4487 46.2926 33.4487C46.1813 33.4487 46.0911 33.5389 46.0911 33.6502C46.0911 33.7615 46.1813 33.8517 46.2926 33.8517Z" fill="white"/>
<path d="M19.6009 29.3315C19.7122 29.3315 19.8024 29.2413 19.8024 29.13C19.8024 29.0187 19.7122 28.9285 19.6009 28.9285C19.4896 28.9285 19.3994 29.0187 19.3994 29.13C19.3994 29.2413 19.4896 29.3315 19.6009 29.3315Z" fill="white"/>
<path d="M19.6775 34.0269C19.8261 34.0269 19.9466 33.9064 19.9466 33.7578C19.9466 33.6092 19.8261 33.4888 19.6775 33.4888C19.5289 33.4888 19.4084 33.6092 19.4084 33.7578C19.4084 33.9064 19.5289 34.0269 19.6775 34.0269Z" fill="white"/>
<path d="M21.2918 37.435C21.4404 37.435 21.5608 37.3145 21.5608 37.1659C21.5608 37.0173 21.4404 36.8969 21.2918 36.8969C21.1432 36.8969 21.0227 37.0173 21.0227 37.1659C21.0227 37.3145 21.1432 37.435 21.2918 37.435Z" fill="white"/>
<path d="M40.6284 33.8834C40.777 33.8834 40.8975 33.7629 40.8975 33.6143C40.8975 33.4657 40.777 33.3453 40.6284 33.3453C40.4798 33.3453 40.3594 33.4657 40.3594 33.6143C40.3594 33.7629 40.4798 33.8834 40.6284 33.8834Z" fill="white"/>
<path d="M47.5884 33.4888C47.737 33.4888 47.8575 33.3683 47.8575 33.2197C47.8575 33.0711 47.737 32.9507 47.5884 32.9507C47.4398 32.9507 47.3193 33.0711 47.3193 33.2197C47.3193 33.3683 47.4398 33.4888 47.5884 33.4888Z" fill="white"/>
<path d="M44.1443 32.0179C44.2929 32.0179 44.4134 31.8975 44.4134 31.7489C44.4134 31.6003 44.2929 31.4798 44.1443 31.4798C43.9957 31.4798 43.8752 31.6003 43.8752 31.7489C43.8752 31.8975 43.9957 32.0179 44.1443 32.0179Z" fill="white"/>
<path d="M40.6284 32.1614C40.777 32.1614 40.8975 32.0409 40.8975 31.8923C40.8975 31.7438 40.777 31.6233 40.6284 31.6233C40.4798 31.6233 40.3594 31.7438 40.3594 31.8923C40.3594 32.0409 40.4798 32.1614 40.6284 32.1614Z" fill="white"/>
<path d="M33.3763 4.44125L34.0454 4.37728L33.3775 4.33961C33.3566 4.21046 33.2532 4.10942 33.1228 4.09267L33.0588 3.42661L33.0206 4.09806C32.8998 4.12496 32.8071 4.22601 32.7922 4.35157L32.1082 4.41375L32.797 4.45082C32.8221 4.56622 32.9153 4.6565 33.0325 4.67803L33.0947 5.36442L33.1312 4.67922C33.255 4.65829 33.353 4.56323 33.3763 4.44125Z" fill="white"/>
<path d="M22.0841 11.89L22.7532 11.826L22.0853 11.7883C22.065 11.6592 21.9609 11.5581 21.8306 11.5414L21.7666 10.8753L21.7289 11.5468C21.6076 11.5737 21.5149 11.6747 21.4999 11.8003L20.8159 11.8625L21.5047 11.8996C21.5298 12.0149 21.6231 12.1052 21.7403 12.1268L21.8025 12.8132L21.8396 12.128C21.9633 12.1076 22.0614 12.012 22.0841 11.89Z" fill="white"/>
<path d="M47.0979 31.5839L47.767 31.5199L47.0991 31.4822C47.0788 31.3531 46.9747 31.252 46.8444 31.2353L46.7804 30.5692L46.7427 31.2407C46.622 31.2676 46.5293 31.3686 46.5143 31.4942L45.8303 31.5564L46.5191 31.5934C46.5442 31.7088 46.6375 31.7991 46.7547 31.8206L46.8169 32.507L46.854 31.8218C46.9765 31.8015 47.0746 31.7064 47.0979 31.5839Z" fill="white"/>
<path d="M19.8238 41.881L20.4929 41.817L19.825 41.7794C19.8041 41.6502 19.7007 41.5492 19.5703 41.5324L19.5064 40.8669L19.4687 41.5378C19.3473 41.5647 19.2546 41.6657 19.2397 41.7913L18.5557 41.8535L19.2445 41.8906C19.2696 42.006 19.3629 42.0968 19.48 42.1178L19.5422 42.8042L19.5793 42.119C19.7025 42.0986 19.8011 42.003 19.8238 41.881Z" fill="white"/>
<path d="M44.9724 36.8586L45.6415 36.7946L44.9736 36.7569C44.9533 36.6278 44.8492 36.5267 44.7189 36.51L44.6549 35.8439L44.6173 36.5148C44.4965 36.5417 44.4038 36.6427 44.3889 36.7683L43.7048 36.8305L44.3936 36.8676C44.4187 36.9829 44.512 37.0732 44.6292 37.0948L44.6914 37.7812L44.7285 37.096C44.851 37.0762 44.9497 36.9806 44.9724 36.8586Z" fill="white"/>
<path d="M33.8894 18.2511C31.0989 19.3357 28.3772 20.3038 26.0806 21.0224C21.4138 22.4837 8.64527 26.4395 0.932129 31.426L1.57788 31.6772C6.27752 29.0224 9.33228 28.1884 12.2687 27.2646C15.4615 26.2601 25.7834 23.8446 30.4573 22.5292C32.0364 22.0849 33.8858 21.5032 35.8446 20.7952C35.389 20.1597 34.9082 19.5223 34.4024 18.8861C34.2332 18.6715 34.0616 18.4598 33.8894 18.2511ZM37.2987 22.9501C36.6231 23.4063 36.0568 23.7704 35.6604 24C33.3644 25.3274 22.1708 32.9686 19.6242 34.7265C17.0777 36.4843 10.0097 43.157 7.92897 45.0942L7.85722 45.8828C14.5659 39.8559 16.6705 38.3695 19.3372 36.3408C22.6378 33.8296 29.4654 29.1839 31.7859 27.6951C34.0042 26.2721 36.0048 24.9632 37.8004 23.7656C37.7711 23.7166 37.7418 23.6676 37.7125 23.618C37.5773 23.3961 37.4392 23.1737 37.2987 22.9501ZM47.7856 11.8745C44.5174 13.7902 39.3663 16.1023 34.3689 18.064C34.4885 18.2105 34.6075 18.3582 34.7259 18.507C35.2843 19.2102 35.8111 19.9181 36.3068 20.6266C40.2351 19.1797 44.5455 17.2377 47.9656 14.8873C46.3362 16.4311 40.9496 20.4568 37.6652 22.7008C37.8344 22.9764 37.9983 23.252 38.1567 23.5265C43.1326 20.1967 46.4809 17.7459 48.4319 16.107C51.1226 13.847 57.2572 8.78866 59.5891 2.00839C55.4987 7.21078 50.6628 10.1878 47.7856 11.8745Z" fill="#FC3D21"/>
<path d="M25.1095 29.9426C24.5803 29.2765 23.8485 28.3845 23.299 27.6927C22.5641 26.7677 21.8843 25.8332 21.2613 24.8998C21.058 24.9507 20.8553 25.0015 20.6526 25.0523C21.4048 26.226 22.2401 27.3979 23.1501 28.5435C23.815 29.3806 24.4195 30.0544 24.7292 30.4735C24.792 30.5584 24.9164 30.7462 25.0844 30.9961C25.2781 30.8646 25.4736 30.7318 25.6709 30.5979C25.4802 30.3904 25.2918 30.1722 25.1095 29.9426ZM28.972 33.4487C28.5373 33.0374 27.4832 32.3504 26.386 31.3196C26.1439 31.4858 25.8993 31.6544 25.6542 31.8242C26.3627 32.8227 27.3278 34.049 28.0835 34.4066C29.222 34.9459 29.5287 33.9761 28.972 33.4487ZM34.7258 18.507C28.4524 10.6111 20.7889 6.27324 17.4848 8.89865C14.9186 10.9375 15.9721 16.8963 19.5094 23.1558C19.6923 23.093 19.8735 23.0314 20.0529 22.9704C16.4827 16.8717 15.5057 11.2042 17.9261 9.28071C20.9677 6.86397 28.3119 11.2185 34.4035 18.8855C35.6645 20.4723 36.7731 22.0652 37.7118 23.6179C41.3065 29.5671 42.4096 34.9471 39.9259 37.1432C39.1659 37.8152 36.8436 38.0789 33.8014 36.7097C33.759 36.7629 33.8271 36.907 33.8803 36.9423C36.5064 37.9982 39.0218 38.4006 40.2918 37.3919C43.3436 34.9668 40.9992 26.403 34.7258 18.507Z" fill="white"/>
<path d="M7.8208 19.444H11.8388L15.2111 25.1659C15.2111 25.1659 15.2111 21.0224 15.2111 20.6996C15.2111 20.1973 14.5743 19.5426 14.3501 19.444C14.6191 19.444 16.9689 19.444 17.1304 19.444C16.96 19.4888 16.4129 20.1525 16.4129 20.6996C16.4129 20.9686 16.4129 26.9776 16.4129 27.2646C16.4129 27.6682 16.9959 28.2242 17.2739 28.4395H13.3994L9.97331 22.6906C9.97331 22.6906 9.97331 26.9776 9.97331 27.2108C9.97331 27.6592 10.4128 28.0897 10.8702 28.4574H7.91049C8.33202 28.2781 8.73562 27.713 8.77149 27.2646C8.80737 26.8162 8.77149 21.0314 8.77149 20.7803C8.77149 20.2332 8.24233 19.7848 7.8208 19.444Z" fill="white"/>
<path d="M44.5749 28.4395H49.9202C49.6243 28.3677 49.2924 28.018 49.1131 27.5516C48.9337 27.0852 46.0995 19.444 46.0995 19.444H44.0672C43.4908 19.8589 42.8732 20.2966 42.2137 20.7576C42.2119 20.7743 42.2101 20.7911 42.2071 20.8072C42.1186 21.3453 40.5281 27.1056 40.4313 27.3902C40.2968 27.7848 39.6062 28.2242 39.3281 28.4574H42.2071C41.9201 28.1346 41.6869 27.8207 41.7407 27.4619C41.7945 27.1032 41.956 26.3857 41.956 26.3857H44.9336C45.0681 26.7444 45.1686 27.0667 45.2206 27.3722C45.2834 27.7399 44.9067 28.1525 44.5749 28.4395ZM42.225 25.2377L43.2295 21.9552L44.5569 25.2377H42.225ZM41.7724 19.7716C41.9201 19.6628 42.0684 19.5534 42.2161 19.444H41.4358C41.5135 19.5157 41.6421 19.6287 41.7724 19.7716Z" fill="white"/>
<path d="M21.3276 27.4619C21.3815 27.1032 21.5429 26.3857 21.5429 26.3857H24.5205C24.6551 26.7444 24.7555 27.0667 24.8075 27.3722C24.8703 27.7399 24.4936 28.1525 24.1618 28.4395H28.868C28.966 28.3737 29.0635 28.3079 29.161 28.2428C28.9786 28.0813 28.8106 27.8392 28.7 27.5516C28.5206 27.0852 25.6865 19.444 25.6865 19.444H21.0227C21.2469 19.6502 21.8927 20.2063 21.794 20.8072C21.7061 21.3453 20.1151 27.1056 20.0182 27.3902C19.8837 27.7848 19.1931 28.2242 18.915 28.4574H21.794C21.507 28.1346 21.2738 27.8207 21.3276 27.4619ZM22.8165 21.9552L24.1438 25.2377H21.812L22.8165 21.9552Z" fill="white"/>
<path d="M37.5846 23.9091C36.7069 24.4939 35.7807 25.1044 34.8049 25.7417C35.2426 25.954 35.5912 26.2207 35.6246 26.565C35.6868 27.212 34.387 27.5247 33.212 27.3902C32.9771 27.3633 32.7463 27.3017 32.5262 27.2192C32.2823 27.3764 32.0359 27.5349 31.786 27.6951C31.5319 27.8583 31.2234 28.0592 30.8712 28.2912V29.2198C31.1044 28.7624 31.6144 28.3528 32.0102 28.3319C32.1806 28.3229 32.7726 28.87 35.2121 28.7354C36.396 28.6703 38.683 27.4081 38.6471 25.9552C38.6256 25.0966 38.1772 24.4269 37.5846 23.9091ZM30.8706 26.1525V27.0984C31.0864 26.9543 31.2993 26.8126 31.508 26.6745C31.1797 26.4461 30.9471 26.2326 30.8706 26.1525ZM36.7505 23.3154C36.5233 23.1809 36.2931 23.0631 36.0725 22.9591C34.9245 22.4209 33.7227 22.3223 33.4715 21.5958C33.2946 21.0834 33.7944 20.6093 35.0142 20.6272C36.2339 20.6452 37.364 21.3716 37.6689 21.6317V19.3178C37.5792 19.4075 37.1858 19.8589 36.8259 19.7842C36.1353 19.6407 34.9604 19.4535 33.615 19.4613C32.0724 19.4703 30.745 20.6625 30.7002 22.1698C30.6374 24.2775 32.3235 24.8514 33.2742 25.1833C33.3723 25.2174 33.4841 25.2538 33.6055 25.2927C34.5173 24.6996 35.2384 24.2428 35.6605 23.9994C35.9439 23.8362 36.3152 23.6018 36.7505 23.3154Z" fill="white"/>
<rect x="0.932129" width="58.657" height="48" style="mix-blend-mode:saturation"/>
</svg>
