<svg width="49" height="42" viewBox="0 0 49 42" fill="none" xmlns="http://www.w3.org/2000/svg">
<g clip-path="url(#clip0_180_69502)">
<path fill-rule="evenodd" clip-rule="evenodd" d="M37.4286 0.428558L26.7467 29.9143C26.4728 30.6686 25.7881 31.1486 25.0348 31.2857H36.333C37.2231 31.2857 37.9764 30.7371 38.2502 29.9143L48.9321 0.428558H37.4286ZM24.1447 30.8057C24.8294 30.8057 25.3772 30.4628 25.7196 29.9828C25.7881 29.9143 25.8565 29.7771 25.9935 29.5028L29.8965 18.6686L27.6368 12.36C27.3629 11.6743 26.6782 11.1943 25.8565 11.1943C25.1718 11.1943 24.624 11.5371 24.2816 12.0171C24.2132 12.0857 24.0762 12.2914 24.0077 12.4971L20.1047 23.3314L22.4328 29.64C22.6383 30.3257 23.323 30.8057 24.1447 30.8057ZM13.5313 10.7143H24.9664C24.1447 10.7828 23.3915 11.3314 23.1176 12.0857L12.4357 41.5714H0.932129L11.614 12.0857C11.8879 11.3314 12.6411 10.7143 13.5313 10.7143Z" fill="#0090BA"/>
<rect x="0.932129" y="0.428558" width="48" height="41.1429" style="mix-blend-mode:saturation"/>
</g>
<defs>
<clipPath id="clip0_180_69502">
<rect width="48" height="41.1429" fill="white" transform="translate(0.932129 0.428558)"/>
</clipPath>
</defs>
</svg>
