<svg width="176" height="32" viewBox="0 0 176 32" fill="none" xmlns="http://www.w3.org/2000/svg">
<g clip-path="url(#clip0_180_69562)">
<path d="M47.7003 9.17778C48.1681 9.17778 48.5691 9.55556 48.5691 10.0444V26.6C48.5691 27.0667 48.1458 27.4444 47.7003 27.4444H45.4506C45.0274 27.4444 44.6041 27.1111 44.6041 26.6444V25.1111C43.4681 26.7778 41.5079 27.9333 38.6568 27.9333C33.89 27.9333 30.9497 24.7778 30.9497 20.0889V10C30.9497 9.53333 31.3729 9.15556 31.8184 9.15556H34.0682C34.5359 9.15556 34.9146 9.53333 34.9146 10V19.4444C34.9146 22.4889 36.5184 24.5111 39.6814 24.5111C42.7776 24.5111 44.6041 22.4222 44.6041 19.4889V10C44.6041 9.53333 45.0274 9.15556 45.4506 9.15556H47.7003M14.5109 0C6.80379 0 0.589111 5.97778 0.589111 13.9556C0.589111 21.9556 6.80379 27.9111 14.5109 27.9111C15.8251 27.9111 17.0947 27.7333 18.2976 27.4L19.8123 31.2889C19.9682 31.7111 20.28 31.9778 20.8369 31.9778H23.2426C23.8217 31.9778 24.245 31.6 23.9777 30.8667L22.0175 25.7778C25.871 23.3556 28.4326 19.0667 28.4326 13.9333C28.4326 5.97778 22.218 0 14.5109 0ZM20.5696 22.0667L18.8099 17.5111C18.654 17.1333 18.3421 16.7778 17.6739 16.7778H15.3796C14.8004 16.7778 14.3549 17.1556 14.6222 17.8889L16.9388 23.8667C16.1815 24.0667 15.3573 24.1556 14.5109 24.1556C8.87534 24.1556 4.86588 19.7333 4.86588 13.9556C4.86588 8.17778 8.87534 3.75556 14.5109 3.75556C20.1464 3.75556 24.1559 8.17778 24.1559 13.9556C24.1559 17.3333 22.7971 20.2222 20.5696 22.0667M175.068 26.5111C175.268 26.9778 175.023 27.4222 174.466 27.4222H171.949C171.481 27.4222 171.103 27.2 170.947 26.7333L166.291 14.2444L161.569 26.7333C161.369 27.2222 161.035 27.4222 160.567 27.4222H158.317C157.849 27.4222 157.515 27.2222 157.315 26.7333L152.548 14.1778L147.848 26.7333C147.647 27.2 147.313 27.4222 146.846 27.4222H144.484C144.017 27.4222 143.683 27.2 143.482 26.7333L138.827 14.1778L134.015 26.7333C133.815 27.2222 133.481 27.4222 133.013 27.4222H130.763C130.295 27.4222 129.961 27.2222 129.761 26.7333L125.061 14.1778L120.361 26.7333C120.205 27.2 119.826 27.4222 119.358 27.4222H116.908C116.329 27.4222 116.106 26.9556 116.307 26.5111L122.677 9.88889C122.878 9.4 123.212 9.15556 123.68 9.15556H126.42C126.887 9.15556 127.221 9.37778 127.422 9.88889L132.011 22.0222L136.555 9.88889C136.755 9.4 137.089 9.15556 137.557 9.15556H140.252C140.72 9.15556 141.054 9.37778 141.255 9.88889L145.754 22.0222L150.254 9.88889C150.454 9.4 150.788 9.15556 151.256 9.15556H153.973C154.441 9.15556 154.775 9.37778 154.976 9.88889L159.542 22.0222L163.997 9.88889C164.198 9.4 164.532 9.15556 165 9.15556H167.739C168.207 9.15556 168.541 9.37778 168.742 9.88889L175.068 26.5111M69.5074 9.17778H67.2576C66.7899 9.17778 66.3889 9.55556 66.3889 10.0444V11.5556C65.2529 9.84444 63.0254 8.62222 60.397 8.62222C55.4297 8.62222 51.1752 12.5333 51.1752 18.2444C51.1752 24.0222 55.452 27.9111 60.3747 27.9111C63.0477 27.9111 65.2084 26.6889 66.4112 24.9778V26.5778C66.4112 27.0444 66.8344 27.4222 67.2799 27.4222H69.5297C69.9974 27.4222 70.3761 27.0444 70.3761 26.5778V10.0444C70.3538 9.55556 69.9752 9.17778 69.5074 9.17778M60.8202 24.2667C57.5458 24.2667 55.207 21.6 55.207 18.2889C55.207 14.9333 57.5235 12.3556 60.8202 12.3556C64.0723 12.3556 66.4335 14.9333 66.4335 18.2889C66.4112 21.6222 64.0501 24.2667 60.8202 24.2667ZM96.3485 24.8444C96.8386 25.4444 96.4154 25.9111 96.1481 26.1111C94.5888 27.2889 92.5173 27.9333 90.2675 27.9333C84.5874 27.9333 80.8007 23.7778 80.8007 18.3111C80.8007 12.8444 84.5874 8.64444 90.2675 8.64444C92.5173 8.64444 94.5666 9.28889 96.1481 10.4667C96.4154 10.6667 96.794 11.0667 96.3485 11.7333L95.2794 13.2222C94.8561 13.8 94.3661 13.6444 93.9429 13.3778C92.9405 12.7778 91.7599 12.2667 90.4012 12.2667C87.0822 12.2667 84.877 14.9333 84.877 18.3111C84.877 21.6889 87.0822 24.3333 90.4012 24.3333C91.7822 24.3333 92.8737 23.8 93.876 23.2222C94.2993 23 94.7448 22.8 95.2125 23.4222L96.3485 24.8444V24.8444ZM106.951 8.66667C101.605 8.66667 97.3509 12.8444 97.3509 18.2889C97.3509 23.7778 101.628 27.9111 106.951 27.9111C112.297 27.9111 116.552 23.7556 116.552 18.2889C116.574 12.8667 112.297 8.66667 106.951 8.66667ZM106.951 24.2444C103.677 24.2444 101.338 21.6222 101.338 18.3111C101.338 14.9556 103.655 12.3778 106.951 12.3778C110.226 12.3778 112.565 14.9556 112.565 18.3111C112.565 21.6222 110.248 24.2444 106.951 24.2444ZM77.3927 0.488889C77.8827 0.488889 78.2391 0.911111 78.2391 1.35556V26.5556C78.2391 27.0222 77.905 27.4222 77.3927 27.4222H75.1429C74.6752 27.4222 74.2742 27 74.2742 26.5556V1.37778C74.2742 0.911111 74.6974 0.511111 75.1429 0.511111H77.3927" fill="#3253DC"/>
<rect x="0.589111" width="174.545" height="32" style="mix-blend-mode:saturation"/>
</g>
<defs>
<clipPath id="clip0_180_69562">
<rect width="174.545" height="32" fill="white" transform="translate(0.589111)"/>
</clipPath>
</defs>
</svg>
