<svg width="125" height="20" viewBox="0 0 125 20" fill="none" xmlns="http://www.w3.org/2000/svg">
<g clip-path="url(#clip0_180_69499)">
<path d="M103.627 15.0205H103.532L99.4528 0.83222H92.873V18.7191H97.2316L96.9861 4.04071H97.082L101.462 18.7191H107.775V0.83134H103.387L103.627 15.0205ZM19.9173 0.83134L16.6349 18.9075H21.4247L23.8518 2.49982H23.953L26.3158 18.9083H31.0775L27.81 0.83134H19.9173ZM46.7098 0.8331L44.5204 14.6535H44.4209L42.2421 0.8331H35.0111L34.6186 18.9075H39.0521L39.1629 2.65294H39.2633L42.2245 18.9075H46.7213L49.6834 2.65822L49.7819 2.65294L49.8972 18.9075H54.3324L53.9408 0.8331H46.7098ZM5.65069 5.48127C5.56709 5.11167 5.58733 4.74207 5.63221 4.53791C5.75981 3.95711 6.1435 3.32087 7.25318 3.32087C8.29334 3.32087 8.89878 3.97735 8.89878 4.95767V6.07439H13.3261V4.81247C13.3261 0.86918 9.8571 0.254059 7.34558 0.254059C4.19429 0.254059 1.62117 1.3215 1.14684 4.27039C1.01748 5.06239 1.00164 5.78839 1.18996 6.70359C1.95997 10.3978 8.25814 11.4679 9.17246 13.8043C9.34406 14.2399 9.28862 14.8049 9.20414 15.1463C9.0607 15.7377 8.66206 16.3528 7.47846 16.3528C6.37142 16.3528 5.69557 15.706 5.69557 14.7195L5.69293 12.9657H0.939163L0.936523 14.3631C0.936523 18.3953 4.04821 19.6071 7.38078 19.6071C10.5928 19.6071 13.2258 18.5 13.6517 15.4825C13.8682 13.9178 13.7089 12.8918 13.6323 12.509C12.8817 8.72232 6.1567 7.60296 5.65069 5.48127ZM63.3348 5.52351C63.2477 5.16271 63.2723 4.79663 63.3137 4.59687C63.4378 4.01959 63.818 3.39039 64.918 3.39039C65.9458 3.39039 66.5495 4.03719 66.5495 5.00431V6.11311H70.9292V4.86263C70.9292 0.96774 67.492 0.354379 65.013 0.354379C61.889 0.354379 59.3379 1.39806 58.8741 4.32847C58.7447 5.11695 58.7245 5.83767 58.9146 6.73967C59.6775 10.3952 65.9132 11.4574 66.8205 13.7683C66.986 14.2039 66.9358 14.7591 66.8548 15.0979C66.7105 15.6937 66.3119 16.2903 65.145 16.2903C64.0432 16.2903 63.3797 15.6532 63.3797 14.6773L63.3762 12.9366H58.6647V14.3218C58.6647 18.3126 61.7491 19.5103 65.0491 19.5103C68.2215 19.5103 70.8324 18.4129 71.2504 15.4271C71.4652 13.8826 71.3068 12.8654 71.232 12.4843C70.4884 8.73816 63.8276 7.62496 63.3348 5.52351ZM83.442 14.1995C83.4455 14.4291 83.4385 14.6949 83.4006 14.8885C83.3126 15.3382 82.9334 16.1891 81.7005 16.1891C80.472 16.1891 80.0883 15.3382 80.0003 14.8885C79.9625 14.6949 79.9537 14.4291 79.9554 14.1995V0.82958H75.4745V13.785C75.4674 14.1203 75.5 14.7987 75.5158 14.9791C75.8203 18.3487 78.4392 19.4372 81.6996 19.4372C84.9565 19.4372 87.5745 18.3487 87.8886 14.9791C87.9045 14.7987 87.9388 14.1194 87.9335 13.785V0.82958H83.4411V14.1995H83.442ZM118.721 8.7452V11.3922H120.537V14.0138C120.542 14.2417 120.533 14.4934 120.495 14.7002C120.416 15.1868 119.964 16.0079 118.685 16.0079C117.403 16.0079 116.952 15.1859 116.87 14.7002C116.835 14.4934 116.825 14.2417 116.83 14.0138V5.74351C116.83 5.44959 116.849 5.12839 116.902 4.89519C116.996 4.44991 117.378 3.58311 118.668 3.58311C120.024 3.58311 120.359 4.49831 120.44 4.89519C120.492 5.14599 120.495 5.57807 120.495 5.57631V6.59447H124.964V5.99079C124.962 5.99079 124.98 5.37303 124.928 4.80895C124.6 1.4095 121.844 0.339419 118.705 0.339419C115.563 0.339419 112.873 1.4183 112.483 4.80895C112.445 5.10111 112.406 5.66959 112.406 5.99079L112.404 13.5958C112.406 13.9363 112.416 14.188 112.465 14.7899C112.758 18.0811 115.563 19.2603 118.701 19.2603C121.841 19.2603 124.646 18.0811 124.94 14.7899C124.989 14.1871 124.996 13.9355 124.997 13.5958V8.7452H118.721Z" fill="#1428A0"/>
<rect x="0.932129" y="0.19931" width="124" height="19.6014" style="mix-blend-mode:saturation"/>
</g>
<defs>
<clipPath id="clip0_180_69499">
<rect width="124" height="19.6014" fill="white" transform="translate(0.932129 0.19931)"/>
</clipPath>
</defs>
</svg>
