<?xml version="1.0" encoding="UTF-8"?>
<svg width="241px" height="240px" viewBox="0 0 241 240" version="1.1" xmlns="http://www.w3.org/2000/svg" xmlns:xlink="http://www.w3.org/1999/xlink">
    <!-- Generator: Sketch 46.2 (44496) - http://www.bohemiancoding.com/sketch -->
    <title>blue-icon</title>
    <desc>Created with Sketch.</desc>
    <defs></defs>
    <g id="Page-1" stroke="none" stroke-width="1" fill="none" fill-rule="evenodd">
        <g id="06" transform="translate(-681.000000, -572.000000)" fill="#1875F0">
            <g id="Group-2" transform="translate(626.000000, 517.000000)">
                <path d="M216.908181,153.127705 C216.908181,153.127705 217.280588,169.452526 205.928754,180.543035 C194.57546,191.633544 180.631383,190.619887 171.560722,187.557072 C162.488602,184.494256 150.79503,176.85251 148.531381,161.16705 C146.269193,145.480133 156.508188,132.736607 156.508188,132.736607 L178.820463,105.066407 L191.815268,89.2629779 L202.969946,75.4912313 C202.969946,75.4912313 208.088713,68.6534193 209.547671,67.2421648 C209.836834,66.9625354 210.133299,66.7790286 210.423923,66.6377576 L210.635683,66.5299837 L210.673654,66.5154197 C211.28703,66.2518108 211.993873,66.195011 212.675888,66.4251227 C213.343299,66.6508652 213.860288,67.1081757 214.187421,67.6718037 L214.256061,67.7810339 L214.315938,67.9062846 C214.475124,68.2063036 214.608022,68.5485583 214.67082,68.9709151 C214.968745,70.976382 214.870897,79.5094471 214.870897,79.5094471 L215.342613,97.2047434 L216.039232,117.630795 L216.908181,153.127705 Z M245.790587,78.2043261 C287.057212,108.155253 305.982915,162.509669 288.774288,213.346872 C267.594104,275.911031 199.706245,309.46073 137.142925,288.281718 C74.5796048,267.10125 41.031812,199.213937 62.2105402,136.649778 C79.4482947,85.7295603 127.625459,54.0324057 178.690632,55.4145322 L162.322339,74.7541074 C132.028106,80.231639 105.87146,100.919843 95.5908489,131.290215 C80.2944535,176.475117 105.932628,225.982624 152.855846,241.866155 C199.777608,257.751142 250.216536,233.998666 265.512932,188.813764 C275.760046,158.543884 267.634882,126.336988 247.050359,103.595256 L245.790587,78.2043261 Z" id="blue-icon"></path>
            </g>
        </g>
    </g>
</svg>